<?xml version="1.0" encoding="utf-8"?>
<!-- Generator: Adobe Illustrator 24.3.0, SVG Export Plug-In . SVG Version: 6.00 Build 0)  -->
<svg version="1.1" id="Camada_1" xmlns="http://www.w3.org/2000/svg" xmlns:xlink="http://www.w3.org/1999/xlink" x="0px" y="0px"
	 viewBox="0 0 50 50" style="enable-background:new 0 0 50 50;" xml:space="preserve">
<style type="text/css">
	.st0{fill:#0F546B;}
	.st1{enable-background:new    ;}
	.st2{fill:#F9C395;enable-background:new    ;}
</style>
<g>
	<circle class="st0" cx="25" cy="25" r="24.9"/>
	<g class="st1">
		<g>
			<path class="st2" d="M26.2,20.7c1.6,0,3.1,0.4,4.4,1.1s2.4,1.8,3.1,3.2c0.7,1.4,1.1,3,1.1,4.8c0,3.2-1,5.6-2.9,7.3
				s-4.8,2.6-8.7,2.6c-3.3,0-6.1-0.5-8.2-1.5V32c1.1,0.5,2.4,1,3.8,1.3s2.7,0.5,3.7,0.5c1.4,0,2.5-0.3,3.3-0.9
				c0.8-0.6,1.2-1.5,1.2-2.7c0-1.1-0.4-1.9-1.2-2.6c-0.8-0.6-2-0.9-3.6-0.9c-1.2,0-2.5,0.2-3.9,0.7L15.6,26l1.1-15.1H33v6.4h-9.7
				l-0.4,3.8c1-0.2,1.7-0.3,2.2-0.3S25.9,20.7,26.2,20.7z"/>
		</g>
	</g>
</g>
</svg>
