<?xml version="1.0" encoding="utf-8"?>
<!-- Generator: Adobe Illustrator 24.3.0, SVG Export Plug-In . SVG Version: 6.00 Build 0)  -->
<svg version="1.1" id="Camada_1" xmlns="http://www.w3.org/2000/svg" xmlns:xlink="http://www.w3.org/1999/xlink" x="0px" y="0px"
	 viewBox="0 0 50 50" style="enable-background:new 0 0 50 50;" xml:space="preserve">
<style type="text/css">
	.st0{fill:#0F546B;}
	.st1{enable-background:new    ;}
	.st2{fill:#F9C395;enable-background:new    ;}
</style>
<g>
	<circle class="st0" cx="25" cy="25" r="24.9"/>
	<g class="st1">
		<g>
			<path class="st2" d="M34.2,17.1c0,1.8-0.5,3.3-1.6,4.6s-2.6,2.2-4.7,2.8v0.1c4.8,0.6,7.1,2.9,7.1,6.8c0,2.7-1.1,4.7-3.2,6.3
				s-5,2.3-8.8,2.3c-1.5,0-3-0.1-4.3-0.3c-1.3-0.2-2.7-0.6-4.2-1.2v-6.4c1.2,0.6,2.5,1.1,3.8,1.4c1.3,0.3,2.5,0.5,3.6,0.5
				c1.7,0,2.9-0.2,3.7-0.7c0.8-0.5,1.2-1.2,1.2-2.2c0-0.8-0.2-1.4-0.6-1.8s-1.1-0.7-2-1s-2.1-0.3-3.5-0.3h-1.8v-5.8h1.8
				c3.9,0,5.9-1,5.9-3c0-0.8-0.3-1.3-0.9-1.7c-0.6-0.4-1.4-0.5-2.3-0.5c-1.8,0-3.7,0.6-5.7,1.8l-3.2-5.2c1.5-1,3.1-1.8,4.6-2.2
				c1.6-0.4,3.4-0.7,5.4-0.7c3,0,5.3,0.6,7,1.8S34.2,15,34.2,17.1z"/>
		</g>
	</g>
</g>
</svg>
