<svg xmlns="http://www.w3.org/2000/svg" xmlns:xlink="http://www.w3.org/1999/xlink" viewBox="0 0 38.46 38.47"><defs><style>.cls-1{fill:url(#Gradiente_sem_nome_9);}</style><linearGradient id="Gradiente_sem_nome_9" y1="19.23" x2="38.46" y2="19.23" gradientUnits="userSpaceOnUse"><stop offset="0" stop-color="#ffac5a"/><stop offset="0.34" stop-color="#a48e77"/><stop offset="0.66" stop-color="#557490"/><stop offset="0.88" stop-color="#2363a0"/><stop offset="0.99" stop-color="#105da6"/></linearGradient></defs><g id="Camada_2" data-name="Camada 2"><g id="Layer_1" data-name="Layer 1"><path class="cls-1" d="M38.43,5.18a1,1,0,0,0-.68-.7l-2.93-.84L34,.72A1,1,0,0,0,32.93,0h0a1,1,0,0,0-.59.27L27.91,4.72a1,1,0,0,0-.3.71v4L27,10a16.24,16.24,0,0,0-27,10.79h0c0,.41-.06.83-.06,1.24,0,.05,0,.1,0,.14s0,0,0,0A15.36,15.36,0,0,0,.23,25c.08.46.19.91.31,1.36v0a16.27,16.27,0,1,0,27.9-15l.56-.56h4a.94.94,0,0,0,.69-.29l4.44-4.44A1,1,0,0,0,38.43,5.18Zm-7.86,17A14.3,14.3,0,0,1,2.45,25.88l0,0c-.1-.39-.19-.78-.26-1.18A14.68,14.68,0,0,1,2,22c0-.34,0-.68,0-1,0-.16,0-.32,0-.48a14.3,14.3,0,0,1,23.59-9.14l-1.41,1.4a12.14,12.14,0,1,0,1.41,1.39l1.4-1.4A14.25,14.25,0,0,1,30.57,22.2ZM18.63,18.45A4.46,4.46,0,1,0,20,19.84l1.43-1.44a6.46,6.46,0,0,1,1.23,3.8,6.41,6.41,0,1,1-6.41-6.42h0A6.41,6.41,0,0,1,20.05,17Zm.11,3.75a2.47,2.47,0,1,1-2.47-2.47A2.45,2.45,0,0,1,18.74,22.2Zm2.71-6.57A8.41,8.41,0,1,0,22.84,17l1.43-1.42a10.33,10.33,0,1,1-1.4-1.4ZM32.62,8.88h-3V5.83l3-3,.53,1.84a1,1,0,0,0,.68.67l1.84.53Z"/></g></g></svg>