<?xml version="1.0" encoding="utf-8"?>
<!-- Generator: Adobe Illustrator 24.3.0, SVG Export Plug-In . SVG Version: 6.00 Build 0)  -->
<svg version="1.1" id="Camada_1" xmlns="http://www.w3.org/2000/svg" xmlns:xlink="http://www.w3.org/1999/xlink" x="0px" y="0px"
	 viewBox="0 0 50 50" style="enable-background:new 0 0 50 50;" xml:space="preserve">
<style type="text/css">
	.st0{fill:#0F546B;}
	.st1{enable-background:new    ;}
	.st2{fill:#F9C395;enable-background:new    ;}
</style>
<g>
	<circle class="st0" cx="25" cy="25" r="24.9"/>
	<g class="st1">
		<g>
			<path class="st2" d="M14.6,27.4c0-4,0.6-7.2,1.7-9.7c1.1-2.5,2.8-4.3,5-5.5c2.2-1.2,5-1.8,8.2-1.8c1.2,0,2.5,0.1,4.1,0.3v6
				c-1.3-0.2-2.7-0.4-4.2-0.4c-2.6,0-4.5,0.6-5.8,1.7c-1.3,1.1-2,3-2.1,5.5h0.2c1.2-2.2,3.1-3.3,5.6-3.3c2.5,0,4.5,0.8,5.9,2.5
				c1.4,1.6,2.1,3.9,2.1,6.8c0,3.1-0.9,5.6-2.7,7.4s-4.2,2.7-7.4,2.7c-3.4,0-6-1.1-7.9-3.3C15.6,34.4,14.6,31.3,14.6,27.4z
				 M25.2,33.7c0.8,0,1.5-0.3,2-0.9s0.8-1.6,0.8-3c0-2.3-0.9-3.5-2.7-3.5c-0.9,0-1.6,0.3-2.2,0.9c-0.6,0.6-0.8,1.3-0.8,2.2
				c0,1.2,0.3,2.3,0.8,3.1C23.7,33.3,24.4,33.7,25.2,33.7z"/>
		</g>
	</g>
</g>
</svg>
