<?xml version="1.0" encoding="utf-8"?>
<!-- Generator: Adobe Illustrator 24.3.0, SVG Export Plug-In . SVG Version: 6.00 Build 0)  -->
<svg version="1.1" id="Camada_1" xmlns="http://www.w3.org/2000/svg" xmlns:xlink="http://www.w3.org/1999/xlink" x="0px" y="0px"
	 viewBox="0 0 50 50" style="enable-background:new 0 0 50 50;" xml:space="preserve">
<style type="text/css">
	.st0{fill:#0F546B;}
	.st1{enable-background:new    ;}
	.st2{fill:#F9C395;enable-background:new    ;}
</style>
<g>
	<circle class="st0" cx="25" cy="25" r="24.9"/>
	<g class="st1">
		<g>
			<path class="st2" d="M35.2,39.5H14.5v-5.1l7-7.1c2-2.1,3.3-3.5,3.9-4.3c0.6-0.8,1-1.4,1.3-2S27,20,27,19.4c0-0.7-0.2-1.3-0.7-1.8
				s-1.2-0.6-2-0.6c-0.9,0-1.8,0.3-2.7,0.8c-0.9,0.5-2,1.3-3.1,2.3l-4.2-5c1.5-1.3,2.7-2.3,3.7-2.8c1-0.6,2.1-1,3.3-1.3
				c1.2-0.3,2.5-0.4,4-0.4c1.8,0,3.5,0.3,5,1c1.5,0.7,2.6,1.6,3.4,2.8c0.8,1.2,1.2,2.6,1.2,4.1c0,1.1-0.1,2.2-0.4,3.1
				c-0.3,1-0.7,1.9-1.3,2.8s-1.4,1.9-2.3,2.9s-3,2.9-6.2,5.8v0.2h10.8V39.5z"/>
		</g>
	</g>
</g>
</svg>
