
<svg xmlns="http://www.w3.org/2000/svg" version="1.1" xmlns:xlink="http://www.w3.org/1999/xlink" preserveAspectRatio="none" x="0px" y="0px" width="120px" height="120px" viewBox="0 0 120 120">
<defs>
<g id="Layer0_0_MEMBER_0_MEMBER_0_FILL">
<path fill="#7CB8AF" stroke="none" d="
M 210 70.55
Q 210 44.65 191.7 26.35 173.4 8.05 147.5 8.05 121.6 8.05 103.3 26.35 85 44.65 85 70.55 85 96.45 103.3 114.75 121.6 133.05 147.5 133.05 173.4 133.05 191.7 114.75 210 96.45 210 70.55 Z"/>
</g>

<g id="Layer0_0_MEMBER_0_MEMBER_1_MEMBER_0_FILL">
<path fill="#0F5DA6" stroke="none" d="
M 402.2 2.05
Q 400.3 0.1 397.55 0.05
L 302.4 0.05
Q 299.65 0.1 297.75 2.05 295.85 3.95 295.85 6.7 295.85 9.45 297.75 11.4 299.65 13.35 302.4 13.4
L 322.5 13.4 322.5 81.75 377.45 81.75 377.45 13.4 397.55 13.4
Q 400.3 13.35 402.2 11.4 404.1 9.45 404.1 6.7 404.1 3.95 402.2 2.05 Z"/>
</g>

<g id="Layer0_0_MEMBER_0_MEMBER_1_MEMBER_1_FILL">
<path fill="#0F5DA6" stroke="none" d="
M 429.65 92.65
Q 427.75 90.7 425 90.65
L 274.95 90.65
Q 272.2 90.7 270.3 92.65 268.35 94.6 268.35 97.35 268.35 100.1 270.3 102.05 272.2 104 274.95 104.05
L 294.6 104.05 294.6 379.55 304 388.6
Q 317.6 401.75 336.25 405.75
L 336.45 405.75 336.45 448.8 345.25 448.8 345.25 555.3
Q 345.25 557.25 346.65 558.65 348 560.05 349.95 560.05 351.9 560.05 353.3 558.65 354.7 557.25 354.7 555.3
L 354.7 448.8 363.5 448.8 363.5 405.8
Q 372.75 403.9 381.05 399.45 389.4 395.05 396.15 388.45
L 405.35 379.55 405.35 104.05 425 104.05
Q 427.75 104 429.65 102.05 431.6 100.1 431.6 97.35 431.6 94.6 429.65 92.65
M 370.25 144.8
Q 373.2 144.85 375.25 146.95 377.3 149 377.3 151.95 377.3 154.9 375.25 157 373.2 159.1 370.25 159.15
L 330 159.15
Q 327.05 159.1 325 157 322.95 154.9 322.95 151.95 322.95 149 325 146.95 327.05 144.85 330 144.8
L 370.25 144.8
M 375.25 214.1
Q 373.2 216.2 370.25 216.25
L 330 216.25
Q 327.05 216.2 325 214.1 322.95 212.05 322.95 209.1 322.95 206.15 325 204.05 327.05 201.95 330 201.9
L 370.25 201.9
Q 373.2 201.95 375.25 204.05 377.3 206.15 377.3 209.1 377.3 212.05 375.25 214.1
M 325 261.15
Q 327.05 259.05 330 259
L 370.25 259
Q 373.2 259.05 375.25 261.15 377.3 263.25 377.3 266.2 377.3 269.15 375.25 271.2 373.2 273.3 370.25 273.35
L 330 273.35
Q 327.05 273.3 325 271.2 322.95 269.15 322.95 266.2 322.95 263.25 325 261.15
M 375.25 328.3
Q 373.2 330.4 370.25 330.45
L 330 330.45
Q 327.05 330.4 325 328.3 322.95 326.25 322.95 323.3 322.95 320.35 325 318.25 327.05 316.15 330 316.1
L 370.25 316.1
Q 373.2 316.15 375.25 318.25 377.3 320.35 377.3 323.3 377.3 326.25 375.25 328.3 Z"/>
</g>
</defs>

<g transform="matrix( 0.9119873046875, 0, 0, 0.9119873046875, -74.5,-4.35) ">
<use xlink:href="#Layer0_0_MEMBER_0_MEMBER_0_FILL"/>
</g>

<g transform="matrix( -0.1029815673828125, -0.1029815673828125, 0.1029815673828125, -0.1029815673828125, 69.15,122.45) ">
<use xlink:href="#Layer0_0_MEMBER_0_MEMBER_1_MEMBER_0_FILL"/>
</g>

<g transform="matrix( -0.1029815673828125, -0.1029815673828125, 0.1029815673828125, -0.1029815673828125, 69.15,122.45) ">
<use xlink:href="#Layer0_0_MEMBER_0_MEMBER_1_MEMBER_1_FILL"/>
</g>
</svg>
