
<svg xmlns="http://www.w3.org/2000/svg" version="1.1" xmlns:xlink="http://www.w3.org/1999/xlink" preserveAspectRatio="none" x="0px" y="0px" width="120px" height="120px" viewBox="0 0 120 120">
<defs>
<g id="Layer0_0_MEMBER_0_MEMBER_0_FILL">
<path fill="#7CB8AF" stroke="none" d="
M 210 70.55
Q 210 44.65 191.7 26.35 173.4 8.05 147.5 8.05 121.6 8.05 103.3 26.35 85 44.65 85 70.55 85 96.45 103.3 114.75 121.6 133.05 147.5 133.05 173.4 133.05 191.7 114.75 210 96.45 210 70.55 Z"/>
</g>

<g id="Layer0_0_MEMBER_0_MEMBER_1_MEMBER_0_FILL">
<path fill="#0F5DA6" stroke="none" d="
M 452.55 171.4
Q 432.45 151.3 406.4 140.25 379.45 128.85 350 128.85 320.5 128.85 293.55 140.25 267.5 151.3 247.4 171.4 227.3 191.5 216.25 217.55 204.85 244.5 204.85 273.95 204.85 303.4 216.25 330.35 227.3 356.4 247.4 376.5 267.5 396.6 293.55 407.65 320.5 419.05 350 419.05 379.45 419.05 406.4 407.65 432.45 396.6 452.55 376.5 472.65 356.4 483.7 330.35 495.1 303.4 495.1 273.95 495.1 244.5 483.7 217.55 472.65 191.5 452.55 171.4
M 350 145.6
Q 376.05 145.6 399.9 155.7 422.9 165.45 440.7 183.25 458.45 201 468.2 224.05 478.3 247.9 478.3 273.95 478.3 300 468.2 323.85 458.45 346.85 440.7 364.65 422.9 382.4 399.9 392.15 376.05 402.25 350 402.25 323.9 402.25 300.1 392.15 277.05 382.4 259.3 364.65 241.5 346.85 231.75 323.85 221.65 300 221.65 273.95 221.65 247.9 231.75 224.05 241.5 201 259.3 183.25 277.05 165.45 300.1 155.7 323.95 145.6 350 145.6
M 377.2 370.75
L 377.2 300.9 446.95 300.9 446.95 247 377.2 247 377.2 177.2 323.3 177.2 323.3 247 253.5 247 253.5 300.9 323.25 300.9 323.25 370.75 377.2 370.75 Z"/>
</g>
</defs>

<g transform="matrix( 0.9119873046875, 0, 0, 0.9119873046875, -74.5,-4.35) ">
<use xlink:href="#Layer0_0_MEMBER_0_MEMBER_0_FILL"/>
</g>

<g transform="matrix( 0.2239227294921875, 0, 0, 0.2239227294921875, -18.4,-1.35) ">
<use xlink:href="#Layer0_0_MEMBER_0_MEMBER_1_MEMBER_0_FILL"/>
</g>
</svg>
