<?xml version="1.0" encoding="utf-8"?>
<!-- Generator: Adobe Illustrator 24.3.0, SVG Export Plug-In . SVG Version: 6.00 Build 0)  -->
<svg version="1.1" id="Camada_1" xmlns="http://www.w3.org/2000/svg" xmlns:xlink="http://www.w3.org/1999/xlink" x="0px" y="0px"
	 viewBox="0 0 735 320" style="enable-background:new 0 0 735 320;" xml:space="preserve">
<style type="text/css">
	.st0{fill:#7CB8AF;fill-opacity:0.498;}
	.st1{fill:#47B5C3;fill-opacity:0.749;}
	.st2{fill:#FFAC5A;}
	.st3{fill:#FFFFFF;}
	.st4{fill:#105DA6;}
</style>
<g transform="matrix( 0.78582763671875, 0, 0, -0.78582763671875, 470.6,228.9) ">
	<g>
		<g id="Layer3_0_MEMBER_0_FILL">
			<path class="st0" d="M169.7,96.9c2.8-2.8,4.2-6.1,4.2-10c0-11.8-2.3-23-6.9-33.8c-4.4-10.4-10.6-19.6-18.6-27.6
				c-8-8-17.2-14.2-27.6-18.6C110,2.3,98.7,0,86.9,0s-23,2.3-33.8,6.8c-10.4,4.4-19.6,10.6-27.6,18.6c-8,8-14.2,17.2-18.6,27.6
				C2.3,63.9,0,75.1,0,86.9c0,3.9,1.4,7.2,4.1,10c2.8,2.8,6.1,4.2,10,4.2c3.9,0,7.3-1.4,10-4.2c2.8-2.8,4.1-6.1,4.1-10
				c0-16.2,5.7-30,17.2-41.4C57,34,70.8,28.3,86.9,28.3c16.2,0,30,5.7,41.4,17.2c11.5,11.5,17.2,25.3,17.2,41.4
				c0,3.9,1.4,7.2,4.1,10c2.7,2.8,6.1,4.2,10,4.2C163.6,101,166.9,99.7,169.7,96.9z"/>
		</g>
	</g>
</g>
<g transform="matrix( 0.78582763671875, 0, 0, 0.78582763671875, 13.45,148.3) ">
	<g>
		<g id="Layer3_0_MEMBER_1_FILL">
			<path class="st0" d="M166.9,47.9c4.6-10.8,6.9-22,6.9-33.8c0-3.9-1.4-7.2-4.2-10c-2.7-2.8-6.1-4.1-10-4.1c-3.9,0-7.2,1.4-10,4.1
				c-2.8,2.8-4.1,6.1-4.1,10c0,16.2-5.7,30-17.1,41.4C116.9,67,103.1,72.7,86.9,72.7C70.8,72.7,57,67,45.5,55.5
				C34,44.1,28.3,30.3,28.3,14.1c0-3.9-1.4-7.2-4.1-10C21.4,1.4,18.1,0,14.1,0c-3.9,0-7.2,1.4-10,4.1S0,10.2,0,14.1
				c0,11.8,2.3,23,6.8,33.8c4.4,10.4,10.6,19.6,18.6,27.6c8,8,17.2,14.2,27.6,18.6c10.8,4.6,22,6.9,33.8,6.9c11.8,0,23-2.3,33.8-6.9
				c10.4-4.4,19.6-10.6,27.6-18.6C156.3,67.5,162.5,58.3,166.9,47.9z"/>
		</g>
	</g>
</g>
<g transform="matrix( 0.78582763671875, 0, 0, 0.78582763671875, 242.15,148.3) ">
	<g>
		<g id="Layer3_0_MEMBER_2_FILL">
			<path class="st0" d="M166.9,47.9c4.6-10.8,6.9-22,6.9-33.8c0-3.9-1.4-7.2-4.2-10c-2.8-2.8-6.1-4.1-10-4.1c-3.9,0-7.2,1.4-10,4.1
				c-2.8,2.8-4.1,6.1-4.1,10c0,16.2-5.7,30-17.2,41.4C116.9,67,103.1,72.7,86.9,72.7s-30-5.7-41.4-17.2C34,44.1,28.3,30.3,28.3,14.1
				c0-3.9-1.4-7.2-4.1-10S18,0,14.1,0c-3.9,0-7.3,1.4-10,4.1C1.4,6.9,0,10.2,0,14.1c0,11.8,2.3,23,6.8,33.8
				c4.4,10.4,10.6,19.6,18.6,27.6c8,8,17.2,14.2,27.6,18.6c10.8,4.6,22,6.9,33.8,6.9c11.8,0,23-2.3,33.8-6.9
				c10.4-4.4,19.6-10.6,27.6-18.6S162.5,58.3,166.9,47.9z"/>
		</g>
	</g>
</g>
<g transform="matrix( 0.78582763671875, 0, 0, -0.78582763671875, 356.25,171.75) ">
	<g>
		<g id="Layer3_0_MEMBER_3_FILL">
			<path class="st1" d="M166.9,47.9c4.6-10.8,6.9-22,6.9-33.8c0-3.9-1.4-7.2-4.2-10c-2.7-2.8-6.1-4.1-10-4.1c-3.9,0-7.2,1.4-10,4.1
				c-2.8,2.8-4.1,6.1-4.1,10c0,16.2-5.7,30-17.1,41.4C116.9,67,103.1,72.7,86.9,72.7C70.8,72.7,57,67,45.5,55.5
				C34,44.1,28.3,30.3,28.3,14.1c0-3.9-1.4-7.2-4.1-10C21.4,1.4,18.1,0,14.1,0c-3.9,0-7.2,1.4-10,4.1S0,10.2,0,14.1
				c0,11.8,2.3,23,6.8,33.8c4.4,10.4,10.6,19.6,18.6,27.6c8,8,17.2,14.2,27.6,18.6c10.8,4.6,22,6.9,33.8,6.9c11.8,0,23-2.3,33.8-6.9
				c10.4-4.4,19.6-10.6,27.7-18.6C156.3,67.5,162.5,58.3,166.9,47.9z"/>
		</g>
	</g>
</g>
<g transform="matrix( 0.78582763671875, 0, 0, -0.78582763671875, 585,171.75) ">
	<g>
		<g id="Layer3_0_MEMBER_4_FILL">
			<path class="st1" d="M166.9,47.9c4.6-10.8,6.9-22,6.9-33.8c0-3.9-1.4-7.2-4.2-10c-2.8-2.8-6.1-4.1-10-4.1c-3.9,0-7.2,1.4-10,4.1
				c-2.8,2.8-4.1,6.1-4.1,10c0,16.2-5.7,30-17.2,41.4C116.9,67,103.1,72.7,86.9,72.7s-30-5.7-41.4-17.2C34,44.1,28.3,30.3,28.3,14.1
				c0-3.9-1.4-7.2-4.1-10S18,0,14.1,0c-3.9,0-7.3,1.4-10,4.1C1.4,6.9,0,10.2,0,14.1c0,11.8,2.3,23,6.8,33.8
				c4.4,10.4,10.6,19.6,18.6,27.6c8,8,17.2,14.2,27.6,18.6c10.8,4.6,22,6.9,33.8,6.9c11.8,0,23-2.3,33.8-6.9
				c10.4-4.4,19.6-10.6,27.6-18.6C156.3,67.5,162.5,58.3,166.9,47.9z"/>
		</g>
	</g>
</g>
<g transform="matrix( 0.78582763671875, 0, 0, 0.78582763671875, 127.8,91.1) ">
	<g>
		<g id="Layer3_0_MEMBER_5_FILL">
			<path class="st1" d="M169.7,96.9c2.8-2.8,4.2-6.1,4.2-10c0-11.8-2.3-23-6.9-33.8c-4.4-10.4-10.6-19.6-18.6-27.6
				c-8-8-17.2-14.2-27.6-18.6C110,2.3,98.7,0,86.9,0s-23,2.3-33.8,6.8c-10.4,4.4-19.6,10.6-27.6,18.6c-8,8-14.2,17.2-18.6,27.6
				C2.3,63.9,0,75.1,0,86.9c0,3.9,1.4,7.2,4.1,10c2.8,2.8,6.1,4.2,10,4.2c3.9,0,7.3-1.4,10-4.2c2.8-2.8,4.1-6.1,4.1-10
				c0-16.2,5.7-30,17.2-41.4C57,34,70.8,28.3,86.9,28.3c16.2,0,30,5.7,41.4,17.2c11.5,11.5,17.2,25.3,17.2,41.4
				c0,3.9,1.4,7.2,4.1,10c2.7,2.8,6.1,4.2,10,4.2C163.6,101,166.9,99.7,169.7,96.9z"/>
		</g>
	</g>
</g>
<g transform="matrix( 0.785858154296875, 0, 0, -0.785858154296875, 340.9,268.4) ">
	<g>
		<g id="Layer2_1_FILL">
			<path class="st2" d="M147.6,96.8c-11.4-11.4-25.1-17.1-41.2-17.1s-29.8,5.7-41.2,17.1c-11.4,11.4-17.1,25.1-17.1,41.2
				s5.7,29.8,17.1,41.2c11.4,11.4,25.1,17,41.2,17.1c16.1,0,29.8-5.7,41.2-17.1c11.4-11.4,17-25.1,17-41.2S159,108.2,147.6,96.8z"/>
		</g>
	</g>
</g>
<g transform="matrix( 0.785858154296875, 0, 0, -0.785858154296875, 340.9,269.5) ">
	<g>
		<g id="Layer2_2_FILL">
			<path class="st2" d="M293.2,96.8c-11.4-11.4-25.1-17.1-41.2-17.1c-16.1,0-29.8,5.7-41.2,17.1c-11.4,11.4-17.1,25.1-17.1,41.2
				s5.7,29.8,17.1,41.2c11.4,11.4,25.1,17,41.2,17.1c16.1,0,29.8-5.7,41.2-17.1c11.4-11.4,17.1-25.1,17.1-41.2
				S304.5,108.2,293.2,96.8z"/>
		</g>
	</g>
</g>
<g transform="matrix( 0.785858154296875, 0, 0, -0.785858154296875, 340.9,268.4) ">
	<g>
		<g id="Layer2_3_FILL">
			<path class="st2" d="M397.5,79.8c-16.1,0-29.8,5.7-41.2,17.1c-11.4,11.4-17.1,25.1-17.1,41.2s5.7,29.8,17.1,41.2
				c11.4,11.4,25.1,17,41.2,17.1c16.1,0,29.8-5.7,41.1-17.1c11.4-11.4,17.1-25.1,17.1-41.2c0-16.1-5.7-29.8-17.1-41.2
				C427.3,85.4,413.6,79.8,397.5,79.8z"/>
		</g>
	</g>
</g>
<g transform="matrix( 0.785858154296875, 0, 0, 0.785858154296875, -1.85,51.6) ">
	<g>
		<g id="Layer2_4_FILL">
			<path class="st2" d="M147.6,96.8c-11.4-11.4-25.1-17.1-41.2-17.1s-29.8,5.7-41.2,17.1c-11.4,11.4-17.1,25.1-17.1,41.2
				s5.7,29.8,17.1,41.2c11.4,11.4,25.1,17,41.2,17.1c16.1,0,29.8-5.7,41.2-17.1c11.4-11.4,17-25.1,17-41.2S159,108.2,147.6,96.8z"/>
		</g>
	</g>
</g>
<g transform="matrix( 0.785858154296875, 0, 0, 0.785858154296875, -1.85,49.95) ">
	<g>
		<g id="Layer2_5_FILL">
			<path class="st2" d="M293.2,96.8c-11.4-11.4-25.1-17.1-41.2-17.1c-16.1,0-29.8,5.7-41.2,17.1c-11.4,11.4-17.1,25.1-17.1,41.2
				s5.7,29.8,17.1,41.2c11.4,11.4,25.1,17,41.2,17.1c16.1,0,29.8-5.7,41.2-17.1c11.4-11.4,17.1-25.1,17.1-41.2
				S304.5,108.2,293.2,96.8z"/>
		</g>
	</g>
</g>
<g transform="matrix( 0.785858154296875, 0, 0, 0.785858154296875, -1.85,51.6) ">
	<g>
		<g id="Layer2_6_FILL">
			<path class="st2" d="M397.5,79.8c-16.1,0-29.8,5.7-41.2,17.1c-11.4,11.4-17.1,25.1-17.1,41.2s5.7,29.8,17.1,41.2
				c11.4,11.4,25.1,17,41.2,17.1c16.1,0,29.8-5.7,41.1-17.1c11.4-11.4,17.1-25.1,17.1-41.2c0-16.1-5.7-29.8-17.1-41.2
				C427.3,85.4,413.6,79.8,397.5,79.8z"/>
		</g>
	</g>
</g>
<g transform="matrix( 0.11431884765625, 0, 0, 0.1143646240234375, 41.8,128) ">
	<g>
		<g id="Layer1_0_MEMBER_0_FILL">
			<path class="st3" d="M612.4,122.5c0-7.2-2.6-13.4-7.7-18.5c-5.1-5.1-11.3-7.7-18.5-7.7h-420c-7.2,0-13.4,2.6-18.5,7.7
				c-5.1,5.1-7.7,11.3-7.7,18.5v105c0,2.4,0.8,4.5,2.6,6.2c1.7,1.7,3.8,2.5,6.2,2.5H298c2.6,0,4.8-1,6.5-2.9c1.7-2,2.5-4.3,2.2-6.9
				c-0.3-2.8-0.5-5.3-0.5-7.7c0-10.6,2.3-20.7,6.9-30.2c4.6-9.5,11-17.6,19.4-24.3c8.3-6.7,17.7-11.2,28.1-13.6
				c10.5-2.4,21-2.4,31.7,0c15.9,3.5,28.9,12,39.2,25.3c10.3,13.4,15.2,28.3,14.7,44.8c0,2-0.2,3.9-0.5,5.7
				c-0.3,2.6,0.4,4.9,2.1,6.9c1.7,1.9,3.9,2.9,6.5,2.9h79.2c2.4,0,4.5,0.9,6.2,2.6c1.7,1.7,2.5,3.7,2.5,6.1v87.5
				c0,2.4,0.9,4.5,2.6,6.2c1.7,1.7,3.8,2.5,6.2,2.5h35c7.3,0,13.4-2.6,18.5-7.7c5.1-5.1,7.7-11.3,7.7-18.5V122.5 M554.2,154.5
				c-11.3-11.3-18-24.9-20-40.7h52c2.4,0,4.5,0.9,6.2,2.6c1.7,1.7,2.5,3.7,2.5,6.1v52C579.2,172.5,565.6,165.8,554.2,154.5
				 M593.8,263.3l1.2-0.1V315c0,2.4-0.9,4.5-2.5,6.2c-1.7,1.7-3.8,2.5-6.2,2.5v0H560V278l0.8-0.6c2.3-1.8,4.6-3.4,7-4.8l0.9-0.5
				c2.2-1.3,4.5-2.4,6.8-3.4l1.8-0.8c2.8-1.2,5.5-2.1,8-2.8l1.2-0.3C589,264.1,591.5,263.6,593.8,263.3 M218.2,113.7
				c-2,15.8-8.7,29.4-20,40.7c-11.3,11.3-24.9,18-40.7,20v-52c0-2.4,0.8-4.4,2.6-6.1c1.7-1.7,3.8-2.6,6.2-2.6H218.2 M516.6,113.7
				c2.1,20.6,10.5,38.3,25.2,53.1c14.7,14.8,32.4,23.2,53,25.2v53.3l-2,0.3c-2.5,0.3-4.6,0.6-6.3,1l-3.2,0.7
				c-2.5,0.6-4.3,1.1-5.3,1.4c-0.4,0.1-1.5,0.4-3.2,1.1l-8.1,3.3c-1.6,0.7-3.2,1.5-5,2.5l-2,1V245c0-7.2-2.6-13.4-7.7-18.5
				c-5.1-5.1-11.3-7.7-18.5-7.7l0-0.1h-70c0-20.2-6.4-38.3-19.2-54.5c-12.8-16.2-29-26.5-48.4-30.8c-13.3-2.9-26.4-2.9-39.4,0.1
				c-13,3-24.7,8.7-35.1,17c-10.4,8.3-18.5,18.5-24.2,30.4c-5.7,11.9-8.5,24.5-8.5,37.8H157.5v-26.6c20.6-2.1,38.3-10.5,53-25.2
				c14.8-14.8,23.2-32.5,25.2-53.1H516.6z"/>
		</g>
	</g>
</g>
<g transform="matrix( 0.11431884765625, 0, 0, 0.1143646240234375, 41.8,128) ">
	<g>
		<g id="Layer1_0_MEMBER_1_FILL">
			<path class="st3" d="M376.2,166.3c-2.4,0-4.5,0.9-6.2,2.6c-1.7,1.7-2.6,3.8-2.6,6.2v9.1c-5,1-9.2,3.6-12.5,7.5
				c-3.3,4-5,8.7-5,13.9c0,6,2.1,11.2,6.4,15.4c4.3,4.3,9.4,6.4,15.4,6.4h8.7c0.9,0,1.7,0.3,2.5,0.8s1.3,1.2,1.5,2
				c0.6,1.8,1.7,3.2,3.2,4.3c1.5,1.1,3.2,1.6,5.1,1.6c0.8,0,1.8-0.2,2.8-0.5c2.3-0.8,4-2.3,5-4.4c1.1-2.2,1.2-4.4,0.4-6.7
				c-1.5-4.4-4.1-7.9-8-10.6c-3.8-2.7-8-4-12.6-4h-8.7c-1.2,0-2.2-0.4-3.1-1.3s-1.3-1.9-1.3-3.1c0-1.2,0.4-2.2,1.3-3
				c0.9-0.9,1.9-1.3,3.1-1.3h21.8c2.4,0,4.5-0.9,6.2-2.6c1.7-1.7,2.6-3.8,2.5-6.2c0-2.4-0.8-4.5-2.5-6.2c-1.7-1.7-3.8-2.6-6.2-2.6
				h-8.8V175c0-2.4-0.9-4.5-2.6-6.2C380.7,167.1,378.6,166.3,376.2,166.3z"/>
		</g>
	</g>
</g>
<g transform="matrix( 0.11431884765625, 0, 0, 0.1143646240234375, 41.8,128) ">
	<g>
		<g id="Layer1_0_MEMBER_2_FILL">
			<path class="st3" d="M376.2,131.2c-11.8,0-23.2,2.3-34,6.9c-10.4,4.4-19.7,10.7-27.8,18.8c-8.1,8.1-14.3,17.3-18.7,27.8
				c-4.6,10.8-6.9,22.2-6.9,34c0,3.5,0.2,6.8,0.5,9.8c0.3,2.2,1.2,4,2.9,5.5c1.7,1.4,3.6,2.1,5.8,2.1h156.4c2.2,0,4.2-0.7,5.8-2.1
				c1.7-1.5,2.6-3.3,2.9-5.5c0.4-3.3,0.6-6.6,0.6-9.8c0-11.8-2.3-23.2-6.9-34c-4.4-10.5-10.7-19.7-18.7-27.8
				c-8.1-8.1-17.4-14.4-27.8-18.8C399.4,133.5,388.1,131.2,376.2,131.2 M326.8,169.3c6.5-6.5,13.9-11.5,22.2-15
				c8.7-3.7,17.7-5.5,27.2-5.5c9.5,0,18.5,1.8,27.2,5.5c8.4,3.6,15.8,8.6,22.2,15c6.5,6.5,11.5,13.9,15,22.2
				c3.7,8.7,5.5,17.7,5.5,27.2h-140c0-9.5,1.8-18.5,5.5-27.2C315.3,183.2,320.3,175.8,326.8,169.3z"/>
		</g>
	</g>
</g>
<g transform="matrix( 0.11431884765625, 0, 0, 0.1143646240234375, 41.8,128) ">
	<g>
		<g id="Layer1_0_MEMBER_3_FILL">
			<path class="st3" d="M343.5,338.9c-4.3-4.3-9.4-6.4-15.4-6.4h-8.8c-1.2,0-2.2-0.4-3.1-1.3c-0.9-0.9-1.3-1.9-1.3-3.1
				s0.4-2.2,1.3-3c0.8-0.9,1.9-1.3,3.1-1.3h21.9c2.4,0,4.5-0.9,6.2-2.5c1.7-1.7,2.5-3.8,2.5-6.2c0-2.4-0.9-4.5-2.5-6.2
				c-1.7-1.7-3.8-2.6-6.2-2.6h-8.7v-8.7c0-2.4-0.9-4.5-2.5-6.2c-1.7-1.7-3.8-2.6-6.2-2.6c-2.4,0-4.5,0.9-6.2,2.6
				c-1.7,1.7-2.5,3.8-2.5,6.2v9.2c-5,1-9.2,3.5-12.5,7.5c-3.3,4-5,8.7-5,13.9c0,6,2.1,11.2,6.4,15.4c4.3,4.3,9.4,6.4,15.4,6.4h8.8
				c1.2,0,2.2,0.4,3.1,1.3c0.9,0.8,1.3,1.8,1.3,3s-0.4,2.2-1.3,3.1c-0.9,0.9-1.9,1.3-3.1,1.3h-21.8c-2.4,0-4.5,0.9-6.2,2.6
				c-1.7,1.7-2.5,3.8-2.5,6.2c0,2.4,0.9,4.5,2.5,6.2c1.7,1.7,3.8,2.5,6.2,2.5h8.7v8.8c0,2.4,0.9,4.5,2.5,6.2
				c1.7,1.7,3.8,2.5,6.2,2.5c2.4,0,4.5-0.9,6.2-2.5c1.7-1.7,2.5-3.8,2.5-6.2v-9.2c5-1,9.2-3.6,12.5-7.6c3.3-4,5-8.7,5-13.9
				C350,348.4,347.8,343.2,343.5,338.9z"/>
		</g>
	</g>
</g>
<g transform="matrix( 0.11431884765625, 0, 0, 0.1143646240234375, 41.8,128) ">
	<g>
		<g id="Layer1_0_MEMBER_4_FILL">
			<path class="st3" d="M385.6,279.4c-8.1-8.1-17.4-14.4-27.8-18.8c-10.8-4.6-22.2-6.9-34-6.9c-11.8,0-23.2,2.3-34,6.9
				c-10.4,4.4-19.7,10.7-27.8,18.8c-8.1,8.1-14.3,17.3-18.7,27.8c-4.6,10.8-6.9,22.2-6.9,34c0,11.8,2.3,23.2,6.9,34
				c4.4,10.4,10.7,19.7,18.7,27.8c8.1,8.1,17.3,14.3,27.8,18.7c10.9,4.6,22.2,6.9,34,6.9c11.8,0,23.2-2.3,34-6.9
				c10.5-4.4,19.8-10.7,27.8-18.7c8.1-8.1,14.3-17.4,18.7-27.8c4.6-10.9,6.9-22.2,6.9-34c0-11.8-2.3-23.2-6.9-34
				C399.9,296.8,393.7,287.5,385.6,279.4 M388.2,314c3.7,8.7,5.5,17.7,5.5,27.2s-1.8,18.5-5.5,27.2c-3.6,8.4-8.6,15.8-15,22.3
				c-6.5,6.4-13.9,11.4-22.2,15c-8.7,3.7-17.7,5.5-27.2,5.5s-18.5-1.8-27.2-5.5c-8.4-3.6-15.8-8.6-22.2-15
				c-13.7-13.7-20.5-30.2-20.5-49.5c0-9.5,1.8-18.5,5.5-27.2c3.6-8.4,8.6-15.8,15-22.2c6.5-6.5,13.9-11.5,22.2-15
				c8.7-3.7,17.7-5.5,27.2-5.5c19.3,0,35.7,6.8,49.4,20.5C379.7,298.3,384.7,305.7,388.2,314z"/>
		</g>
	</g>
</g>
<g transform="matrix( 0.11431884765625, 0, 0, 0.1143646240234375, 41.8,128) ">
	<g>
		<g id="Layer1_0_MEMBER_5_FILL">
			<path class="st3" d="M218.7,341.2c0-7.2-2.6-13.4-7.7-18.5c-5.1-5.1-11.3-7.7-18.5-7.7c-7.2,0-13.4,2.6-18.5,7.7
				c-5.1,5.1-7.7,11.3-7.7,18.5c0,7.3,2.6,13.4,7.7,18.5c5.1,5.1,11.3,7.7,18.5,7.7c7.2,0,13.4-2.6,18.5-7.7
				C216.2,354.7,218.7,348.5,218.7,341.2 M192.5,332.5c2.4,0,4.5,0.9,6.2,2.6c1.7,1.7,2.6,3.7,2.6,6.1c0,2.4-0.8,4.5-2.6,6.2
				c-1.7,1.7-3.8,2.5-6.2,2.5c-2.4,0-4.5-0.9-6.2-2.5c-1.7-1.7-2.6-3.8-2.6-6.2c0-2.4,0.8-4.4,2.6-6.1
				C188,333.4,190.1,332.5,192.5,332.5z"/>
		</g>
	</g>
</g>
<g transform="matrix( 0.11431884765625, 0, 0, 0.1143646240234375, 41.8,128) ">
	<g>
		<g id="Layer1_0_MEMBER_6_FILL">
			<path class="st3" d="M481.2,341.2c0-7.2-2.6-13.4-7.7-18.5c-5.1-5.1-11.3-7.7-18.5-7.7c-7.2,0-13.4,2.6-18.5,7.7
				c-5.1,5.1-7.7,11.3-7.7,18.5c0,7.3,2.6,13.4,7.7,18.5c5.1,5.1,11.3,7.7,18.5,7.7c7.2,0,13.4-2.6,18.5-7.7
				C478.7,354.7,481.2,348.5,481.2,341.2 M455,332.5c2.4,0,4.5,0.9,6.2,2.6c1.7,1.7,2.5,3.7,2.5,6.1c0,2.4-0.9,4.5-2.5,6.2
				c-1.7,1.7-3.8,2.5-6.2,2.5c-2.4,0-4.5-0.9-6.2-2.5c-1.7-1.7-2.5-3.8-2.5-6.2c0-2.4,0.9-4.4,2.5-6.1
				C450.5,333.4,452.6,332.5,455,332.5z"/>
		</g>
	</g>
</g>
<g transform="matrix( 0.11431884765625, 0, 0, 0.1143646240234375, 41.8,128) ">
	<g>
		<g id="Layer1_0_MEMBER_7_FILL">
			<path class="st3" d="M552.3,226.4c-5.1-5.1-11.3-7.7-18.5-7.7h-420c-7.2,0-13.4,2.6-18.5,7.7c-5.1,5.1-7.7,11.3-7.7,18.5v192.5
				c0,7.3,2.6,13.4,7.7,18.5c5.1,5.1,11.3,7.7,18.5,7.7h420c7.2,0,13.4-2.6,18.5-7.7c5.1-5.1,7.7-11.3,7.7-18.5V245
				C560,237.8,557.4,231.6,552.3,226.4 M482,237.3l-0.2-1.1h51.9c2.4,0,4.5,0.9,6.2,2.6c1.7,1.7,2.5,3.7,2.5,6.1l0,51.9l-1.1-0.1
				c-3.4-0.5-6.7-1.2-9.9-2.1l-0.8-0.2c-3.1-0.9-6.2-2.2-9.5-3.8l-1.8-0.9c-2.9-1.5-5.7-3.2-8.5-5.1l-1.5-1.1
				c-2.8-2.1-5.4-4.3-7.8-6.6v0c-2.1-2-4.3-4.6-6.6-7.8l-1.1-1.4c-1.8-2.6-3.5-5.4-5.1-8.4l-0.9-1.8c-1.6-3.4-2.9-6.5-3.8-9.5
				l-0.2-0.8C483.1,243.9,482.4,240.6,482,237.3 M519.5,392.7l1.8-0.9c3.4-1.6,6.5-2.9,9.5-3.8l0.8-0.2c3.3-0.9,6.6-1.6,9.9-2.1
				l1.1-0.2v51.9c0,2.4-0.9,4.5-2.5,6.2c-1.7,1.7-3.8,2.5-6.2,2.5h-51.9l0.1-1c0.5-3.4,1.2-6.6,2.1-9.8l0.2-0.8
				c0.9-3.1,2.2-6.2,3.8-9.5l0.9-1.8c1.5-2.9,3.2-5.7,5.1-8.4l1.1-1.4c2.1-2.8,4.3-5.4,6.6-7.8h0c2-2.1,4.6-4.3,7.8-6.6l1.4-1.1
				C513.6,396,516.4,394.3,519.5,392.7 M107.5,238.8c1.7-1.7,3.8-2.6,6.2-2.6h51.8c0,0-0.1,0.4-0.2,1.1c-0.5,3.4-1.2,6.6-2.1,9.8
				l-0.2,0.8c-0.9,3.1-2.2,6.2-3.8,9.5l-0.9,1.8c-1.5,2.9-3.2,5.7-5.1,8.4l-1,1.5c-2.1,2.8-4.3,5.4-6.7,7.8h-0.1
				c-2,2.1-4.6,4.3-7.8,6.6l-1.5,1.1c-2.6,1.8-5.4,3.5-8.4,5.1l-1.8,0.9c-3.4,1.6-6.5,2.8-9.5,3.7l-0.8,0.2c-3.3,0.9-6.6,1.6-9.8,2
				l-1.1,0.1V245C105,242.6,105.8,240.5,107.5,238.8 M115.9,387.9l0.8,0.2c3.1,0.9,6.2,2.2,9.5,3.8l1.8,0.9c2.9,1.5,5.7,3.2,8.4,5.1
				l1.4,1c2.8,2.1,5.4,4.3,7.8,6.6v0.1c2.1,2,4.3,4.6,6.7,7.8l1.1,1.5c1.8,2.6,3.5,5.4,5.1,8.4l0.8,1.8c1.6,3.4,2.9,6.5,3.8,9.5
				l0.2,0.8c0.9,3.3,1.6,6.6,2.1,9.8l0.2,1.1h-51.9v0c-2.4,0-4.5-0.9-6.2-2.5c-1.7-1.7-2.5-3.8-2.5-6.2v-51.8l1.1,0.1
				C109.4,386.3,112.7,387,115.9,387.9 M465.4,244.6l0.6,2.8c0.5,2.2,0.9,3.9,1.3,5.1c0.2,0.7,0.6,1.7,1.1,3.1
				c0.6,1.7,1.1,3.2,1.6,4.5l1.3,3.1c0.3,0.7,1,2.1,2,4.3l1.5,2.9c0.6,1.1,1.5,2.5,2.6,4.2l1.7,2.6c0.9,1.3,2,2.7,3.2,4.2
				c0.4,0.4,0.9,1.1,1.6,2c1.6,2,3.4,3.9,5.2,5.8l0.2,0.2c1.9,1.9,3.9,3.7,5.7,5.2l2.1,1.6c1.9,1.5,3.3,2.5,4.2,3.2l9.6,5.7
				c1.3,0.7,2.7,1.4,4.3,2.1l10.7,4c1.1,0.3,2.8,0.8,5.1,1.3l2.9,0.7c2.2,0.4,4.5,0.8,6.9,1l1.3,0.2h0.1v53.3h-0.1l-1.3,0.2
				c-2.4,0.3-4.7,0.6-6.9,1.1l-2.9,0.7c-2.3,0.5-4,1-5.1,1.3l-10.7,4c-1.6,0.7-3,1.4-4.3,2.1l-9.6,5.8c-1,0.7-2.4,1.7-4.2,3.2
				l-2.1,1.6c-1.9,1.6-3.8,3.3-5.7,5.2l-0.2,0.2c-1.7,1.7-3.5,3.6-5.2,5.7c-0.7,0.9-1.3,1.6-1.6,2.1c-1.2,1.5-2.3,2.9-3.2,4.2
				l-1.7,2.6c-1.1,1.7-2,3.1-2.6,4.2l-1.5,2.8c-1.1,2.2-1.8,3.7-2,4.4c-0.2,0.4-0.6,1.4-1.3,3c-0.5,1.3-1.1,2.9-1.6,4.6l-1.1,3.1
				c-0.3,1-0.7,2.7-1.3,5.1c-0.1,0.6-0.4,1.6-0.6,2.8c-0.5,2.3-0.8,4.6-1.1,6.9l-0.2,1.2v0.1H183.3v-0.1l-0.2-1.2
				c-0.2-2.3-0.6-4.6-1.1-6.9l-0.7-2.8c-0.5-2.2-0.9-3.9-1.3-5.1l-1-3.1c-0.6-1.8-1.2-3.3-1.7-4.6l-1.3-3c-0.3-0.7-1-2.1-2.1-4.4
				l-1.6-2.8c-0.6-1.1-1.4-2.5-2.6-4.2l-1.7-2.6c-0.9-1.3-1.9-2.7-3.1-4.2c-0.7-0.9-1.2-1.6-1.7-2.1c-1.7-2.1-3.5-4-5.2-5.7
				l-0.2-0.2c-1.9-1.9-3.8-3.7-5.7-5.2l-2.1-1.6c-1.9-1.5-3.3-2.5-4.2-3.2l-9.6-5.8c-1.3-0.7-2.7-1.4-4.3-2.1l-10.7-4
				c-1.2-0.4-2.9-0.8-5.1-1.3l-2.8-0.7c-2.3-0.4-4.6-0.8-6.9-1.1l-1.3-0.2H105v-53.3h0.1l1.3-0.2c2.3-0.2,4.6-0.6,6.9-1l2.8-0.7
				c2.2-0.5,3.9-0.9,5.1-1.3l10.7-4c1.6-0.7,3-1.4,4.3-2.1l9.6-5.7c1-0.7,2.4-1.7,4.2-3.2l2.1-1.6c1.9-1.6,3.8-3.3,5.7-5.2l0.2-0.2
				c1.8-1.9,3.6-3.8,5.2-5.8c0.7-0.9,1.3-1.6,1.7-2c1.2-1.5,2.2-3,3.1-4.2l1.7-2.6c1.1-1.7,1.9-3.1,2.6-4.2l1.6-2.9
				c1.1-2.2,1.8-3.7,2.1-4.3l1.3-3.1c0.1-0.3,0.7-1.8,1.7-4.5l1-3.1c0.4-1.5,0.9-3.2,1.3-5.1l0.7-2.8c0.5-2.3,0.8-4.6,1.1-6.9
				l0.2-1.2v-0.1h280.9v0.1l0.2,1.2C464.6,239.9,465,242.3,465.4,244.6z"/>
		</g>
	</g>
</g>
<g transform="matrix( 0.10638427734375, 0, 0, 0.106353759765625, 158.45,130.25) ">
	<g>
		<g id="Layer1_1_MEMBER_0_FILL">
			<path class="st3" d="M360.8,80.8c0-15.1-5.2-27.8-15.6-38.2c-10.4-10.4-23.2-15.6-38.3-15.6H145.4v420h215.4V80.8 M329.9,57.8
				c6.2,6.2,9.3,13.9,9.3,23v344.6H166.9V48.5h140C316.1,48.5,323.7,51.6,329.9,57.8z"/>
		</g>
	</g>
</g>
<g transform="matrix( 0.10638427734375, 0, 0, 0.106353759765625, 158.45,130.25) ">
	<g>
		<g id="Layer1_1_MEMBER_1_FILL">
			<path class="st3" d="M393.1,26.9c-15.1,0-27.8,5.2-38.3,15.6c-10.4,10.4-15.6,23.2-15.6,38.2v366.1h215.4v-420H393.1 M360.8,80.8
				c0-9.1,3.1-16.8,9.3-23s13.9-9.3,23-9.3h140v376.9H360.8V80.8z"/>
		</g>
	</g>
</g>
<g transform="matrix( 0.10638427734375, 0, 0, 0.106353759765625, 158.45,130.25) ">
	<g>
		<g id="Layer1_1_MEMBER_2_FILL">
			<path class="st3" d="M605.5,94.5c-2-2-4.6-2.9-7.8-2.9h-53.9c-3.2,0-5.8,1-7.8,3c-2,2-3,4.6-3,7.8v323H166.9v-323
				c0-3.2-1-5.8-2.9-7.8c-2-2-4.6-2.9-7.8-2.9h-53.9c-3.2,0-5.9,1-7.9,3c-2,2-3,4.6-3,7.8V490c0,3.2,1,5.8,3,7.8
				c2,2,4.6,2.9,7.9,2.9H308c2.7,9.4,7.8,17.1,15.3,23c7.8,6.2,16.7,9.3,26.7,9.3h0c10,0,18.9-3.1,26.7-9.3
				c7.5-5.9,12.6-13.6,15.3-23h205.7c3.2,0,5.8-1,7.8-2.9c2-2,3-4.6,3-7.8V102.3C608.5,99.1,607.5,96.5,605.5,94.5 M554.6,113.1
				h32.3v366.1H382.3c-3.2,0-5.8,1-7.8,2.9c-2,2-3,4.6-3,7.8c0,5.9-2.1,11-6.3,15.2c-4.2,4.2-9.3,6.3-15.2,6.3
				c-5.9,0-11-2.1-15.2-6.3c-4.2-4.2-6.4-9.3-6.4-15.2c0-3.2-1-5.8-3-7.8c-2-2-4.6-2.9-7.8-2.9H113.1V113.1h32.3v323.1
				c0,3.2,1,5.8,2.9,7.8c2,2,4.6,3,7.9,3h387.7c3.2,0,5.8-1,7.8-3c2-2,2.9-4.6,2.9-7.8V113.1z"/>
		</g>
	</g>
</g>
<g transform="matrix( 0.10638427734375, 0, 0, 0.106353759765625, 158.45,130.25) ">
	<g>
		<g id="Layer1_1_MEMBER_3_FILL">
			<path class="st3" d="M304,94.5c-2-2-4.6-2.9-7.9-2.9H210c-3.2,0-5.8,1-7.8,2.9c-2,2-3,4.6-3,7.8c0,3.2,1,5.8,3,7.8
				c2,2,4.6,2.9,7.8,2.9h86.2c3.2,0,5.9-1,7.9-2.9c2-2,2.9-4.6,2.9-7.8C306.9,99.1,305.9,96.5,304,94.5z"/>
		</g>
	</g>
</g>
<g transform="matrix( 0.10638427734375, 0, 0, 0.106353759765625, 158.45,130.25) ">
	<g>
		<g id="Layer1_1_MEMBER_4_FILL">
			<path class="st3" d="M202.2,159.1c-2,2-3,4.6-3,7.8c0,3.2,1,5.8,3,7.8c2,2,4.6,2.9,7.9,2.9h53.9c3.2,0,5.8-1,7.8-2.9
				c2-2,3-4.6,3-7.8c0-3.2-1-5.8-3-7.8c-2-2-4.6-3-7.8-3H210C206.8,156.1,204.2,157.1,202.2,159.1z"/>
		</g>
	</g>
</g>
<g transform="matrix( 0.10638427734375, 0, 0, 0.106353759765625, 158.45,130.25) ">
	<g>
		<g id="Layer1_1_MEMBER_5_FILL">
			<path class="st3" d="M296.1,242.3c3.3,0,5.9-1,7.9-2.9c2-2,2.9-4.6,2.9-7.8c0-3.2-1-5.8-2.9-7.8c-2-2-4.6-2.9-7.9-2.9H210
				c-3.2,0-5.8,1-7.8,2.9c-2,2-3,4.6-3,7.8c0,3.2,1,5.8,3,7.8c2,2,4.6,3,7.8,2.9H296.1z"/>
		</g>
	</g>
</g>
<g transform="matrix( 0.10638427734375, 0, 0, 0.106353759765625, 158.45,130.25) ">
	<g>
		<g id="Layer1_1_MEMBER_6_FILL">
			<path class="st3" d="M274.6,296.2c0-3.2-1-5.8-3-7.8c-2-2-4.6-3-7.8-3H210c-3.2,0-5.9,1-7.9,3c-2,2-3,4.6-3,7.8
				c0,3.2,1,5.8,3,7.8c2,2,4.6,3,7.9,3h53.9c3.2,0,5.8-1,7.8-3C273.6,302,274.6,299.4,274.6,296.2z"/>
		</g>
	</g>
</g>
<g transform="matrix( 0.10638427734375, 0, 0, 0.106353759765625, 158.45,130.25) ">
	<g>
		<g id="Layer1_1_MEMBER_7_FILL">
			<path class="st3" d="M202.2,353c-2,2-3,4.6-3,7.8c0,3.2,1,5.8,3,7.8c2,2,4.6,2.9,7.8,2.9h86.2c3.2,0,5.9-1,7.9-2.9
				c2-2,2.9-4.6,2.9-7.8c0-3.2-1-5.8-2.9-7.8c-2-2-4.6-3-7.9-3H210C206.7,350,204.1,351,202.2,353z"/>
		</g>
	</g>
</g>
<g transform="matrix( 0.10638427734375, 0, 0, 0.106353759765625, 158.45,130.25) ">
	<g>
		<g id="Layer1_1_MEMBER_8_FILL">
			<path class="st3" d="M497.8,94.5c-2-2-4.6-2.9-7.8-2.9h-86.2c-3.2,0-5.8,1-7.8,2.9c-2,2-3,4.6-3,7.8c0,3.2,1,5.8,3,7.8
				s4.6,2.9,7.8,2.9H490c3.2,0,5.8-1,7.8-2.9c2-2,3-4.6,3-7.8C500.8,99.1,499.8,96.5,497.8,94.5z"/>
		</g>
	</g>
</g>
<g transform="matrix( 0.10638427734375, 0, 0, 0.106353759765625, 158.45,130.25) ">
	<g>
		<g id="Layer1_1_MEMBER_9_FILL">
			<path class="st3" d="M490,177.7c3.2,0,5.8-1,7.8-2.9c2-2,3-4.6,3-7.8c0-3.2-1-5.8-3-7.8c-2-2-4.6-3-7.8-3h-53.9
				c-3.2,0-5.9,1-7.9,3c-2,2-3,4.6-3,7.8c0,3.2,1,5.8,3,7.8c2,2,4.6,2.9,7.9,2.9H490z"/>
		</g>
	</g>
</g>
<g transform="matrix( 0.10638427734375, 0, 0, 0.106353759765625, 158.45,130.25) ">
	<g>
		<g id="Layer1_1_MEMBER_10_FILL">
			<path class="st3" d="M403.8,220.8c-3.2,0-5.8,1-7.8,2.9s-3,4.6-3,7.8c0,3.2,1,5.8,3,7.8c2,2,4.6,3,7.8,2.9H490
				c3.2,0,5.8-1,7.8-2.9c2-2,3-4.6,3-7.8c0-3.2-1-5.8-3-7.8c-2-2-4.6-2.9-7.8-2.9H403.8z"/>
		</g>
	</g>
</g>
<g transform="matrix( 0.10638427734375, 0, 0, 0.106353759765625, 158.45,130.25) ">
	<g>
		<g id="Layer1_1_MEMBER_11_FILL">
			<path class="st3" d="M436.2,285.4c-3.2,0-5.9,1-7.9,3c-2,2-3,4.6-3,7.8c0,3.2,1,5.8,3,7.8c2,2,4.6,3,7.9,3H490c3.2,0,5.8-1,7.8-3
				c2-2,3-4.6,3-7.8c0-3.2-1-5.8-3-7.8c-2-2-4.6-3-7.8-3H436.2z"/>
		</g>
	</g>
</g>
<g transform="matrix( 0.10638427734375, 0, 0, 0.106353759765625, 158.45,130.25) ">
	<g>
		<g id="Layer1_1_MEMBER_12_FILL">
			<path class="st3" d="M403.8,350c-3.2,0-5.8,1-7.8,3s-3,4.6-3,7.8c0,3.2,1,5.8,3,7.8c2,2,4.6,2.9,7.8,2.9H490c3.2,0,5.8-1,7.8-2.9
				c2-2,3-4.6,3-7.8c0-3.2-1-5.8-3-7.8c-2-2-4.6-3-7.8-3H403.8z"/>
		</g>
	</g>
</g>
<g transform="matrix( 1, 0, 0, 1, 0,0) ">
	<g>
		<g id="Layer1_2_FILL">
			<path class="st3" d="M336.4,160c0-0.2,0-0.4-0.1-0.6c-0.1-0.2-0.2-0.4-0.4-0.6l-23.2-23.2c-0.2-0.2-0.3-0.3-0.5-0.4
				c-0.2-0.1-0.5-0.1-0.7-0.1s-0.5,0.1-0.7,0.1c-0.2,0.1-0.4,0.2-0.6,0.4l-23.2,23.2c-0.2,0.2-0.3,0.5-0.4,0.8
				c-0.1,0.3-0.1,0.6,0,0.9c0.1,0.3,0.2,0.6,0.4,0.8c0.2,0.2,0.5,0.4,0.9,0.4c0.3,0.1,0.6,0.1,0.9,0c0.3-0.1,0.6-0.2,0.8-0.4
				l2.3-2.4v20.7c0,0.7,0.1,1.4,0.4,2.1c0.3,0.7,0.7,1.2,1.2,1.8c0.5,0.5,1.1,0.9,1.7,1.2c0.7,0.3,1.4,0.4,2.1,0.4h28.5
				c0.7,0,1.4-0.1,2.1-0.4c0.7-0.3,1.2-0.7,1.8-1.2s0.9-1.1,1.1-1.8c0.3-0.7,0.4-1.4,0.4-2.1v-20.7l2.3,2.4c0.3,0.3,0.8,0.5,1.2,0.5
				c0.2,0,0.5-0.1,0.7-0.2c0.2-0.1,0.4-0.2,0.6-0.3c0.2-0.2,0.3-0.4,0.4-0.6C336.4,160.5,336.4,160.2,336.4,160 M327,180.9
				c-0.2,0.2-0.4,0.3-0.6,0.4c-0.2,0.1-0.4,0.1-0.7,0.1h-5.4v-16.1c0-0.2,0-0.4-0.1-0.7c-0.1-0.2-0.2-0.4-0.4-0.6s-0.4-0.3-0.6-0.4
				c-0.2-0.1-0.4-0.1-0.7-0.1h-14.3c-0.2,0-0.5,0-0.7,0.1c-0.2,0.1-0.4,0.2-0.5,0.4s-0.3,0.4-0.4,0.6c-0.1,0.2-0.1,0.4-0.1,0.7v16.1
				h-5.4c-0.2,0-0.5,0-0.6-0.1c-0.2-0.1-0.4-0.2-0.6-0.4c-0.2-0.2-0.3-0.3-0.4-0.5c-0.1-0.2-0.1-0.5-0.1-0.7v-24.2l16-16.1
				l16.1,16.1v24.2c0,0.2-0.1,0.5-0.2,0.7C327.2,180.6,327.1,180.7,327,180.9 M306,167.1h10.7v14.3H306V167.1z"/>
		</g>
	</g>
</g>
<g transform="matrix( 0.1338653564453125, 0, 0, 0.1338043212890625, 377.75,122.55) ">
	<g>
		<g id="Layer1_3_MEMBER_0_FILL">
			<path class="st3" d="M186.6,170.3c-4.6,5.6-7.2,12-7.9,19.2c-0.7,7.3,0.9,14,4.6,20.2c3.7,6.2,8.8,10.7,15.5,13.6
				c6.5,2.9,13.4,3.7,20.5,2.4c7.9-1.4,14.4-5.4,19.6-11.8c5-6.2,7.5-13.2,7.8-21c0-0.2,0.1-0.4,0.1-0.6c0-0.2,0-0.4-0.1-0.6
				c-0.2-7.1-2.3-13.5-6.5-19.2c-4.2-5.8-9.8-10-16.7-12.5c-6.4-2.3-13.1-2.5-20-0.6C196.5,161.4,190.9,165,186.6,170.3
				 M202.1,178.1l0.3-0.2c0.8-0.4,1.9-1.1,3.4-2c0.1,0,0.1-0.1,0.1-0.1c-0.9,0.3-1,0.3-0.3,0.1c0.6-0.2,0.7-0.3,0.3-0.1
				c0.1,0,0.2,0,0.2-0.1l1.4-0.4c0.4-0.1,1-0.2,1.8-0.4c0.2,0,0.5-0.1,1-0.2c0.3-0.1,0.1-0.1-0.6,0c0.8-0.1,1.9-0.2,3.4-0.2
				c0.4,0,1,0,1.9,0.1c0.2,0,0.3,0,0.4,0c0.1,0,0.2,0.1,0.3,0.1c1.5,0.4,2.6,0.7,3.5,1c0.2,0.1,0.4,0.1,0.5,0.1
				c0.1,0,0.1,0.1,0.2,0.1c0.4,0.2,1,0.6,1.9,1.1l1.2,0.8c0.1,0.1,0.2,0.1,0.3,0.1c0.1,0.1,0.2,0.2,0.3,0.3l3,3c0.8,1.3,0.8,1.3,0,0
				c0.6,0.9,1,1.5,1.2,1.8c0.2,0.3,0.5,0.9,0.8,1.6l0.4,0.7l-0.1-0.4c0,0,0.1,0.2,0.2,0.6l-0.1-0.3c0.4,1.1,0.8,2.4,1.1,3.9l0,0.2
				l0,5.3c-0.6,2.3-0.9,3.4-0.9,3.5l-0.2,0.7v0c-0.1,0.4-0.2,0.6-0.3,0.7c-0.8,1.5-1.5,2.6-1.9,3.3c0.2-0.3-0.3,0.3-1.4,1.7
				c-1,1-1.8,1.6-2.2,2c-0.3,0.2-0.4,0.3-0.5,0.4l-2.8,1.6c-0.1,0-0.1,0.1-0.2,0.1c-0.1,0-0.3,0.1-0.5,0.1c-0.9,0.3-2,0.6-3.5,1
				l-0.2,0.1h0.1c-0.1,0-0.3,0.1-0.7,0.2l0.5-0.2l-1.6,0.2c-0.8,0-1.9,0-3.4-0.1c-0.1,0-0.1,0-0.2,0c0.5,0.1,0.4,0.1-0.3,0.1
				c-0.8-0.1-0.7-0.1,0.3-0.1c-0.1,0-0.1,0-0.2-0.1l-2.5-0.6c-0.2,0-0.6-0.2-1.4-0.5c-0.2-0.1-0.3-0.1-0.4-0.1
				c-1.2-0.5-2.1-1-2.8-1.5l-0.6-0.4c0,0-0.4-0.3-1.2-0.9c-1-0.9-1.8-1.7-2.4-2.5l-0.1-0.1c0.1,0.1,0,0-0.3-0.3
				c-0.8-0.9-0.6-0.8,0.3,0.3c0,0-0.1-0.1-0.1-0.3l-1.7-2.7l-0.4-0.7c0,0-0.1-0.5-0.5-1.4l-0.4-1.4c-0.1-0.4-0.3-1-0.4-1.8
				c0-0.1,0-0.3,0-0.3l-0.1-0.4c-0.1-1.2-0.1-2.3,0-3.4l0.1-0.8c0.1-0.2,0.2-0.7,0.3-1.4l1-3.2c0,0,0-0.1,0-0.1h0
				c0-0.1,0.1-0.1,0.1-0.2c0.2-0.4,0.6-1,1.1-1.9l0.8-1.2c0.1-0.1,0.1-0.2,0.1-0.2c0.1-0.1,0.2-0.2,0.3-0.3c1-1.1,1.7-1.8,2-2.1
				C201.1,178.9,201.5,178.5,202.1,178.1z"/>
		</g>
	</g>
</g>
<g transform="matrix( 0.1338653564453125, 0, 0, 0.1338043212890625, 377.75,122.55) ">
	<g>
		<g id="Layer1_3_MEMBER_1_FILL">
			<path class="st3" d="M262,257c0-0.7-0.1-1.5-0.3-2.1c-0.6-5.6-2.9-10.4-7-14.5c-4.6-4.6-10.2-7-16.9-7.2h-49
				c-4.6,0-8.8,0.9-12.6,2.9c-3.9,2-7.1,4.9-9.5,8.7c-1.5,2.4-2.5,5.1-3,8.3c-0.3,2-0.5,4.9-0.5,8.8v39.9c0,1.4,0,3.6-0.1,6.6
				c0,2.6,0.1,4.7,0.3,6.5c0.4,3.7,1.6,7.1,3.4,10.2c1.9,3.2,4.5,5.8,7.6,7.8c2.2,1.4,4.7,2.4,7.6,3v43.2c0,4,0.3,7.1,0.9,9.6
				c0.9,3.3,2.4,6.1,4.8,8.3c2.7,2.6,6.2,4.3,10.5,4.9c1.6,0.2,5.5,0.3,11.7,0.3h10.7c2.5,0,3.9,0,4.2,0c1.6-0.1,3-0.2,4.2-0.5
				c4.5-1.1,8.1-3.5,10.7-7.3c2.4-3.6,3.6-7.8,3.6-12.6v-45.9c1.9-0.4,3.7-1,5.4-1.8c2.4-1.2,4.6-2.8,6.6-4.8c2-2,3.5-4.3,4.6-6.8
				c1-2.3,1.6-4.8,1.9-7.6c0.2-1.7,0.3-4.3,0.3-7.8V257 M243.3,251.7c0.6,0.7,0.8,1.1,0.9,1.1l0.4,0.6c0.1,0.2,0.2,0.5,0.4,1
				l0.1,0.1l0.4,1.3v-0.4c0,0.2,0,0.4,0.1,0.6c0,0.2,0,0.2,0,0.1c0,0.2,0,0.5-0.1,0.8v0.2c0,0,0.1,9.2,0.2,27.6
				c0,11,0,20.2-0.2,27.6v0.5c0,0.1,0,0.3,0,0.6l-0.4,1.5c0,0.1,0,0.2-0.1,0.2c0,0-0.1,0.1-0.1,0.1c-0.3,0.5-0.6,1.1-1.1,1.8
				l0.4-0.3c-0.2,0.2-0.4,0.4-0.4,0.4c0,0,0-0.1,0.1-0.1l-0.1,0.1c-0.4,0.5-0.8,0.9-1.2,1.1c-0.1,0.1-0.2,0.2-0.4,0.4l-1.3,0.7
				c0.1-0.1-0.3,0-1.1,0.2c-0.9,0.2-1.2,0.3-1,0.4c-0.7,0-2,0.1-3.8,0.1c-2.2,0-4.1,0.8-5.8,2.4c-1.6,1.6-2.4,3.5-2.4,5.8v55.4
				c0,0.1-0.1,0.3-0.1,0.4c-0.1,0.1-0.2,0.3-0.3,0.6l-0.2,0.2l-0.1,0.1c0,0,0,0,0.1,0c0,0.1-0.1,0.2-0.2,0.2l0.1-0.2
				c-0.1,0.1-0.1,0.1-0.2,0.1l0.1-0.1c-0.1,0.1-0.3,0.2-0.5,0.3l-0.6,0.1c0.2-0.1,0.2-0.1-0.1-0.1c-0.7,0.1-1.1,0.1-1.3,0.1h-22.4
				c0,0-0.2,0-0.6,0c0.5,0.1,0.4,0.1-0.1,0c-0.4,0-0.4,0-0.1,0c0.1,0,0.1,0,0.2,0c-0.2,0-0.5-0.1-0.8-0.2c-0.2-0.1-0.3-0.2-0.3-0.2
				l-0.4-0.2c0-0.1-0.1-0.1-0.1-0.2c0,0-0.1,0-0.2-0.2c0-0.2-0.1-0.5-0.2-0.9l-0.1-0.2v-55.2c0-2.2-0.8-4.2-2.5-5.8
				c-1.6-1.6-3.6-2.4-5.8-2.4l-3.8-0.1c-0.2,0-0.6-0.2-1.4-0.3c0,0-0.1,0-0.2-0.1c0,0,0.1,0.1,0.1,0.1l-0.6-0.2
				c0.2,0.1,0.4,0.1,0.5,0.1c-0.8-0.4-1.4-0.7-1.8-0.9c0,0-0.1,0-0.1-0.1l0.1,0.1c0,0-0.1-0.1-0.1-0.1c0,0,0.1,0,0.1,0l-1.2-1.1
				c-0.1-0.1-0.2-0.2-0.3-0.4l-0.7-1.1c-0.3-0.6-0.6-1-0.7-1.2c0.3,0.6,0.3,0.7,0.2,0.5c-0.2-0.5-0.2-0.8-0.2-0.9
				c-0.1-0.5-0.1-0.8-0.1-1c0,0,0-0.1-0.1-0.1V257c0,0,0-0.4,0.1-1.2c0-0.1,0-0.2,0-0.2c0.1-0.4,0.2-0.7,0.2-0.9
				c0.1-0.2,0.1-0.4,0.1-0.5l0.6-1.1c0.1-0.1,0.2-0.4,0.5-0.8l-0.3,0.4c0.3-0.5,0.7-0.8,1-1.1l0.8-0.7c0.1-0.1,0.1-0.1,0.2-0.2
				l0.8-0.4c0.3-0.1,0.6-0.3,0.8-0.4c0.2,0,0.6-0.1,1.2-0.2c0.5-0.1,0.8-0.2,0.8-0.3h52.2c0.1,0,0.1,0,0.1,0c0.1,0,0.2,0,0.2,0.1
				l1.1,0.2c0.1,0.1,0.2,0.1,0.4,0.2c0.3,0.1,0.6,0.3,0.9,0.4c0.1,0.1,0.4,0.3,0.9,0.7c0.1,0.1,0.2,0.1,0.2,0.1L243.3,251.7z"/>
		</g>
	</g>
</g>
<g transform="matrix( 0.1338653564453125, 0, 0, 0.1338043212890625, 377.75,122.55) ">
	<g>
		<g id="Layer1_3_MEMBER_2_FILL">
			<path class="st3" d="M360.8,160c-6.4-2.3-13.1-2.5-20-0.6c-6.9,1.9-12.6,5.5-16.9,10.8c-4.6,5.6-7.2,12-7.9,19.2
				c-0.7,7.3,0.8,14,4.5,20.2c3.7,6.2,8.8,10.7,15.5,13.6c6.5,2.9,13.4,3.7,20.5,2.4c7.9-1.4,14.4-5.4,19.6-11.8
				c5-6.2,7.5-13.2,7.8-21c0-0.2,0.1-0.4,0-0.6c0-0.2,0-0.4,0-0.6c-0.2-7.1-2.3-13.5-6.5-19.2C373.3,166.6,367.7,162.5,360.8,160
				 M343.3,175.8c0.1,0,0.2,0,0.2-0.1l1.4-0.4c0.4-0.1,1-0.2,1.8-0.4c0.2,0,0.5-0.1,1-0.2c0.3-0.1,0.1-0.1-0.6,0
				c0.8-0.1,1.9-0.2,3.4-0.2c0.4,0,1,0,1.9,0.1c0.2,0,0.3,0,0.4,0c0.1,0,0.2,0.1,0.4,0.1c1.5,0.4,2.6,0.7,3.5,1
				c0.2,0.1,0.4,0.1,0.5,0.1c0.1,0,0.1,0.1,0.2,0.1c0.4,0.2,1,0.6,1.9,1.1l1.2,0.8c0.1,0.1,0.2,0.1,0.3,0.1c0.1,0.1,0.2,0.2,0.3,0.3
				l3,3c0.8,1.3,0.9,1.3,0,0c0.6,0.9,1,1.5,1.2,1.8c0.2,0.3,0.5,0.9,0.8,1.6l0.4,0.7l-0.1-0.4c0,0,0.1,0.2,0.2,0.6l-0.1-0.3
				c0.4,1.1,0.8,2.4,1.1,3.9l0,0.2l0,5.3c-0.6,2.3-0.9,3.4-0.9,3.5l-0.2,0.7v0c-0.1,0.4-0.2,0.6-0.3,0.7c-0.8,1.5-1.5,2.6-1.9,3.3
				c0.2-0.3-0.3,0.3-1.4,1.7c-1,1-1.8,1.6-2.2,2c-0.3,0.2-0.4,0.3-0.5,0.4l-2.8,1.6c-0.1,0-0.1,0.1-0.2,0.1c-0.1,0-0.3,0.1-0.5,0.1
				c-0.9,0.3-2,0.6-3.5,1l-0.2,0.1l-1.6,0.2c-0.8,0-1.9,0-3.4-0.1c-0.1,0-0.1,0-0.2,0c-0.1,0-0.1,0-0.2-0.1l-2.5-0.6
				c-0.2,0-0.7-0.2-1.5-0.5c-0.2-0.1-0.3-0.1-0.4-0.1c-1.2-0.5-2.1-1-2.8-1.5l-0.6-0.4c0,0-0.4-0.3-1.2-0.9c-1-0.9-1.8-1.7-2.5-2.5
				l-0.1-0.1c0,0-0.1-0.1-0.1-0.3l-2-3.4c0,0-0.1-0.5-0.5-1.4l-0.4-1.4c-0.1-0.4-0.3-1-0.4-1.8c0-0.1,0-0.3,0-0.3l0-0.4
				c-0.1-1.2-0.1-2.3,0-3.4l0-0.8c0.1-0.2,0.2-0.7,0.3-1.4l1-3.2c0,0,0-0.1,0-0.1h0c0-0.1,0.1-0.1,0.1-0.2c0.2-0.4,0.6-1,1.1-1.9
				l0.8-1.2c0.1-0.1,0.1-0.2,0.1-0.2c0.1-0.1,0.2-0.2,0.3-0.3c1-1.1,1.7-1.8,2-2.1c0.3-0.4,0.8-0.8,1.3-1.2l0.3-0.2
				c0.8-0.4,1.9-1.1,3.4-2C343.2,175.9,343.3,175.8,343.3,175.8c-0.9,0.3-1,0.3-0.3,0.1C343.6,175.6,343.7,175.6,343.3,175.8z"/>
		</g>
	</g>
</g>
<g transform="matrix( 0.1338653564453125, 0, 0, 0.1338043212890625, 377.75,122.55) ">
	<g>
		<g id="Layer1_3_MEMBER_3_FILL">
			<path class="st3" d="M392.1,240.4c-4.6-4.6-10.2-7-16.9-7.2h-49c-4.6,0-8.8,0.9-12.6,2.9c-3.9,2-7.1,4.9-9.5,8.7
				c-1.5,2.4-2.5,5.1-3,8.3c-0.3,2-0.5,4.9-0.5,8.8v39.9c0,1.4,0,3.6-0.1,6.6c0,2.6,0,4.7,0.2,6.5c0.4,3.7,1.6,7.1,3.5,10.2
				c1.9,3.2,4.5,5.8,7.5,7.8c2.2,1.4,4.7,2.4,7.6,3v43.2c0,4,0.3,7.1,0.9,9.6c0.9,3.3,2.5,6.1,4.8,8.3c2.7,2.6,6.2,4.3,10.5,4.9
				c1.6,0.2,5.5,0.3,11.7,0.3H358c2.5,0,3.9,0,4.2,0c1.6-0.1,3-0.2,4.1-0.5c4.5-1.1,8.1-3.5,10.7-7.3c2.4-3.6,3.6-7.8,3.6-12.6
				v-45.9c1.9-0.4,3.7-1,5.4-1.8c2.4-1.2,4.6-2.8,6.5-4.8c2-2,3.5-4.3,4.6-6.8c1-2.3,1.6-4.8,1.9-7.6c0.2-1.7,0.3-4.3,0.3-7.8V257
				c0-0.7-0.1-1.5-0.3-2.1C398.5,249.3,396.2,244.4,392.1,240.4 M381.5,252.8l0.5,0.6c0.1,0.2,0.2,0.5,0.4,1l0,0.1l0.4,1.3v-0.4
				c0,0.2,0,0.4,0.1,0.6c0,0.2,0,0.2,0,0.1c0,0.2,0,0.5-0.1,0.8v0.2c0,0,0.1,9.2,0.2,27.6c0,11,0,20.2-0.2,27.6v0.5
				c0,0.1,0,0.3,0,0.6l-0.4,1.5c0,0.1,0,0.2,0,0.2c0,0-0.1,0.1-0.1,0.1l-1,1.8c0.1-0.1,0.1-0.1,0.2-0.1c-0.1,0.1-0.2,0.2-0.2,0.2
				l0.1-0.1c0,0-0.1,0.1-0.1,0.1c-0.4,0.5-0.8,0.9-1.1,1.1c-0.1,0.1-0.2,0.2-0.4,0.4l-1.3,0.7c0.1-0.1-0.3,0-1.1,0.2
				c-0.9,0.2-1.2,0.3-1,0.4c-0.7,0-2,0.1-3.8,0.1c-2.2,0-4.1,0.8-5.8,2.4c-1.6,1.6-2.5,3.5-2.5,5.8v55.4c0,0.1-0.1,0.3-0.1,0.4
				c-0.1,0.1-0.2,0.3-0.3,0.6l-0.4,0.4c-0.1,0.1-0.3,0.2-0.5,0.3l-0.6,0.1c0.2-0.1,0.2-0.1-0.1-0.1c-0.7,0.1-1.1,0.1-1.3,0.1h-22.4
				c0,0-0.2,0-0.6,0c0.5,0.1,0.4,0.1-0.1,0c-0.4,0-0.4,0-0.1,0c0.1,0,0.1,0,0.2,0c-0.2,0-0.5-0.1-0.8-0.2c0.1,0.1,0.2,0.1,0.4,0.2
				l-0.7-0.2c0.1,0,0.2,0,0.4,0c-0.2-0.1-0.3-0.2-0.3-0.2l-0.4-0.2c0,0,0,0,0.1,0l-0.2-0.1l0.2,0.1c0-0.1-0.1-0.1-0.1-0.2
				c0,0-0.1,0-0.1-0.2l0,0.2l-0.1-0.4c0,0.1,0.1,0.2,0.1,0.2c0-0.2-0.1-0.5-0.2-0.9l0-0.2v-55.2c0-2.2-0.8-4.2-2.5-5.8
				c-1.6-1.6-3.5-2.4-5.8-2.4l-3.8-0.1c-0.2,0-0.6-0.2-1.4-0.3c0,0-0.1,0-0.2-0.1c0,0,0.1,0.1,0.1,0.1l-0.6-0.2
				c0.2,0.1,0.4,0.1,0.5,0.1c-0.8-0.4-1.4-0.7-1.8-0.9c0,0-0.1,0-0.1-0.1l0,0.1c0,0-0.1-0.1-0.1-0.1c0,0,0.1,0,0.1,0l-1.2-1.1
				c-0.1-0.1-0.2-0.2-0.4-0.4l-0.7-1.1c-0.3-0.6-0.5-1-0.6-1.2c0.3,0.6,0.4,0.7,0.2,0.5c-0.2-0.5-0.2-0.8-0.2-0.9
				c-0.1-0.5-0.1-0.8-0.1-1c0,0,0-0.1,0-0.1V257c0,0,0-0.4,0.1-1.2c0-0.1,0-0.2,0-0.2c0.1-0.4,0.2-0.7,0.2-0.9
				c0.1-0.2,0.1-0.4,0.1-0.5l0.6-1.1c0.1-0.1,0.2-0.4,0.5-0.8l-0.3,0.4c0.3-0.5,0.7-0.8,1-1.1l0.8-0.7c0.1-0.1,0.1-0.1,0.2-0.2
				l0.8-0.4c0.3-0.1,0.6-0.3,0.8-0.4c-0.2,0-0.1,0,0.2-0.1c0.6-0.2,0.5-0.2-0.2,0.1c0.2,0,0.6-0.1,1.2-0.2c0.5-0.1,0.8-0.2,0.8-0.3
				h52.2c0.1,0,0.1,0,0.1,0c0.1,0,0.2,0,0.2,0.1l1.1,0.2c0.1,0.1,0.2,0.1,0.4,0.2c0.3,0.1,0.6,0.3,0.9,0.4c0.1,0.1,0.4,0.3,0.9,0.7
				c0.1,0.1,0.1,0.1,0.1,0.1c0.2,0.2,0.4,0.3,0.6,0.5C381.2,252.4,381.5,252.7,381.5,252.8z"/>
		</g>
	</g>
</g>
<g transform="matrix( 0.1338653564453125, 0, 0, 0.1338043212890625, 377.75,122.55) ">
	<g>
		<g id="Layer1_3_MEMBER_4_FILL">
			<path class="st3" d="M521.4,192.3c0-0.2,0-0.4-0.1-0.6c-0.2-7.1-2.3-13.5-6.5-19.2c-4.2-5.8-9.8-10-16.7-12.5
				c-6.4-2.3-13.1-2.5-20.1-0.6c-6.9,1.9-12.6,5.5-16.9,10.8c-4.6,5.6-7.2,12-7.9,19.2c-0.7,7.3,0.9,14,4.5,20.2
				c3.7,6.2,8.9,10.7,15.5,13.6c6.6,2.9,13.4,3.7,20.5,2.4c7.9-1.4,14.4-5.4,19.6-11.8c5-6.2,7.6-13.2,7.8-21
				C521.4,192.7,521.4,192.5,521.4,192.3 M496.6,177.1l1.2,0.8c0.1,0.1,0.2,0.1,0.4,0.2c0.1,0.1,0.1,0.2,0.2,0.2l3,3l0.4,0.6
				c0.5,0.7,0.7,1.1,0.8,1.2c0.2,0.3,0.5,0.9,0.9,1.6l0.2,0.5V185l0.3,0.6l-0.3-0.5l0.1,0.2c0.5,1.4,0.9,2.7,1.1,3.9l0.1,0.2
				l-0.1,5.3c-0.3,1.6-0.6,2.8-0.9,3.5l-0.3,0.9c-0.1,0.3-0.2,0.5-0.2,0.6c-0.9,1.6-1.6,2.6-2,3.2c-0.1,0.1-0.6,0.7-1.4,1.8
				c-0.8,0.8-1.5,1.4-2.2,2c-0.3,0.2-0.4,0.3-0.6,0.4l-2.8,1.6c-0.1,0-0.1,0.1-0.2,0.1c0.2-0.1,0.2,0-0.1,0.1
				c-0.7,0.3-0.7,0.3,0.1-0.1c-0.1,0-0.3,0.1-0.5,0.1c-0.9,0.3-2,0.6-3.5,1l-0.2,0.1l-1.6,0.2c-0.8,0-1.9,0-3.4-0.1
				c-0.1,0-0.1,0-0.1,0c0.4,0.1,0.3,0.1-0.4,0.1c-0.8-0.1-0.7-0.1,0.4-0.1c-0.1,0-0.1,0-0.2-0.1l-2.5-0.6c-0.2,0-0.6-0.2-1.5-0.5
				c-0.2-0.1-0.3-0.1-0.3-0.1c-1.2-0.5-2.1-1-2.7-1.5l-0.8-0.5c0,0,0-0.1-0.1-0.1c-0.5-0.4-0.8-0.6-0.9-0.7
				c-0.6-0.5-1.4-1.4-2.5-2.5l0-0.1c0.1,0.1,0,0-0.4-0.3c-0.8-0.9-0.6-0.8,0.4,0.3c0,0-0.1-0.1-0.2-0.3l-1.7-2.7l-0.4-0.7
				c0.1,0.1-0.1-0.4-0.5-1.4c-0.1-0.1-0.2-0.6-0.4-1.4l-0.4-1.8c0-0.1,0-0.3-0.1-0.3l0-0.4c-0.1-1.2-0.1-2.3,0-3.4l0.1-1
				c0,0,0-0.1,0-0.1c0,0,0,0,0-0.1l0,0c0.1-0.2,0.2-0.6,0.2-1.1l0.9-3.1c0.1-0.1,0.2-0.2,0.2-0.3l1.8-3.1c0.1-0.2,0.2-0.3,0.2-0.4
				c0.1-0.1,0.1-0.1,0.2-0.2c0.5-0.5,1.1-1.2,2-2.1l1.4-1.3l0.3-0.1c0.8-0.4,1.9-1.1,3.3-2c0.1,0,0.1-0.1,0.2-0.1
				c-0.9,0.3-1,0.3-0.3,0.1c0.6-0.2,0.7-0.3,0.3-0.1c0.1,0,0.2,0,0.2-0.1l1.3-0.4c0.4-0.1,1-0.2,1.8-0.4c0.2,0,0.5-0.1,1-0.2
				c0.3-0.1,0.1-0.1-0.6,0c0.8-0.1,1.9-0.2,3.4-0.2c0.4,0,1,0,1.9,0.1c0.2,0,0.3,0,0.4,0c0.1,0,0.2,0.1,0.4,0.1
				c1.3,0.3,2.5,0.7,3.5,1c0.3,0.1,0.5,0.1,0.6,0.1c0.1,0,0.1,0.1,0.1,0.1C495.2,176.2,495.8,176.6,496.6,177.1z"/>
		</g>
	</g>
</g>
<g transform="matrix( 0.1338653564453125, 0, 0, 0.1338043212890625, 377.75,122.55) ">
	<g>
		<g id="Layer1_3_MEMBER_5_FILL">
			<path class="st3" d="M463.7,233.2c-4.6,0-8.8,0.9-12.6,2.9c-3.9,2-7.1,4.9-9.5,8.7c-1.5,2.4-2.5,5.1-3,8.3
				c-0.3,2-0.5,4.9-0.5,8.8v39.9c0,1.4,0,3.6-0.1,6.6c0,2.6,0.1,4.7,0.2,6.5c0.4,3.7,1.6,7.1,3.5,10.2c1.9,3.2,4.4,5.8,7.5,7.8
				c2.2,1.4,4.7,2.4,7.6,3v43.2c0,4,0.3,7.1,0.9,9.6c0.9,3.3,2.5,6.1,4.8,8.3c2.7,2.6,6.2,4.3,10.5,4.9c1.6,0.2,5.5,0.3,11.7,0.3
				h10.7c2.5,0,3.9,0,4.2,0c1.6-0.1,3-0.2,4.1-0.5c4.5-1.1,8.1-3.5,10.7-7.3c2.4-3.6,3.6-7.8,3.6-12.6v-45.9c1.9-0.4,3.7-1,5.4-1.8
				c2.4-1.2,4.6-2.8,6.6-4.8c2-2,3.5-4.3,4.6-6.8c1-2.3,1.6-4.8,2-7.6c0.2-1.7,0.3-4.3,0.3-7.8V257c0-0.7-0.1-1.5-0.3-2.1
				c-0.6-5.6-2.9-10.4-7-14.5c-4.6-4.6-10.2-7-16.9-7.2H463.7 M459.4,250c0.2,0,0.6-0.1,1.2-0.2c0.5-0.1,0.8-0.2,0.8-0.3h52.2
				c0.1,0,0.1,0,0.2,0c0.1,0,0.2,0,0.2,0.1l1.1,0.2c0.1,0.1,0.2,0.1,0.4,0.2c0.3,0.1,0.6,0.3,0.9,0.4c0.1,0.1,0.4,0.3,1,0.7
				c0.1,0.1,0.1,0.1,0.2,0.1c0.2,0.2,0.4,0.3,0.6,0.5c0.6,0.7,0.8,1.1,0.9,1.1l0.4,0.6c0.1,0.2,0.2,0.5,0.4,1l0,0.1l0.4,1.3v-0.4
				c0,0.2,0,0.4,0,0.6c0,0.2,0,0.2,0,0.1c0,0.2,0,0.5,0,0.8v0.2c0,0,0,9.2,0.1,27.6c0,11,0,20.2-0.1,27.6v0.5c0,0.1,0,0.3,0,0.6
				l-0.4,1.5c0,0.1,0,0.2,0,0.2c0,0-0.1,0.1-0.1,0.1l-1.1,1.8c0.1-0.1,0.1-0.1,0.2-0.1c-0.1,0.1-0.2,0.2-0.2,0.2l0-0.1
				c0,0-0.1,0.1-0.1,0.1c-0.4,0.5-0.8,0.9-1.2,1.1c-0.1,0.1-0.2,0.2-0.4,0.4l-1.4,0.7c0.1-0.1-0.3,0-1,0.2c-0.9,0.2-1.2,0.3-1,0.4
				c-0.7,0-2,0.1-3.8,0.1c-2.2,0-4.1,0.8-5.8,2.4c-1.6,1.6-2.5,3.5-2.5,5.8v55.4c0,0.1-0.1,0.3-0.1,0.4c-0.1,0.1-0.2,0.3-0.3,0.6
				l-0.4,0.4c-0.1,0.1-0.3,0.2-0.5,0.3l-0.6,0.1c0.2-0.1,0.2-0.1-0.2-0.1c-0.7,0.1-1.1,0.1-1.3,0.1h-22.4c0,0-0.2,0-0.6,0
				c-0.2,0-0.5-0.1-0.8-0.2c-0.2-0.1-0.3-0.2-0.3-0.2l-0.4-0.2c0,0,0,0,0.1,0l-0.2-0.1l0.2,0.1c0-0.1-0.1-0.1-0.1-0.2
				c0,0-0.1,0-0.1-0.2c0-0.2-0.1-0.5-0.2-0.9l0-0.2v-55.2c0-2.2-0.8-4.2-2.5-5.8c-1.6-1.6-3.5-2.4-5.8-2.4l-3.8-0.1
				c-0.2,0-0.6-0.2-1.4-0.3c0,0-0.1,0-0.2-0.1c-0.8-0.4-1.4-0.7-1.8-0.9c0,0-0.1,0-0.1-0.1l-1.2-1.1c-0.1-0.1-0.2-0.2-0.4-0.4
				l-0.7-1.1c-0.3-0.6-0.6-1-0.7-1.2c0.3,0.6,0.4,0.7,0.2,0.5c-0.2-0.5-0.3-0.8-0.2-0.9c-0.1-0.5-0.1-0.8-0.1-1c0,0,0-0.1,0-0.1V257
				c0,0,0-0.4,0.1-1.2c0-0.1,0-0.2,0-0.2c0.1-0.4,0.2-0.7,0.2-0.9c0.1-0.2,0.1-0.4,0.1-0.5l0.6-1.1c0.1-0.1,0.2-0.4,0.5-0.8
				l-0.4,0.4c0.3-0.5,0.7-0.8,1-1.1l0.9-0.7c0.1-0.1,0.1-0.1,0.1-0.2l0.8-0.4C458.9,250.2,459.2,250.1,459.4,250z"/>
		</g>
	</g>
</g>
<g transform="matrix( 1, 0, 0, 1, -1.65,0) ">
	<g>
		<g id="Layer1_4_FILL">
			<path class="st3" d="M544.9,134c0,0.4,0.1,0.8,0.4,1.1c0.3,0.3,0.7,0.4,1.1,0.4h9.4l-10,10.1c-1.1-0.9-2.4-1.6-3.7-2
				c-1.4-0.5-2.8-0.8-4.3-0.8c-1.8,0-3.5,0.3-5,1c-1.5,0.7-2.9,1.6-4.1,2.8c-1.2,1.2-2.1,2.6-2.8,4.1c-0.7,1.6-1,3.3-1,5.1
				c0,1.6,0.3,3.2,0.8,4.7c0.6,1.5,1.4,2.8,2.5,3.9c1,1.1,2.2,2.1,3.7,2.8s2.9,1.2,4.5,1.4v9H531c-0.4,0-0.8,0.2-1,0.5
				s-0.5,0.6-0.5,1c0,0.4,0.2,0.8,0.5,1.1c0.3,0.3,0.6,0.4,1,0.4h5.2v5.4c0,0.4,0.2,0.8,0.5,1.1c0.3,0.3,0.6,0.4,1,0.4
				s0.8-0.2,1-0.4c0.3-0.3,0.5-0.6,0.5-1.1v-5.4h5.1c0.4,0,0.8-0.1,1.1-0.4c0.3-0.3,0.4-0.6,0.4-1.1c0-0.4-0.1-0.7-0.4-1
				s-0.7-0.5-1.1-0.5h-5.1v-9c1.6-0.2,3.1-0.7,4.5-1.4c1.4-0.7,2.6-1.7,3.6-2.9c1.1-1.2,1.9-2.5,2.5-3.9c0.6-1.5,0.9-3.1,0.9-4.7
				c0-1.5-0.2-2.9-0.8-4.3c-0.5-1.3-1.2-2.6-2.1-3.8l10.2-10.1v9.4c0,0.4,0.1,0.8,0.5,1.1c0.3,0.3,0.6,0.4,1,0.4
				c0.4,0,0.8-0.2,1-0.4c0.3-0.3,0.5-0.6,0.5-1.1v-13c0-0.4-0.2-0.8-0.5-1.1c-0.3-0.3-0.6-0.4-1-0.4h-13c-0.4,0-0.8,0.2-1.1,0.4
				C545,133.2,544.9,133.6,544.9,134 M537.7,145.8c1.3,0,2.6,0.3,3.8,0.8c1.2,0.5,2.2,1.2,3.2,2.1c0.9,0.9,1.6,2,2.1,3.2
				c0.5,1.2,0.8,2.5,0.8,3.9c0,1.3-0.3,2.6-0.8,3.9c-0.5,1.2-1.2,2.3-2.1,3.2c-0.9,0.9-2,1.6-3.2,2.1c-1.2,0.5-2.5,0.8-3.8,0.8
				c-1.4,0-2.7-0.3-3.9-0.8c-1.2-0.5-2.2-1.2-3.1-2.1c-0.9-0.9-1.6-2-2.2-3.2c-0.5-1.2-0.8-2.5-0.8-3.9c0-1.4,0.2-2.7,0.8-3.9
				c0.5-1.2,1.2-2.2,2.2-3.2c0.9-0.9,2-1.6,3.1-2.1C535,146.1,536.3,145.8,537.7,145.8z"/>
		</g>
	</g>
</g>
<g transform="matrix( 0.0967254638671875, 0, 0, 0.0967254638671875, 620.6,132.9) ">
	<g>
		<g id="Layer1_5_MEMBER_0_FILL">
			<path class="st3" d="M91.5,474.4V539h517v-64.6H91.5 M113.1,517.5v-21.6h473.9v21.6H113.1z"/>
		</g>
	</g>
</g>
<g transform="matrix( 0.0967254638671875, 0, 0, 0.0967254638671875, 620.6,132.9) ">
	<g>
		<g id="Layer1_5_MEMBER_1_FILL">
			<path class="st3" d="M350,158.4h21.5V44.6L113.1,21.1v474.9h247.7v-21.5H134.6V44.7L350,64.2V158.4z"/>
		</g>
	</g>
</g>
<g transform="matrix( 0.0967254638671875, 0, 0, 0.0967254638671875, 620.6,132.9) ">
	<g>
		<g id="Layer1_5_MEMBER_2_FILL">
			<path class="st3" d="M586.9,173.8l-258.5-23.5v345.7h258.5V173.8 M350,173.9l215.4,19.6v281H350V173.9z"/>
		</g>
	</g>
</g>
<g transform="matrix( 0.0967254638671875, 0, 0, 0.0967254638671875, 620.6,132.9) ">
	<g>
		<g id="Layer1_5_MEMBER_3_FILL">
			<path class="st3" d="M188.5,119v64.6H210V119H188.5z"/>
		</g>
	</g>
</g>
<g transform="matrix( 0.0967254638671875, 0, 0, 0.0967254638671875, 620.6,132.9) ">
	<g>
		<g id="Layer1_5_MEMBER_4_FILL">
			<path class="st3" d="M274.6,119h-21.6v64.6h21.6V119z"/>
		</g>
	</g>
</g>
<g transform="matrix( 0.0967254638671875, 0, 0, 0.0967254638671875, 620.6,132.9) ">
	<g>
		<g id="Layer1_5_MEMBER_5_FILL">
			<path class="st3" d="M210,237.5h-21.5v64.6H210V237.5z"/>
		</g>
	</g>
</g>
<g transform="matrix( 0.0967254638671875, 0, 0, 0.0967254638671875, 620.6,132.9) ">
	<g>
		<g id="Layer1_5_MEMBER_6_FILL">
			<path class="st3" d="M274.6,237.5h-21.6v64.6h21.6V237.5z"/>
		</g>
	</g>
</g>
<g transform="matrix( 0.0967254638671875, 0, 0, 0.0967254638671875, 620.6,132.9) ">
	<g>
		<g id="Layer1_5_MEMBER_7_FILL">
			<path class="st3" d="M210,355.9h-21.5v64.7H210V355.9z"/>
		</g>
	</g>
</g>
<g transform="matrix( 0.0967254638671875, 0, 0, 0.0967254638671875, 620.6,132.9) ">
	<g>
		<g id="Layer1_5_MEMBER_8_FILL">
			<path class="st3" d="M274.6,355.9h-21.6v64.7h21.6V355.9z"/>
		</g>
	</g>
</g>
<g transform="matrix( 0.0967254638671875, 0, 0, 0.0967254638671875, 620.6,132.9) ">
	<g>
		<g id="Layer1_5_MEMBER_9_FILL">
			<path class="st3" d="M436.2,237.5h-21.6v64.6h21.6V237.5z"/>
		</g>
	</g>
</g>
<g transform="matrix( 0.0967254638671875, 0, 0, 0.0967254638671875, 620.6,132.9) ">
	<g>
		<g id="Layer1_5_MEMBER_10_FILL">
			<path class="st3" d="M479.2,237.5v64.6h21.6v-64.6H479.2z"/>
		</g>
	</g>
</g>
<g transform="matrix( 0.0967254638671875, 0, 0, 0.0967254638671875, 620.6,132.9) ">
	<g>
		<g id="Layer1_5_MEMBER_11_FILL">
			<path class="st3" d="M436.2,355.9h-21.6v64.7h21.6V355.9z"/>
		</g>
	</g>
</g>
<g transform="matrix( 0.0967254638671875, 0, 0, 0.0967254638671875, 620.6,132.9) ">
	<g>
		<g id="Layer1_5_MEMBER_12_FILL">
			<path class="st3" d="M500.8,355.9h-21.6v64.7h21.6V355.9z"/>
		</g>
	</g>
</g>
<g>
	<path class="st4" d="M618,222.1c-0.7,0-1.2,0.3-1.6,0.8s-0.6,1.2-0.6,2.1c0,1.9,0.7,2.9,2.2,2.9c0.6,0,1.3-0.2,2.2-0.5v1.5
		c-0.7,0.3-1.5,0.4-2.4,0.4c-1.2,0-2.2-0.4-2.9-1.1s-1-1.8-1-3.3c0-0.9,0.2-1.7,0.5-2.3s0.8-1.2,1.4-1.5s1.3-0.5,2.1-0.5
		c0.8,0,1.7,0.2,2.5,0.6l-0.6,1.5c-0.3-0.2-0.6-0.3-1-0.4S618.3,222.1,618,222.1z"/>
	<path class="st4" d="M627.8,226c0,1.1-0.3,1.9-0.8,2.5s-1.3,0.9-2.3,0.9c-0.6,0-1.2-0.1-1.7-0.4s-0.8-0.7-1.1-1.2s-0.4-1.1-0.4-1.8
		c0-1.1,0.3-1.9,0.8-2.5s1.3-0.9,2.4-0.9c0.6,0,1.2,0.1,1.7,0.4s0.8,0.7,1.1,1.2S627.8,225.3,627.8,226z M623.3,226
		c0,0.6,0.1,1.1,0.3,1.5s0.6,0.5,1,0.5c0.5,0,0.8-0.2,1-0.5s0.3-0.8,0.3-1.5c0-0.6-0.1-1.1-0.3-1.5s-0.6-0.5-1-0.5
		c-0.5,0-0.8,0.2-1,0.5S623.3,225.4,623.3,226z"/>
	<path class="st4" d="M635.3,229.3h-1.8v-3.8c0-0.5-0.1-0.8-0.3-1.1s-0.4-0.4-0.8-0.4c-0.5,0-0.9,0.2-1.1,0.5s-0.3,0.9-0.3,1.7v3.1
		h-1.8v-6.6h1.4l0.2,0.8h0.1c0.2-0.3,0.5-0.6,0.8-0.7s0.7-0.2,1.2-0.2c0.8,0,1.3,0.2,1.7,0.6s0.6,1,0.6,1.8V229.3z"/>
	<path class="st4" d="M639.2,229.4c-0.8,0-1.4-0.3-1.8-0.9s-0.7-1.4-0.7-2.5c0-1.1,0.2-1.9,0.7-2.5s1.1-0.9,1.8-0.9
		c0.8,0,1.5,0.3,1.9,1h0.1c-0.1-0.5-0.1-0.9-0.1-1.3v-2.1h1.8v9.1h-1.4l-0.3-0.8h-0.1C640.7,229.1,640.1,229.4,639.2,229.4z
		 M639.9,228c0.5,0,0.8-0.1,1-0.4s0.3-0.7,0.3-1.4v-0.2c0-0.7-0.1-1.2-0.3-1.5s-0.6-0.5-1.1-0.5c-0.4,0-0.7,0.2-0.9,0.5
		s-0.3,0.8-0.3,1.5s0.1,1.1,0.3,1.5S639.4,228,639.9,228z"/>
	<path class="st4" d="M644.7,221.1c0-0.6,0.3-0.9,1-0.9s1,0.3,1,0.9c0,0.3-0.1,0.5-0.2,0.6s-0.4,0.2-0.7,0.2
		C645,222,644.7,221.7,644.7,221.1z M646.5,229.3h-1.8v-6.6h1.8V229.3z"/>
	<path class="st4" d="M651.1,229.4c-2,0-3.1-1.1-3.1-3.4c0-1.1,0.3-2,0.8-2.6s1.3-0.9,2.4-0.9c0.8,0,1.4,0.1,2,0.4l-0.5,1.4
		c-0.3-0.1-0.5-0.2-0.8-0.3s-0.5-0.1-0.7-0.1c-0.9,0-1.4,0.7-1.4,2c0,1.3,0.5,1.9,1.4,1.9c0.3,0,0.7,0,1-0.1s0.6-0.2,0.9-0.4v1.5
		c-0.3,0.2-0.6,0.3-0.9,0.4S651.5,229.4,651.1,229.4z M652.2,230.8c0,0.5-0.1,0.9-0.4,1.1s-0.8,0.3-1.4,0.3c-0.3,0-0.6,0-0.9-0.1v-1
		c0.1,0,0.2,0.1,0.4,0.1s0.3,0,0.4,0c0.3,0,0.4-0.1,0.4-0.4c0-0.3-0.3-0.5-1-0.6l0.5-0.9h1.1l-0.2,0.4c0.3,0.1,0.5,0.2,0.7,0.4
		S652.2,230.5,652.2,230.8z"/>
	<path class="st4" d="M660.5,226c0,1.1-0.3,1.9-0.8,2.5s-1.3,0.9-2.3,0.9c-0.6,0-1.2-0.1-1.7-0.4s-0.8-0.7-1.1-1.2s-0.4-1.1-0.4-1.8
		c0-1.1,0.3-1.9,0.8-2.5s1.3-0.9,2.4-0.9c0.6,0,1.2,0.1,1.7,0.4s0.8,0.7,1.1,1.2S660.5,225.3,660.5,226z M656.4,221.4
		c-0.1,0-0.2,0.1-0.3,0.2s-0.2,0.3-0.2,0.5h-0.9c0-0.6,0.2-1,0.5-1.3s0.6-0.5,1.1-0.5c0.2,0,0.3,0,0.5,0.1s0.3,0.1,0.5,0.2
		s0.3,0.1,0.4,0.2s0.3,0.1,0.4,0.1c0.1,0,0.2-0.1,0.3-0.2s0.2-0.3,0.2-0.5h0.9c0,0.6-0.2,1-0.5,1.3s-0.7,0.5-1.1,0.5
		c-0.2,0-0.3,0-0.5-0.1s-0.3-0.1-0.5-0.2s-0.3-0.1-0.4-0.2S656.5,221.4,656.4,221.4z M656,226c0,0.6,0.1,1.1,0.3,1.5s0.6,0.5,1,0.5
		c0.5,0,0.8-0.2,1-0.5s0.3-0.8,0.3-1.5c0-0.6-0.1-1.1-0.3-1.5s-0.6-0.5-1-0.5c-0.5,0-0.8,0.2-1,0.5S656,225.4,656,226z"/>
	<path class="st4" d="M665,229.4c-1.1,0-1.9-0.3-2.5-0.9s-0.9-1.4-0.9-2.5c0-1.1,0.3-1.9,0.8-2.5s1.3-0.9,2.3-0.9
		c0.9,0,1.6,0.3,2.2,0.8s0.8,1.3,0.8,2.2v0.9h-4.2c0,0.5,0.2,0.9,0.5,1.2s0.7,0.4,1.2,0.4c0.4,0,0.8,0,1.1-0.1s0.7-0.2,1.1-0.4v1.4
		c-0.3,0.2-0.6,0.3-1,0.3S665.5,229.4,665,229.4z M664.7,223.9c-0.4,0-0.7,0.1-0.9,0.4s-0.3,0.6-0.4,1h2.5c0-0.4-0.1-0.8-0.3-1
		S665.1,223.9,664.7,223.9z"/>
	<path class="st4" d="M673.7,227.4c0,0.7-0.2,1.2-0.7,1.5s-1.2,0.5-2.1,0.5c-0.5,0-0.9,0-1.2-0.1s-0.7-0.2-0.9-0.3v-1.5
		c0.3,0.2,0.7,0.3,1.1,0.4s0.8,0.2,1.1,0.2c0.6,0,1-0.2,1-0.6c0-0.1,0-0.3-0.1-0.3s-0.2-0.2-0.4-0.3s-0.5-0.2-0.8-0.4
		c-0.5-0.2-0.9-0.4-1.1-0.6s-0.4-0.4-0.5-0.6s-0.2-0.5-0.2-0.9c0-0.6,0.2-1,0.7-1.4s1.1-0.5,1.9-0.5c0.8,0,1.6,0.2,2.3,0.5l-0.5,1.3
		c-0.3-0.1-0.6-0.3-0.9-0.3s-0.6-0.1-0.9-0.1c-0.5,0-0.8,0.1-0.8,0.4c0,0.2,0.1,0.3,0.3,0.4s0.5,0.3,1.1,0.5
		c0.5,0.2,0.9,0.4,1.1,0.6s0.4,0.4,0.5,0.6S673.7,227,673.7,227.4z"/>
	<path class="st4" d="M680.3,229.4c-0.8,0-1.4-0.3-1.8-0.9s-0.7-1.4-0.7-2.5c0-1.1,0.2-1.9,0.7-2.5s1.1-0.9,1.8-0.9
		c0.8,0,1.5,0.3,1.9,1h0.1c-0.1-0.5-0.1-0.9-0.1-1.3v-2.1h1.8v9.1h-1.4l-0.3-0.8h-0.1C681.7,229.1,681.1,229.4,680.3,229.4z
		 M680.9,228c0.5,0,0.8-0.1,1-0.4s0.3-0.7,0.3-1.4v-0.2c0-0.7-0.1-1.2-0.3-1.5s-0.6-0.5-1.1-0.5c-0.4,0-0.7,0.2-0.9,0.5
		s-0.3,0.8-0.3,1.5s0.1,1.1,0.3,1.5S680.5,228,680.9,228z"/>
	<path class="st4" d="M691.7,226c0,1.1-0.3,1.9-0.8,2.5s-1.3,0.9-2.3,0.9c-0.6,0-1.2-0.1-1.7-0.4s-0.8-0.7-1.1-1.2s-0.4-1.1-0.4-1.8
		c0-1.1,0.3-1.9,0.8-2.5s1.3-0.9,2.4-0.9c0.6,0,1.2,0.1,1.7,0.4s0.8,0.7,1.1,1.2S691.7,225.3,691.7,226z M687.2,226
		c0,0.6,0.1,1.1,0.3,1.5s0.6,0.5,1,0.5c0.5,0,0.8-0.2,1-0.5s0.3-0.8,0.3-1.5c0-0.6-0.1-1.1-0.3-1.5s-0.6-0.5-1-0.5
		c-0.5,0-0.8,0.2-1,0.5S687.2,225.4,687.2,226z"/>
	<path class="st4" d="M605.7,243.7h-1.8v-9.1h1.8V243.7z"/>
	<path class="st4" d="M613.6,240.4c0,1.1-0.3,1.9-0.8,2.5s-1.3,0.9-2.3,0.9c-0.6,0-1.2-0.1-1.7-0.4s-0.8-0.7-1.1-1.2
		s-0.4-1.1-0.4-1.8c0-1.1,0.3-1.9,0.8-2.5s1.3-0.9,2.4-0.9c0.6,0,1.2,0.1,1.7,0.4s0.8,0.7,1.1,1.2S613.6,239.7,613.6,240.4z
		 M609,240.4c0,0.6,0.1,1.1,0.3,1.5s0.6,0.5,1,0.5c0.5,0,0.8-0.2,1-0.5s0.3-0.8,0.3-1.5c0-0.6-0.1-1.1-0.3-1.5s-0.6-0.5-1-0.5
		c-0.5,0-0.8,0.2-1,0.5S609,239.8,609,240.4z"/>
	<path class="st4" d="M617.7,243.8c-2,0-3.1-1.1-3.1-3.4c0-1.1,0.3-2,0.8-2.6s1.3-0.9,2.4-0.9c0.8,0,1.4,0.1,2,0.4l-0.5,1.4
		c-0.3-0.1-0.5-0.2-0.8-0.3s-0.5-0.1-0.7-0.1c-0.9,0-1.4,0.7-1.4,2c0,1.3,0.5,1.9,1.4,1.9c0.3,0,0.7,0,1-0.1s0.6-0.2,0.9-0.4v1.5
		c-0.3,0.2-0.6,0.3-0.9,0.4S618.1,243.8,617.7,243.8z"/>
	<path class="st4" d="M625.4,243.7l-0.3-0.9h0c-0.3,0.4-0.6,0.6-0.9,0.8s-0.7,0.2-1.2,0.2c-0.6,0-1.1-0.2-1.5-0.5s-0.5-0.9-0.5-1.5
		c0-0.7,0.2-1.2,0.7-1.5s1.2-0.5,2.2-0.5l1.1,0v-0.3c0-0.7-0.3-1-1-1c-0.5,0-1.1,0.2-1.8,0.5l-0.6-1.2c0.8-0.4,1.6-0.6,2.5-0.6
		c0.9,0,1.6,0.2,2,0.6s0.7,1,0.7,1.7v4.4H625.4z M624.8,240.7l-0.7,0c-0.5,0-0.9,0.1-1.2,0.3s-0.4,0.4-0.4,0.8
		c0,0.5,0.3,0.8,0.9,0.8c0.4,0,0.7-0.1,1-0.4s0.4-0.6,0.4-0.9V240.7z"/>
	<path class="st4" d="M630.2,243.7h-1.8v-9.1h1.8V243.7z"/>
	<path class="st4" d="M637.3,243.8c-0.8,0-1.4-0.3-1.8-0.9s-0.7-1.4-0.7-2.5c0-1.1,0.2-1.9,0.7-2.5s1.1-0.9,1.8-0.9
		c0.8,0,1.5,0.3,1.9,1h0.1c-0.1-0.5-0.1-0.9-0.1-1.3v-2.1h1.8v9.1h-1.4l-0.3-0.8h-0.1C638.8,243.5,638.1,243.8,637.3,243.8z
		 M637.9,242.4c0.5,0,0.8-0.1,1-0.4s0.3-0.7,0.3-1.4v-0.2c0-0.7-0.1-1.2-0.3-1.5s-0.6-0.5-1.1-0.5c-0.4,0-0.7,0.2-0.9,0.5
		s-0.3,0.8-0.3,1.5s0.1,1.1,0.3,1.5S637.5,242.4,637.9,242.4z"/>
	<path class="st4" d="M645.8,243.8c-1.1,0-1.9-0.3-2.5-0.9s-0.9-1.4-0.9-2.5c0-1.1,0.3-1.9,0.8-2.5s1.3-0.9,2.3-0.9
		c0.9,0,1.6,0.3,2.2,0.8s0.8,1.3,0.8,2.2v0.9h-4.2c0,0.5,0.2,0.9,0.5,1.2s0.7,0.4,1.2,0.4c0.4,0,0.8,0,1.1-0.1s0.7-0.2,1.1-0.4v1.4
		c-0.3,0.2-0.6,0.3-1,0.3S646.3,243.8,645.8,243.8z M645.5,238.3c-0.4,0-0.7,0.1-0.9,0.4s-0.3,0.6-0.4,1h2.5c0-0.4-0.1-0.8-0.3-1
		S645.9,238.3,645.5,238.3z"/>
	<path class="st4" d="M658.9,243.7h-1.8v-3.8c0-0.5-0.1-0.8-0.2-1.1s-0.4-0.4-0.7-0.4c-0.5,0-0.8,0.2-1,0.5s-0.3,0.9-0.3,1.7v3.1
		H653v-6.6h1.4l0.2,0.8h0.1c0.2-0.3,0.4-0.5,0.8-0.7s0.7-0.3,1.1-0.3c1,0,1.6,0.3,2,1h0.2c0.2-0.3,0.4-0.5,0.8-0.7s0.7-0.3,1.2-0.3
		c0.7,0,1.3,0.2,1.7,0.6s0.6,1,0.6,1.8v4.3h-1.8v-3.8c0-0.5-0.1-0.8-0.2-1.1s-0.4-0.4-0.7-0.4c-0.4,0-0.8,0.2-1,0.5
		s-0.3,0.8-0.3,1.5V243.7z"/>
	<path class="st4" d="M670.8,240.4c0,1.1-0.3,1.9-0.8,2.5s-1.3,0.9-2.3,0.9c-0.6,0-1.2-0.1-1.7-0.4s-0.8-0.7-1.1-1.2
		s-0.4-1.1-0.4-1.8c0-1.1,0.3-1.9,0.8-2.5s1.3-0.9,2.4-0.9c0.6,0,1.2,0.1,1.7,0.4s0.8,0.7,1.1,1.2S670.8,239.7,670.8,240.4z
		 M666.2,240.4c0,0.6,0.1,1.1,0.3,1.5s0.6,0.5,1,0.5c0.5,0,0.8-0.2,1-0.5s0.3-0.8,0.3-1.5c0-0.6-0.1-1.1-0.3-1.5s-0.6-0.5-1-0.5
		c-0.5,0-0.8,0.2-1,0.5S666.2,239.8,666.2,240.4z"/>
	<path class="st4" d="M675.9,237c0.2,0,0.4,0,0.6,0.1l-0.1,1.7c-0.1,0-0.3-0.1-0.5-0.1c-0.6,0-1,0.1-1.3,0.4s-0.5,0.7-0.5,1.2v3.3
		h-1.8v-6.6h1.4l0.3,1.1h0.1c0.2-0.4,0.5-0.7,0.8-0.9S675.5,237,675.9,237z"/>
	<path class="st4" d="M681.9,243.7l-0.3-0.9h0c-0.3,0.4-0.6,0.6-0.9,0.8s-0.7,0.2-1.2,0.2c-0.6,0-1.1-0.2-1.5-0.5s-0.5-0.9-0.5-1.5
		c0-0.7,0.2-1.2,0.7-1.5s1.2-0.5,2.2-0.5l1.1,0v-0.3c0-0.7-0.3-1-1-1c-0.5,0-1.1,0.2-1.8,0.5l-0.6-1.2c0.8-0.4,1.6-0.6,2.5-0.6
		c0.9,0,1.6,0.2,2,0.6s0.7,1,0.7,1.7v4.4H681.9z M681.3,240.7l-0.7,0c-0.5,0-0.9,0.1-1.2,0.3s-0.4,0.4-0.4,0.8
		c0,0.5,0.3,0.8,0.9,0.8c0.4,0,0.7-0.1,1-0.4s0.4-0.6,0.4-0.9V240.7z"/>
	<path class="st4" d="M687,243.8c-0.8,0-1.4-0.3-1.8-0.9s-0.7-1.4-0.7-2.5c0-1.1,0.2-1.9,0.7-2.5s1.1-0.9,1.8-0.9
		c0.8,0,1.5,0.3,1.9,1h0.1c-0.1-0.5-0.1-0.9-0.1-1.3v-2.1h1.8v9.1h-1.4l-0.3-0.8h-0.1C688.5,243.5,687.9,243.8,687,243.8z
		 M687.6,242.4c0.5,0,0.8-0.1,1-0.4s0.3-0.7,0.3-1.4v-0.2c0-0.7-0.1-1.2-0.3-1.5s-0.6-0.5-1.1-0.5c-0.4,0-0.7,0.2-0.9,0.5
		s-0.3,0.8-0.3,1.5s0.1,1.1,0.3,1.5S687.2,242.4,687.6,242.4z"/>
	<path class="st4" d="M692.5,235.5c0-0.6,0.3-0.9,1-0.9s1,0.3,1,0.9c0,0.3-0.1,0.5-0.2,0.6s-0.4,0.2-0.7,0.2
		C692.8,236.4,692.5,236.1,692.5,235.5z M694.3,243.7h-1.8v-6.6h1.8V243.7z"/>
	<path class="st4" d="M700.4,243.7l-0.3-0.9h0c-0.3,0.4-0.6,0.6-0.9,0.8s-0.7,0.2-1.2,0.2c-0.6,0-1.1-0.2-1.5-0.5s-0.5-0.9-0.5-1.5
		c0-0.7,0.2-1.2,0.7-1.5s1.2-0.5,2.2-0.5l1.1,0v-0.3c0-0.7-0.3-1-1-1c-0.5,0-1.1,0.2-1.8,0.5l-0.6-1.2c0.8-0.4,1.6-0.6,2.5-0.6
		c0.9,0,1.6,0.2,2,0.6s0.7,1,0.7,1.7v4.4H700.4z M699.8,240.7l-0.7,0c-0.5,0-0.9,0.1-1.2,0.3s-0.4,0.4-0.4,0.8
		c0,0.5,0.3,0.8,0.9,0.8c0.4,0,0.7-0.1,1-0.4s0.4-0.6,0.4-0.9V240.7z"/>
	<path class="st4" d="M624.6,254.8c0,1.1-0.3,1.9-0.8,2.5s-1.3,0.9-2.3,0.9c-0.6,0-1.2-0.1-1.7-0.4s-0.8-0.7-1.1-1.2
		s-0.4-1.1-0.4-1.8c0-1.1,0.3-1.9,0.8-2.5s1.3-0.9,2.4-0.9c0.6,0,1.2,0.1,1.7,0.4s0.8,0.7,1.1,1.2S624.6,254.1,624.6,254.8z
		 M620,254.8c0,0.6,0.1,1.1,0.3,1.5s0.6,0.5,1,0.5c0.5,0,0.8-0.2,1-0.5s0.3-0.8,0.3-1.5c0-0.6-0.1-1.1-0.3-1.5s-0.6-0.5-1-0.5
		c-0.5,0-0.8,0.2-1,0.5S620,254.2,620,254.8z"/>
	<path class="st4" d="M630.7,258.1l-0.2-0.8h-0.1c-0.2,0.3-0.5,0.5-0.8,0.7s-0.8,0.2-1.2,0.2c-0.8,0-1.3-0.2-1.7-0.6s-0.6-1-0.6-1.8
		v-4.3h1.8v3.8c0,0.5,0.1,0.8,0.3,1.1s0.4,0.4,0.8,0.4c0.5,0,0.9-0.2,1.1-0.5s0.3-0.9,0.3-1.7v-3.1h1.8v6.6H630.7z"/>
	<path class="st4" d="M639.8,256.8c0.3,0,0.7-0.1,1.1-0.2v1.3c-0.4,0.2-1,0.3-1.6,0.3c-0.7,0-1.2-0.2-1.6-0.5s-0.5-0.9-0.5-1.6v-3.2
		h-0.9v-0.8l1-0.6l0.5-1.4h1.1v1.4h1.8v1.3H639v3.2c0,0.3,0.1,0.4,0.2,0.6S639.6,256.8,639.8,256.8z"/>
	<path class="st4" d="M645.9,251.4c0.2,0,0.4,0,0.6,0.1l-0.1,1.7c-0.1,0-0.3-0.1-0.5-0.1c-0.6,0-1,0.1-1.3,0.4s-0.5,0.7-0.5,1.2v3.3
		h-1.8v-6.6h1.4l0.3,1.1h0.1c0.2-0.4,0.5-0.7,0.8-0.9S645.5,251.4,645.9,251.4z"/>
	<path class="st4" d="M651.9,258.1l-0.3-0.9h0c-0.3,0.4-0.6,0.6-0.9,0.8s-0.7,0.2-1.2,0.2c-0.6,0-1.1-0.2-1.5-0.5s-0.5-0.9-0.5-1.5
		c0-0.7,0.2-1.2,0.7-1.5s1.2-0.5,2.2-0.5l1.1,0v-0.3c0-0.7-0.3-1-1-1c-0.5,0-1.1,0.2-1.8,0.5l-0.6-1.2c0.8-0.4,1.6-0.6,2.5-0.6
		c0.9,0,1.6,0.2,2,0.6s0.7,1,0.7,1.7v4.4H651.9z M651.3,255.1l-0.7,0c-0.5,0-0.9,0.1-1.2,0.3s-0.4,0.4-0.4,0.8
		c0,0.5,0.3,0.8,0.9,0.8c0.4,0,0.7-0.1,1-0.4s0.4-0.6,0.4-0.9V255.1z"/>
	<path class="st4" d="M658.6,251.4c0.8,0,1.4,0.3,1.8,0.9s0.7,1.4,0.7,2.5c0,1.1-0.2,1.9-0.7,2.5s-1.1,0.9-1.8,0.9
		c-0.8,0-1.4-0.3-1.8-0.8h-0.1l-0.3,0.7H655V249h1.8v2.1c0,0.3,0,0.7-0.1,1.3h0.1C657.2,251.8,657.8,251.4,658.6,251.4z M658,252.9
		c-0.4,0-0.8,0.1-1,0.4s-0.3,0.7-0.3,1.3v0.2c0,0.7,0.1,1.2,0.3,1.5s0.5,0.5,1,0.5c0.4,0,0.7-0.2,0.9-0.5s0.3-0.8,0.3-1.5
		s-0.1-1.1-0.3-1.5S658.4,252.9,658,252.9z"/>
	<path class="st4" d="M666.7,258.1l-0.3-0.9h0c-0.3,0.4-0.6,0.6-0.9,0.8s-0.7,0.2-1.2,0.2c-0.6,0-1.1-0.2-1.5-0.5s-0.5-0.9-0.5-1.5
		c0-0.7,0.2-1.2,0.7-1.5s1.2-0.5,2.2-0.5l1.1,0v-0.3c0-0.7-0.3-1-1-1c-0.5,0-1.1,0.2-1.8,0.5l-0.6-1.2c0.8-0.4,1.6-0.6,2.5-0.6
		c0.9,0,1.6,0.2,2,0.6s0.7,1,0.7,1.7v4.4H666.7z M666.2,255.1l-0.7,0c-0.5,0-0.9,0.1-1.2,0.3s-0.4,0.4-0.4,0.8
		c0,0.5,0.3,0.8,0.9,0.8c0.4,0,0.7-0.1,1-0.4s0.4-0.6,0.4-0.9V255.1z"/>
	<path class="st4" d="M671.6,258.1h-1.8V249h1.8V258.1z"/>
	<path class="st4" d="M679.5,258.1h-1.8v-3.8c0-0.9-0.4-1.4-1.1-1.4c-0.5,0-0.9,0.2-1.1,0.5s-0.3,0.9-0.3,1.7v3.1h-1.8V249h1.8v1.9
		c0,0.1,0,0.5,0,1l0,0.5h0.1c0.4-0.6,1-1,1.9-1c0.8,0,1.4,0.2,1.8,0.6s0.6,1,0.6,1.8V258.1z"/>
	<path class="st4" d="M687.3,254.8c0,1.1-0.3,1.9-0.8,2.5s-1.3,0.9-2.3,0.9c-0.6,0-1.2-0.1-1.7-0.4s-0.8-0.7-1.1-1.2
		s-0.4-1.1-0.4-1.8c0-1.1,0.3-1.9,0.8-2.5s1.3-0.9,2.4-0.9c0.6,0,1.2,0.1,1.7,0.4s0.8,0.7,1.1,1.2S687.3,254.1,687.3,254.8z
		 M682.8,254.8c0,0.6,0.1,1.1,0.3,1.5s0.6,0.5,1,0.5c0.5,0,0.8-0.2,1-0.5s0.3-0.8,0.3-1.5c0-0.6-0.1-1.1-0.3-1.5s-0.6-0.5-1-0.5
		c-0.5,0-0.8,0.2-1,0.5S682.8,254.2,682.8,254.8z"/>
</g>
<g>
	<path class="st4" d="M518.6,86h3.4v4.4c-0.6,0.2-1.1,0.3-1.6,0.4s-1,0.1-1.5,0.1c-1.3,0-2.3-0.4-3-1.1s-1-1.9-1-3.3
		c0-1.4,0.4-2.5,1.2-3.2s1.9-1.2,3.3-1.2c0.9,0,1.7,0.2,2.5,0.5l-0.6,1.5c-0.6-0.3-1.3-0.5-2-0.5c-0.8,0-1.4,0.3-1.9,0.8
		s-0.7,1.2-0.7,2.1c0,0.9,0.2,1.6,0.6,2.1s0.9,0.7,1.7,0.7c0.4,0,0.8,0,1.2-0.1v-1.8h-1.6V86z"/>
	<path class="st4" d="M526.8,90.9c-1.1,0-1.9-0.3-2.5-0.9s-0.9-1.4-0.9-2.5c0-1.1,0.3-1.9,0.8-2.5s1.3-0.9,2.3-0.9
		c0.9,0,1.6,0.3,2.2,0.8s0.8,1.3,0.8,2.2V88h-4.2c0,0.5,0.2,0.9,0.5,1.2s0.7,0.4,1.2,0.4c0.4,0,0.8,0,1.1-0.1s0.7-0.2,1.1-0.4v1.4
		c-0.3,0.2-0.6,0.3-1,0.3S527.3,90.9,526.8,90.9z M528,83.5c-0.6-0.4-1.1-0.7-1.4-1c-0.3,0.3-0.8,0.7-1.3,1h-1.2v-0.2
		c0.7-0.7,1.2-1.3,1.5-1.8h2.1c0.1,0.2,0.3,0.5,0.6,0.8s0.6,0.7,0.9,0.9v0.2H528z M526.6,85.4c-0.4,0-0.7,0.1-0.9,0.4
		s-0.3,0.6-0.4,1h2.5c0-0.4-0.1-0.8-0.3-1S527,85.4,526.6,85.4z"/>
	<path class="st4" d="M537,90.8h-1.8V87c0-0.5-0.1-0.8-0.3-1.1s-0.4-0.4-0.8-0.4c-0.5,0-0.9,0.2-1.1,0.5s-0.3,0.9-0.3,1.7v3.1H531
		v-6.6h1.4l0.2,0.8h0.1c0.2-0.3,0.5-0.6,0.8-0.7s0.7-0.2,1.2-0.2c0.8,0,1.3,0.2,1.7,0.6s0.6,1,0.6,1.8V90.8z"/>
	<path class="st4" d="M541.8,90.9c-1.1,0-1.9-0.3-2.5-0.9s-0.9-1.4-0.9-2.5c0-1.1,0.3-1.9,0.8-2.5s1.3-0.9,2.3-0.9
		c0.9,0,1.6,0.3,2.2,0.8s0.8,1.3,0.8,2.2V88h-4.2c0,0.5,0.2,0.9,0.5,1.2s0.7,0.4,1.2,0.4c0.4,0,0.8,0,1.1-0.1s0.7-0.2,1.1-0.4v1.4
		c-0.3,0.2-0.6,0.3-1,0.3S542.3,90.9,541.8,90.9z M541.5,85.4c-0.4,0-0.7,0.1-0.9,0.4s-0.3,0.6-0.4,1h2.5c0-0.4-0.1-0.8-0.3-1
		S541.9,85.4,541.5,85.4z"/>
	<path class="st4" d="M549.6,84.1c0.2,0,0.4,0,0.6,0.1l-0.1,1.7c-0.1,0-0.3-0.1-0.5-0.1c-0.6,0-1,0.1-1.3,0.4s-0.5,0.7-0.5,1.2v3.3
		h-1.8v-6.6h1.4l0.3,1.1h0.1c0.2-0.4,0.5-0.7,0.8-0.9S549.2,84.1,549.6,84.1z"/>
	<path class="st4" d="M557.3,87.5c0,1.1-0.3,1.9-0.8,2.5s-1.3,0.9-2.3,0.9c-0.6,0-1.2-0.1-1.7-0.4s-0.8-0.7-1.1-1.2
		s-0.4-1.1-0.4-1.8c0-1.1,0.3-1.9,0.8-2.5s1.3-0.9,2.4-0.9c0.6,0,1.2,0.1,1.7,0.4s0.8,0.7,1.1,1.2S557.3,86.8,557.3,87.5z
		 M552.8,87.5c0,0.6,0.1,1.1,0.3,1.5s0.6,0.5,1,0.5c0.5,0,0.8-0.2,1-0.5s0.3-0.8,0.3-1.5c0-0.6-0.1-1.1-0.3-1.5s-0.6-0.5-1-0.5
		c-0.5,0-0.8,0.2-1,0.5S552.8,86.9,552.8,87.5z"/>
</g>
<g>
	<path class="st4" d="M391,226v3.3h-1.8v-8.6h2.5c1.2,0,2,0.2,2.6,0.6s0.8,1.1,0.8,1.9c0,0.5-0.1,1-0.4,1.3s-0.7,0.7-1.2,0.9
		c1.3,1.9,2.1,3.2,2.5,3.7h-2l-2-3.3H391z M391,224.6h0.6c0.6,0,1-0.1,1.3-0.3s0.4-0.5,0.4-0.9c0-0.4-0.1-0.7-0.4-0.9
		s-0.7-0.3-1.3-0.3H391V224.6z"/>
	<path class="st4" d="M401.1,229.3l-0.3-0.9h0c-0.3,0.4-0.6,0.6-0.9,0.8s-0.7,0.2-1.2,0.2c-0.6,0-1.1-0.2-1.5-0.5s-0.5-0.9-0.5-1.5
		c0-0.7,0.2-1.2,0.7-1.5s1.2-0.5,2.2-0.5l1.1,0V225c0-0.7-0.3-1-1-1c-0.5,0-1.1,0.2-1.8,0.5l-0.6-1.2c0.8-0.4,1.6-0.6,2.5-0.6
		c0.9,0,1.6,0.2,2,0.6s0.7,1,0.7,1.7v4.4H401.1z M400.6,226.3l-0.7,0c-0.5,0-0.9,0.1-1.2,0.3s-0.4,0.4-0.4,0.8
		c0,0.5,0.3,0.8,0.9,0.8c0.4,0,0.7-0.1,1-0.4s0.4-0.6,0.4-0.9V226.3z"/>
	<path class="st4" d="M406.9,229.4c-2,0-3.1-1.1-3.1-3.4c0-1.1,0.3-2,0.8-2.6s1.3-0.9,2.4-0.9c0.8,0,1.4,0.1,2,0.4l-0.5,1.4
		c-0.3-0.1-0.5-0.2-0.8-0.3s-0.5-0.1-0.7-0.1c-0.9,0-1.4,0.7-1.4,2c0,1.3,0.5,1.9,1.4,1.9c0.3,0,0.7,0,1-0.1s0.6-0.2,0.9-0.4v1.5
		c-0.3,0.2-0.6,0.3-0.9,0.4S407.3,229.4,406.9,229.4z M408,230.8c0,0.5-0.1,0.9-0.4,1.1s-0.8,0.3-1.4,0.3c-0.3,0-0.6,0-0.9-0.1v-1
		c0.1,0,0.2,0.1,0.4,0.1s0.3,0,0.4,0c0.3,0,0.4-0.1,0.4-0.4c0-0.3-0.3-0.5-1-0.6l0.5-0.9h1.1l-0.2,0.4c0.3,0.1,0.5,0.2,0.7,0.4
		S408,230.5,408,230.8z"/>
	<path class="st4" d="M414.5,229.3l-0.3-0.9h0c-0.3,0.4-0.6,0.6-0.9,0.8s-0.7,0.2-1.2,0.2c-0.6,0-1.1-0.2-1.5-0.5s-0.5-0.9-0.5-1.5
		c0-0.7,0.2-1.2,0.7-1.5s1.2-0.5,2.2-0.5l1.1,0V225c0-0.7-0.3-1-1-1c-0.5,0-1.1,0.2-1.8,0.5l-0.6-1.2c0.8-0.4,1.6-0.6,2.5-0.6
		c0.9,0,1.6,0.2,2,0.6s0.7,1,0.7,1.7v4.4H414.5z M414,226.3l-0.7,0c-0.5,0-0.9,0.1-1.2,0.3s-0.4,0.4-0.4,0.8c0,0.5,0.3,0.8,0.9,0.8
		c0.4,0,0.7-0.1,1-0.4s0.4-0.6,0.4-0.9V226.3z"/>
	<path class="st4" d="M423.7,229.4c-1.1,0-1.9-0.3-2.5-0.9s-0.9-1.4-0.9-2.5c0-1.1,0.3-1.9,0.8-2.5s1.3-0.9,2.3-0.9
		c0.9,0,1.6,0.3,2.2,0.8s0.8,1.3,0.8,2.2v0.9h-4.2c0,0.5,0.2,0.9,0.5,1.2s0.7,0.4,1.2,0.4c0.4,0,0.8,0,1.1-0.1s0.7-0.2,1.1-0.4v1.4
		c-0.3,0.2-0.6,0.3-1,0.3S424.2,229.4,423.7,229.4z M423.5,223.9c-0.4,0-0.7,0.1-0.9,0.4s-0.3,0.6-0.4,1h2.5c0-0.4-0.1-0.8-0.3-1
		S423.8,223.9,423.5,223.9z"/>
	<path class="st4" d="M433.9,229.4c-1.1,0-1.9-0.3-2.5-0.9s-0.9-1.4-0.9-2.5c0-1.1,0.3-1.9,0.8-2.5s1.3-0.9,2.3-0.9
		c0.9,0,1.6,0.3,2.2,0.8s0.8,1.3,0.8,2.2v0.9h-4.2c0,0.5,0.2,0.9,0.5,1.2s0.7,0.4,1.2,0.4c0.4,0,0.8,0,1.1-0.1s0.7-0.2,1.1-0.4v1.4
		c-0.3,0.2-0.6,0.3-1,0.3S434.4,229.4,433.9,229.4z M433.7,223.9c-0.4,0-0.7,0.1-0.9,0.4s-0.3,0.6-0.4,1h2.5c0-0.4-0.1-0.8-0.3-1
		S434.1,223.9,433.7,223.9z"/>
	<path class="st4" d="M440.8,228c0.3,0,0.7-0.1,1.1-0.2v1.3c-0.4,0.2-1,0.3-1.6,0.3c-0.7,0-1.2-0.2-1.6-0.5s-0.5-0.9-0.5-1.6v-3.2
		h-0.9v-0.8l1-0.6l0.5-1.4h1.1v1.4h1.8v1.3H440v3.2c0,0.3,0.1,0.4,0.2,0.6S440.6,228,440.8,228z"/>
	<path class="st4" d="M449.3,229.3h-1.8v-3.8c0-0.5-0.1-0.8-0.3-1.1s-0.4-0.4-0.8-0.4c-0.5,0-0.9,0.2-1.1,0.5s-0.3,0.9-0.3,1.7v3.1
		h-1.8v-6.6h1.4l0.2,0.8h0.1c0.2-0.3,0.5-0.6,0.8-0.7s0.7-0.2,1.2-0.2c0.8,0,1.3,0.2,1.7,0.6s0.6,1,0.6,1.8V229.3z"/>
	<path class="st4" d="M451.1,221.1c0-0.6,0.3-0.9,1-0.9s1,0.3,1,0.9c0,0.3-0.1,0.5-0.2,0.6s-0.4,0.2-0.7,0.2
		C451.4,222,451.1,221.7,451.1,221.1z M452.9,229.3h-1.8v-6.6h1.8V229.3z"/>
	<path class="st4" d="M459,229.3l-0.3-0.9h0c-0.3,0.4-0.6,0.6-0.9,0.8s-0.7,0.2-1.2,0.2c-0.6,0-1.1-0.2-1.5-0.5s-0.5-0.9-0.5-1.5
		c0-0.7,0.2-1.2,0.7-1.5s1.2-0.5,2.2-0.5l1.1,0V225c0-0.7-0.3-1-1-1c-0.5,0-1.1,0.2-1.8,0.5l-0.6-1.2c0.8-0.4,1.6-0.6,2.5-0.6
		c0.9,0,1.6,0.2,2,0.6s0.7,1,0.7,1.7v4.4H459z M458.4,226.3l-0.7,0c-0.5,0-0.9,0.1-1.2,0.3s-0.4,0.4-0.4,0.8c0,0.5,0.3,0.8,0.9,0.8
		c0.4,0,0.7-0.1,1-0.4s0.4-0.6,0.4-0.9V226.3z"/>
</g>
<g>
	<path class="st4" d="M290.6,87.2c0,1.4-0.4,2.5-1.1,3.3s-1.7,1.1-3,1.1s-2.3-0.4-3-1.1s-1.1-1.9-1.1-3.3s0.4-2.5,1.1-3.3
		s1.7-1.1,3-1.1s2.3,0.4,3,1.1S290.6,85.8,290.6,87.2z M284.4,87.2c0,1,0.2,1.7,0.5,2.2s0.9,0.7,1.6,0.7c1.4,0,2.2-1,2.2-2.9
		c0-1.9-0.7-2.9-2.2-2.9c-0.7,0-1.3,0.2-1.6,0.7S284.4,86.3,284.4,87.2z"/>
	<path class="st4" d="M294.9,91.6c-2,0-3.1-1.1-3.1-3.4c0-1.1,0.3-2,0.8-2.6s1.3-0.9,2.4-0.9c0.8,0,1.4,0.1,2,0.4l-0.5,1.4
		c-0.3-0.1-0.5-0.2-0.8-0.3s-0.5-0.1-0.7-0.1c-0.9,0-1.4,0.7-1.4,2c0,1.3,0.5,1.9,1.4,1.9c0.3,0,0.7,0,1-0.1s0.6-0.2,0.9-0.4v1.5
		c-0.3,0.2-0.6,0.3-0.9,0.4S295.3,91.6,294.9,91.6z"/>
	<path class="st4" d="M303,91.5l-0.2-0.8h-0.1c-0.2,0.3-0.5,0.5-0.8,0.7s-0.8,0.2-1.2,0.2c-0.8,0-1.3-0.2-1.7-0.6s-0.6-1-0.6-1.8V85
		h1.8v3.8c0,0.5,0.1,0.8,0.3,1.1s0.4,0.4,0.8,0.4c0.5,0,0.9-0.2,1.1-0.5s0.3-0.9,0.3-1.7V85h1.8v6.6H303z"/>
	<path class="st4" d="M309.9,91.6c-0.8,0-1.4-0.3-1.8-0.8H308c0.1,0.5,0.1,0.9,0.1,0.9v2.7h-1.8V85h1.5l0.3,0.8h0.1
		c0.4-0.6,1-1,1.9-1c0.8,0,1.4,0.3,1.8,0.9s0.7,1.4,0.7,2.5c0,0.7-0.1,1.3-0.3,1.8s-0.5,0.9-0.9,1.2S310.4,91.6,309.9,91.6z
		 M309.4,86.3c-0.4,0-0.8,0.1-1,0.4s-0.3,0.7-0.3,1.3v0.2c0,0.7,0.1,1.2,0.3,1.5s0.5,0.5,1,0.5c0.8,0,1.2-0.7,1.2-2
		c0-0.6-0.1-1.1-0.3-1.5S309.8,86.3,309.4,86.3z"/>
	<path class="st4" d="M318,91.5l-0.3-0.9h0c-0.3,0.4-0.6,0.6-0.9,0.8s-0.7,0.2-1.2,0.2c-0.6,0-1.1-0.2-1.5-0.5s-0.5-0.9-0.5-1.5
		c0-0.7,0.2-1.2,0.7-1.5s1.2-0.5,2.2-0.5l1.1,0v-0.3c0-0.7-0.3-1-1-1c-0.5,0-1.1,0.2-1.8,0.5l-0.6-1.2c0.8-0.4,1.6-0.6,2.5-0.6
		c0.9,0,1.6,0.2,2,0.6s0.7,1,0.7,1.7v4.4H318z M317.5,88.5l-0.7,0c-0.5,0-0.9,0.1-1.2,0.3s-0.4,0.4-0.4,0.8c0,0.5,0.3,0.8,0.9,0.8
		c0.4,0,0.7-0.1,1-0.4s0.4-0.6,0.4-0.9V88.5z"/>
	<path class="st4" d="M323.8,91.6c-2,0-3.1-1.1-3.1-3.4c0-1.1,0.3-2,0.8-2.6s1.3-0.9,2.4-0.9c0.8,0,1.4,0.1,2,0.4l-0.5,1.4
		c-0.3-0.1-0.5-0.2-0.8-0.3s-0.5-0.1-0.7-0.1c-0.9,0-1.4,0.7-1.4,2c0,1.3,0.5,1.9,1.4,1.9c0.3,0,0.7,0,1-0.1s0.6-0.2,0.9-0.4v1.5
		c-0.3,0.2-0.6,0.3-0.9,0.4S324.2,91.6,323.8,91.6z M324.9,93c0,0.5-0.1,0.9-0.4,1.1s-0.8,0.3-1.4,0.3c-0.3,0-0.6,0-0.9-0.1v-1
		c0.1,0,0.2,0.1,0.4,0.1s0.3,0,0.4,0c0.3,0,0.4-0.1,0.4-0.4c0-0.3-0.3-0.5-1-0.6l0.5-0.9h1.1l-0.2,0.4c0.3,0.1,0.5,0.2,0.7,0.4
		S324.9,92.7,324.9,93z"/>
	<path class="st4" d="M331.5,91.5l-0.3-0.9h0c-0.3,0.4-0.6,0.6-0.9,0.8s-0.7,0.2-1.2,0.2c-0.6,0-1.1-0.2-1.5-0.5s-0.5-0.9-0.5-1.5
		c0-0.7,0.2-1.2,0.7-1.5s1.2-0.5,2.2-0.5l1.1,0v-0.3c0-0.7-0.3-1-1-1c-0.5,0-1.1,0.2-1.8,0.5l-0.6-1.2c0.8-0.4,1.6-0.6,2.5-0.6
		c0.9,0,1.6,0.2,2,0.6s0.7,1,0.7,1.7v4.4H331.5z M329.1,83.6c-0.1,0-0.2,0.1-0.3,0.2s-0.2,0.3-0.2,0.5h-0.9c0-0.6,0.2-1,0.5-1.3
		s0.6-0.5,1.1-0.5c0.2,0,0.3,0,0.5,0.1s0.3,0.1,0.5,0.2s0.3,0.1,0.4,0.2s0.3,0.1,0.4,0.1c0.1,0,0.2-0.1,0.3-0.2s0.2-0.3,0.2-0.5h0.9
		c0,0.6-0.2,1-0.5,1.3s-0.7,0.5-1.1,0.5c-0.2,0-0.3,0-0.5-0.1S330.1,84,330,84s-0.3-0.1-0.4-0.2S329.2,83.6,329.1,83.6z M330.9,88.5
		l-0.7,0c-0.5,0-0.9,0.1-1.2,0.3s-0.4,0.4-0.4,0.8c0,0.5,0.3,0.8,0.9,0.8c0.4,0,0.7-0.1,1-0.4s0.4-0.6,0.4-0.9V88.5z"/>
	<path class="st4" d="M340.5,88.2c0,1.1-0.3,1.9-0.8,2.5s-1.3,0.9-2.3,0.9c-0.6,0-1.2-0.1-1.7-0.4s-0.8-0.7-1.1-1.2
		s-0.4-1.1-0.4-1.8c0-1.1,0.3-1.9,0.8-2.5s1.3-0.9,2.4-0.9c0.6,0,1.2,0.1,1.7,0.4s0.8,0.7,1.1,1.2S340.5,87.6,340.5,88.2z M336,88.2
		c0,0.6,0.1,1.1,0.3,1.5s0.6,0.5,1,0.5c0.5,0,0.8-0.2,1-0.5s0.3-0.8,0.3-1.5c0-0.6-0.1-1.1-0.3-1.5s-0.6-0.5-1-0.5
		c-0.5,0-0.8,0.2-1,0.5S336,87.6,336,88.2z"/>
</g>
<g>
	<path class="st4" d="M173.5,229.3h-4.9v-8.6h4.9v1.5h-3.1v1.9h2.9v1.5h-2.9v2.2h3.1V229.3z"/>
	<path class="st4" d="M177.2,229.4c-0.8,0-1.4-0.3-1.8-0.9s-0.7-1.4-0.7-2.5c0-1.1,0.2-1.9,0.7-2.5s1.1-0.9,1.8-0.9
		c0.8,0,1.5,0.3,1.9,1h0.1c-0.1-0.5-0.1-0.9-0.1-1.3v-2.1h1.8v9.1h-1.4l-0.3-0.8H179C178.6,229.1,178,229.4,177.2,229.4z M177.8,228
		c0.5,0,0.8-0.1,1-0.4s0.3-0.7,0.3-1.4v-0.2c0-0.7-0.1-1.2-0.3-1.5s-0.6-0.5-1.1-0.5c-0.4,0-0.7,0.2-0.9,0.5s-0.3,0.8-0.3,1.5
		s0.1,1.1,0.3,1.5S177.4,228,177.8,228z"/>
	<path class="st4" d="M187.3,229.3l-0.2-0.8H187c-0.2,0.3-0.5,0.5-0.8,0.7s-0.8,0.2-1.2,0.2c-0.8,0-1.3-0.2-1.7-0.6s-0.6-1-0.6-1.8
		v-4.3h1.8v3.8c0,0.5,0.1,0.8,0.3,1.1s0.4,0.4,0.8,0.4c0.5,0,0.9-0.2,1.1-0.5s0.3-0.9,0.3-1.7v-3.1h1.8v6.6H187.3z"/>
	<path class="st4" d="M193.2,229.4c-2,0-3.1-1.1-3.1-3.4c0-1.1,0.3-2,0.8-2.6s1.3-0.9,2.4-0.9c0.8,0,1.4,0.1,2,0.4l-0.5,1.4
		c-0.3-0.1-0.5-0.2-0.8-0.3s-0.5-0.1-0.7-0.1c-0.9,0-1.4,0.7-1.4,2c0,1.3,0.5,1.9,1.4,1.9c0.3,0,0.7,0,1-0.1s0.6-0.2,0.9-0.4v1.5
		c-0.3,0.2-0.6,0.3-0.9,0.4S193.7,229.4,193.2,229.4z"/>
	<path class="st4" d="M200.9,229.3l-0.3-0.9h0c-0.3,0.4-0.6,0.6-0.9,0.8s-0.7,0.2-1.2,0.2c-0.6,0-1.1-0.2-1.5-0.5s-0.5-0.9-0.5-1.5
		c0-0.7,0.2-1.2,0.7-1.5s1.2-0.5,2.2-0.5l1.1,0V225c0-0.7-0.3-1-1-1c-0.5,0-1.1,0.2-1.8,0.5l-0.6-1.2c0.8-0.4,1.6-0.6,2.5-0.6
		c0.9,0,1.6,0.2,2,0.6s0.7,1,0.7,1.7v4.4H200.9z M200.4,226.3l-0.7,0c-0.5,0-0.9,0.1-1.2,0.3s-0.4,0.4-0.4,0.8
		c0,0.5,0.3,0.8,0.9,0.8c0.4,0,0.7-0.1,1-0.4s0.4-0.6,0.4-0.9V226.3z"/>
	<path class="st4" d="M206.7,229.4c-2,0-3.1-1.1-3.1-3.4c0-1.1,0.3-2,0.8-2.6s1.3-0.9,2.4-0.9c0.8,0,1.4,0.1,2,0.4l-0.5,1.4
		c-0.3-0.1-0.5-0.2-0.8-0.3s-0.5-0.1-0.7-0.1c-0.9,0-1.4,0.7-1.4,2c0,1.3,0.5,1.9,1.4,1.9c0.3,0,0.7,0,1-0.1s0.6-0.2,0.9-0.4v1.5
		c-0.3,0.2-0.6,0.3-0.9,0.4S207.1,229.4,206.7,229.4z M207.8,230.8c0,0.5-0.1,0.9-0.4,1.1s-0.8,0.3-1.4,0.3c-0.3,0-0.6,0-0.9-0.1v-1
		c0.1,0,0.2,0.1,0.4,0.1s0.3,0,0.4,0c0.3,0,0.4-0.1,0.4-0.4c0-0.3-0.3-0.5-1-0.6l0.5-0.9h1.1l-0.2,0.4c0.3,0.1,0.5,0.2,0.7,0.4
		S207.8,230.5,207.8,230.8z"/>
	<path class="st4" d="M214.3,229.3l-0.3-0.9h0c-0.3,0.4-0.6,0.6-0.9,0.8s-0.7,0.2-1.2,0.2c-0.6,0-1.1-0.2-1.5-0.5s-0.5-0.9-0.5-1.5
		c0-0.7,0.2-1.2,0.7-1.5s1.2-0.5,2.2-0.5l1.1,0V225c0-0.7-0.3-1-1-1c-0.5,0-1.1,0.2-1.8,0.5l-0.6-1.2c0.8-0.4,1.6-0.6,2.5-0.6
		c0.9,0,1.6,0.2,2,0.6s0.7,1,0.7,1.7v4.4H214.3z M212,221.4c-0.1,0-0.2,0.1-0.3,0.2s-0.2,0.3-0.2,0.5h-0.9c0-0.6,0.2-1,0.5-1.3
		s0.6-0.5,1.1-0.5c0.2,0,0.3,0,0.5,0.1s0.3,0.1,0.5,0.2s0.3,0.1,0.4,0.2s0.3,0.1,0.4,0.1c0.1,0,0.2-0.1,0.3-0.2s0.2-0.3,0.2-0.5h0.9
		c0,0.6-0.2,1-0.5,1.3s-0.7,0.5-1.1,0.5c-0.2,0-0.3,0-0.5-0.1s-0.3-0.1-0.5-0.2s-0.3-0.1-0.4-0.2S212.1,221.4,212,221.4z
		 M213.8,226.3l-0.7,0c-0.5,0-0.9,0.1-1.2,0.3s-0.4,0.4-0.4,0.8c0,0.5,0.3,0.8,0.9,0.8c0.4,0,0.7-0.1,1-0.4s0.4-0.6,0.4-0.9V226.3z"
		/>
	<path class="st4" d="M223.4,226c0,1.1-0.3,1.9-0.8,2.5s-1.3,0.9-2.3,0.9c-0.6,0-1.2-0.1-1.7-0.4s-0.8-0.7-1.1-1.2s-0.4-1.1-0.4-1.8
		c0-1.1,0.3-1.9,0.8-2.5s1.3-0.9,2.4-0.9c0.6,0,1.2,0.1,1.7,0.4s0.8,0.7,1.1,1.2S223.4,225.3,223.4,226z M218.8,226
		c0,0.6,0.1,1.1,0.3,1.5s0.6,0.5,1,0.5c0.5,0,0.8-0.2,1-0.5s0.3-0.8,0.3-1.5c0-0.6-0.1-1.1-0.3-1.5s-0.6-0.5-1-0.5
		c-0.5,0-0.8,0.2-1,0.5S218.8,225.4,218.8,226z"/>
</g>
<g>
	<path class="st4" d="M60.1,87.1v3.3h-1.8v-8.6h2.5c1.2,0,2,0.2,2.6,0.6s0.8,1.1,0.8,1.9c0,0.5-0.1,1-0.4,1.3s-0.7,0.7-1.2,0.9
		c1.3,1.9,2.1,3.2,2.5,3.7h-2l-2-3.3H60.1z M60.1,85.6h0.6c0.6,0,1-0.1,1.3-0.3s0.4-0.5,0.4-0.9c0-0.4-0.1-0.7-0.4-0.9
		s-0.7-0.3-1.3-0.3h-0.6V85.6z"/>
	<path class="st4" d="M66,82.1c0-0.6,0.3-0.9,1-0.9s1,0.3,1,0.9c0,0.3-0.1,0.5-0.2,0.6S67.3,83,66.9,83C66.3,83,66,82.7,66,82.1z
		 M67.8,90.4H66v-6.6h1.8V90.4z"/>
	<path class="st4" d="M71.8,90.5c-0.8,0-1.4-0.3-1.8-0.9s-0.7-1.4-0.7-2.5c0-1.1,0.2-1.9,0.7-2.5s1.1-0.9,1.8-0.9
		c0.4,0,0.8,0.1,1.1,0.2s0.6,0.4,0.8,0.7h0l0.2-0.8h1.5v9.4h-1.8v-2.7c0-0.2,0-0.6,0.1-1h-0.1c-0.2,0.3-0.4,0.6-0.8,0.7
		S72.2,90.5,71.8,90.5z M72.4,89.1c0.5,0,0.8-0.1,1-0.4s0.3-0.7,0.3-1.4v-0.2c0-0.7-0.1-1.2-0.3-1.5s-0.6-0.5-1-0.5
		c-0.8,0-1.3,0.7-1.3,2c0,0.7,0.1,1.1,0.3,1.5S72,89.1,72.4,89.1z"/>
	<path class="st4" d="M81.9,90.4l-0.2-0.8h-0.1c-0.2,0.3-0.5,0.5-0.8,0.7s-0.8,0.2-1.2,0.2c-0.8,0-1.3-0.2-1.7-0.6s-0.6-1-0.6-1.8
		v-4.3H79v3.8c0,0.5,0.1,0.8,0.3,1.1s0.4,0.4,0.8,0.4c0.5,0,0.9-0.2,1.1-0.5s0.3-0.9,0.3-1.7v-3.1h1.8v6.6H81.9z"/>
	<path class="st4" d="M88.1,90.5c-1.1,0-1.9-0.3-2.5-0.9s-0.9-1.4-0.9-2.5c0-1.1,0.3-1.9,0.8-2.5s1.3-0.9,2.3-0.9
		c0.9,0,1.6,0.3,2.2,0.8s0.8,1.3,0.8,2.2v0.9h-4.2c0,0.5,0.2,0.9,0.5,1.2s0.7,0.4,1.2,0.4c0.4,0,0.8,0,1.1-0.1s0.7-0.2,1.1-0.4V90
		c-0.3,0.2-0.6,0.3-1,0.3S88.7,90.5,88.1,90.5z M87.9,85c-0.4,0-0.7,0.1-0.9,0.4s-0.3,0.6-0.4,1h2.5c0-0.4-0.1-0.8-0.3-1
		S88.3,85,87.9,85z"/>
	<path class="st4" d="M96.8,90.4h-5.2v-1.1l3-4.1h-2.9v-1.4h4.9V85l-3,4h3.1V90.4z"/>
	<path class="st4" d="M102.3,90.4l-0.3-0.9h0c-0.3,0.4-0.6,0.6-0.9,0.8s-0.7,0.2-1.2,0.2c-0.6,0-1.1-0.2-1.5-0.5s-0.5-0.9-0.5-1.5
		c0-0.7,0.2-1.2,0.7-1.5s1.2-0.5,2.2-0.5l1.1,0V86c0-0.7-0.3-1-1-1c-0.5,0-1.1,0.2-1.8,0.5l-0.6-1.2c0.8-0.4,1.6-0.6,2.5-0.6
		c0.9,0,1.6,0.2,2,0.6s0.7,1,0.7,1.7v4.4H102.3z M101.8,87.3l-0.7,0c-0.5,0-0.9,0.1-1.2,0.3s-0.4,0.4-0.4,0.8c0,0.5,0.3,0.8,0.9,0.8
		c0.4,0,0.7-0.1,1-0.4s0.4-0.6,0.4-0.9V87.3z"/>
</g>
<rect x="51.8" y="99.3" class="st4" width="56" height="4.5"/>
<rect x="282.3" y="99.3" class="st4" width="56" height="4.5"/>
<rect x="508" y="99.3" class="st4" width="56" height="4.5"/>
<rect x="168.2" y="208.9" class="st4" width="56" height="4.5"/>
<rect x="396.7" y="208.9" class="st4" width="56" height="4.5"/>
<rect x="626.4" y="208.9" class="st4" width="56" height="4.5"/>
</svg>
