
<svg xmlns="http://www.w3.org/2000/svg" version="1.1" xmlns:xlink="http://www.w3.org/1999/xlink" preserveAspectRatio="none" x="0px" y="0px" width="290px" height="390px" viewBox="0 0 290 390">
<defs>
<g id="Layer0_0_FILL">
<path fill="#FAC496" stroke="none" d="
M 144 96.05
Q 95.95 96.05 61.95 130 28 164 28 212.05 28 260.1 61.95 294.05 95.95 328.05 144 328.05 192.05 328.05 226 294.05 260 260.1 260 212.05 260 164 226 130 192.05 96.05 144 96.05 Z"/>
</g>

<g id="Layer0_1_FILL">
<path fill="#47B5C3" stroke="none" d="
M 6 161.05
L 6 229.05 280 229.05 280 161.05 6 161.05 Z"/>
</g>

<g id="Layer0_2_MEMBER_0_FILL">
<path fill="#FFFFFF" stroke="none" d="
M 130.55 196.5
Q 130.55 190.95 133.65 187.65 136.55 184.3 141.3 184.3 145.65 184.3 149.35 186.4
L 151.85 180.4
Q 146.9 178.1 141.3 178.1 132.65 178.1 127.9 182.85 122.95 187.85 122.95 196.3 122.95 205.2 127.05 209.95 131.4 214.5 139.45 214.5 142.55 214.5 145.65 214.1 148.55 213.7 152.05 212.65
L 152.05 194.25 138 194.25 138 200.45 144.6 200.45 144.6 207.9
Q 142.15 208.3 139.85 208.3 135.3 208.3 133.05 205.2 130.55 202.3 130.55 196.5
M 112.8 182.85
Q 108.5 178.1 100.45 178.1 92.15 178.1 87.85 182.85 83.5 187.4 83.5 196.3 83.5 205.2 87.85 209.75 92.15 214.5 100.45 214.5 108.5 214.5 112.8 209.75 117.15 205.2 117.15 196.3 117.15 187.4 112.8 182.85
M 93.6 187.4
Q 95.9 184.3 100.45 184.3 109.3 184.3 109.3 196.3 109.3 208.3 100.45 208.3 95.9 208.3 93.6 205.2 91.35 202.3 91.35 196.3 91.35 190.3 93.6 187.4
M 73.4 181.2
Q 69.85 178.75 62.65 178.75
L 52.55 178.75 52.55 214.1 59.95 214.1 59.95 200.45 63.9 200.45 72.35 214.1 80.6 214.1 70.3 198.6
Q 73.4 197.35 75.25 194.85 76.9 192.4 76.9 189.3 76.9 183.9 73.4 181.2
M 59.95 194.45
L 59.95 184.75 62.25 184.75
Q 65.75 184.75 67.6 185.95 69.25 187 69.25 189.5 69.25 191.95 67.6 193.2 65.95 194.45 62.45 194.45
L 59.95 194.45
M 32.7 178.75
L 21.55 178.75 21.55 214.1 29 214.1 29 201.5 32.1 201.5
Q 38.7 201.5 42.4 198.4 45.9 195.5 45.9 189.7 45.9 184.3 42.6 181.4 39.1 178.75 32.7 178.75
M 29 184.75
L 32.3 184.75
Q 35.4 184.75 36.85 186.2 38.3 187.4 38.3 189.9 38.3 192.6 36.65 194.05 35 195.3 31.45 195.3
L 29 195.3 29 184.75
M 254.45 185.35
Q 255.7 184.3 257.75 184.3 259.6 184.3 261.45 184.95 263.1 185.35 266 186.6
L 268.5 180.6
Q 265.8 179.55 263.35 178.75 260.65 178.1 257.95 178.1 252.4 178.1 249.1 180.8 246 183.5 246 188.25 246 190.75 247 192.6 247.85 194.45 249.5 195.9 251.15 197.35 254.45 198.8
L 259 201.3
Q 260 201.9 260.65 202.75 261.25 203.55 261.25 204.6 261.25 206.45 260 207.5 258.6 208.3 256.1 208.3 254.05 208.3 251.55 207.7 249.1 207.05 245.55 205.4
L 245.55 212.45
Q 249.9 214.5 255.7 214.5 261.7 214.5 265.2 211.85 268.7 209.15 268.7 204.2 268.7 200.85 266.85 198.4 265 196.1 260 193.65 256.3 191.75 255.25 191.15 254.25 190.5 253.85 189.7 253.4 189.05 253.4 188.05 253.4 186.4 254.45 185.35
M 219.75 192.6
Q 220.6 194.45 222.25 195.9 223.9 197.35 227.2 198.8
L 231.75 201.3
Q 232.75 201.9 233.4 202.75 234 203.55 234 204.6 234 206.45 232.75 207.5 231.3 208.3 228.85 208.3 226.8 208.3 224.3 207.7 221.85 207.05 218.3 205.4
L 218.3 212.45
Q 222.65 214.5 228.45 214.5 234.4 214.5 237.95 211.85 241.45 209.15 241.45 204.2 241.45 200.85 239.6 198.4 237.75 196.1 232.75 193.65 229.05 191.75 228 191.15 227 190.5 226.6 189.7 226.15 189.05 226.15 188.05 226.15 186.4 227.2 185.35 228.45 184.3 230.5 184.3 232.35 184.3 234.2 184.95 235.85 185.35 238.75 186.6
L 241.25 180.6
Q 238.55 179.55 236.05 178.75 233.4 178.1 230.7 178.1 225.15 178.1 221.85 180.8 218.75 183.5 218.75 188.25 218.75 190.75 219.75 192.6
M 200.35 192.6
L 200.35 184.75 213.15 184.75 213.15 178.75 192.9 178.75 192.9 214.1 213.15 214.1 213.15 207.9 200.35 207.9 200.35 198.8 212.35 198.8 212.35 192.6 200.35 192.6
M 181.15 181.2
Q 177.65 178.75 170.4 178.75
L 160.3 178.75 160.3 214.1 167.75 214.1 167.75 200.45 171.65 200.45 180.1 214.1 188.4 214.1 178.05 198.6
Q 181.15 197.35 183 194.85 184.65 192.4 184.65 189.3 184.65 183.9 181.15 181.2
M 167.75 184.75
L 170 184.75
Q 173.5 184.75 175.35 185.95 177 187 177 189.5 177 191.95 175.35 193.2 173.7 194.45 170.2 194.45
L 167.75 194.45 167.75 184.75 Z"/>
</g>

<g id="Layer0_2_MEMBER_1_FILL">
<path fill="#0F5DA6" stroke="none" d="
M 128.65 194.6
Q 128.65 189.05 131.75 185.75 134.65 182.4 139.4 182.4 143.75 182.4 147.45 184.5
L 149.95 178.5
Q 145 176.2 139.4 176.2 130.75 176.2 126 180.95 121.05 185.95 121.05 194.4 121.05 203.3 125.15 208.05 129.5 212.6 137.55 212.6 140.65 212.6 143.75 212.2 146.65 211.8 150.15 210.75
L 150.15 192.35 136.1 192.35 136.1 198.55 142.7 198.55 142.7 206
Q 140.25 206.4 137.95 206.4 133.4 206.4 131.15 203.3 128.65 200.4 128.65 194.6
M 110.9 180.95
Q 106.6 176.2 98.55 176.2 90.25 176.2 85.95 180.95 81.6 185.5 81.6 194.4 81.6 203.3 85.95 207.85 90.25 212.6 98.55 212.6 106.6 212.6 110.9 207.85 115.25 203.3 115.25 194.4 115.25 185.5 110.9 180.95
M 91.7 185.5
Q 94 182.4 98.55 182.4 107.4 182.4 107.4 194.4 107.4 206.4 98.55 206.4 94 206.4 91.7 203.3 89.45 200.4 89.45 194.4 89.45 188.4 91.7 185.5
M 71.5 179.3
Q 67.95 176.85 60.75 176.85
L 50.65 176.85 50.65 212.2 58.05 212.2 58.05 198.55 62 198.55 70.45 212.2 78.7 212.2 68.4 196.7
Q 71.5 195.45 73.35 192.95 75 190.5 75 187.4 75 182 71.5 179.3
M 58.05 182.85
L 60.35 182.85
Q 63.85 182.85 65.7 184.05 67.35 185.1 67.35 187.6 67.35 190.05 65.7 191.3 64.05 192.55 60.55 192.55
L 58.05 192.55 58.05 182.85
M 30.8 176.85
L 19.65 176.85 19.65 212.2 27.1 212.2 27.1 199.6 30.2 199.6
Q 36.8 199.6 40.5 196.5 44 193.6 44 187.8 44 182.4 40.7 179.5 37.2 176.85 30.8 176.85
M 27.1 182.85
L 30.4 182.85
Q 33.5 182.85 34.95 184.3 36.4 185.5 36.4 188 36.4 190.7 34.75 192.15 33.1 193.4 29.55 193.4
L 27.1 193.4 27.1 182.85
M 261.45 176.85
Q 258.75 176.2 256.05 176.2 250.5 176.2 247.2 178.9 244.1 181.6 244.1 186.35 244.1 188.85 245.1 190.7 245.95 192.55 247.6 194 249.25 195.45 252.55 196.9
L 257.1 199.4
Q 258.1 200 258.75 200.85 259.35 201.65 259.35 202.7 259.35 204.55 258.1 205.6 256.7 206.4 254.2 206.4 252.15 206.4 249.65 205.8 247.2 205.15 243.65 203.5
L 243.65 210.55
Q 248 212.6 253.8 212.6 259.8 212.6 263.3 209.95 266.8 207.25 266.8 202.3 266.8 198.95 264.95 196.5 263.1 194.2 258.1 191.75 254.4 189.85 253.35 189.25 252.35 188.6 251.95 187.8 251.5 187.15 251.5 186.15 251.5 184.5 252.55 183.45 253.8 182.4 255.85 182.4 257.7 182.4 259.55 183.05 261.2 183.45 264.1 184.7
L 266.6 178.7
Q 263.9 177.65 261.45 176.85
M 217.85 190.7
Q 218.7 192.55 220.35 194 222 195.45 225.3 196.9
L 229.85 199.4
Q 230.85 200 231.5 200.85 232.1 201.65 232.1 202.7 232.1 204.55 230.85 205.6 229.4 206.4 226.95 206.4 224.9 206.4 222.4 205.8 219.95 205.15 216.4 203.5
L 216.4 210.55
Q 220.75 212.6 226.55 212.6 232.5 212.6 236.05 209.95 239.55 207.25 239.55 202.3 239.55 198.95 237.7 196.5 235.85 194.2 230.85 191.75 227.15 189.85 226.1 189.25 225.1 188.6 224.7 187.8 224.25 187.15 224.25 186.15 224.25 184.5 225.3 183.45 226.55 182.4 228.6 182.4 230.45 182.4 232.3 183.05 233.95 183.45 236.85 184.7
L 239.35 178.7
Q 236.65 177.65 234.15 176.85 231.5 176.2 228.8 176.2 223.25 176.2 219.95 178.9 216.85 181.6 216.85 186.35 216.85 188.85 217.85 190.7
M 198.45 190.7
L 198.45 182.85 211.25 182.85 211.25 176.85 191 176.85 191 212.2 211.25 212.2 211.25 206 198.45 206 198.45 196.9 210.45 196.9 210.45 190.7 198.45 190.7
M 176.15 196.7
Q 179.25 195.45 181.1 192.95 182.75 190.5 182.75 187.4 182.75 182 179.25 179.3 175.75 176.85 168.5 176.85
L 158.4 176.85 158.4 212.2 165.85 212.2 165.85 198.55 169.75 198.55 178.2 212.2 186.5 212.2 176.15 196.7
M 165.85 182.85
L 168.1 182.85
Q 171.6 182.85 173.45 184.05 175.1 185.1 175.1 187.6 175.1 190.05 173.45 191.3 171.8 192.55 168.3 192.55
L 165.85 192.55 165.85 182.85 Z"/>
</g>

<path id="Layer0_2_MEMBER_1_1_STROKES" stroke="#FFFFFF" stroke-width="1" stroke-linejoin="round" stroke-linecap="round" fill="none" d="
M 165.85 182.85
L 168.1 182.85
Q 171.6 182.85 173.45 184.05 175.1 185.1 175.1 187.6 175.1 190.05 173.45 191.3 171.8 192.55 168.3 192.55
L 165.85 192.55 165.85 182.85 Z
M 169.75 198.55
L 178.2 212.2 186.5 212.2 176.15 196.7
Q 179.25 195.45 181.1 192.95 182.75 190.5 182.75 187.4 182.75 182 179.25 179.3 175.75 176.85 168.5 176.85
L 158.4 176.85 158.4 212.2 165.85 212.2 165.85 198.55 169.75 198.55 Z
M 211.25 206
L 198.45 206 198.45 196.9 210.45 196.9 210.45 190.7 198.45 190.7 198.45 182.85 211.25 182.85 211.25 176.85 191 176.85 191 212.2 211.25 212.2 211.25 206 Z
M 237.7 196.5
Q 235.85 194.2 230.85 191.75 227.15 189.85 226.1 189.25 225.1 188.6 224.7 187.8 224.25 187.15 224.25 186.15 224.25 184.5 225.3 183.45 226.55 182.4 228.6 182.4 230.45 182.4 232.3 183.05 233.95 183.45 236.85 184.7
L 239.35 178.7
Q 236.65 177.65 234.15 176.85 231.5 176.2 228.8 176.2 223.25 176.2 219.95 178.9 216.85 181.6 216.85 186.35 216.85 188.85 217.85 190.7 218.7 192.55 220.35 194 222 195.45 225.3 196.9
L 229.85 199.4
Q 230.85 200 231.5 200.85 232.1 201.65 232.1 202.7 232.1 204.55 230.85 205.6 229.4 206.4 226.95 206.4 224.9 206.4 222.4 205.8 219.95 205.15 216.4 203.5
L 216.4 210.55
Q 220.75 212.6 226.55 212.6 232.5 212.6 236.05 209.95 239.55 207.25 239.55 202.3 239.55 198.95 237.7 196.5 Z
M 264.95 196.5
Q 263.1 194.2 258.1 191.75 254.4 189.85 253.35 189.25 252.35 188.6 251.95 187.8 251.5 187.15 251.5 186.15 251.5 184.5 252.55 183.45 253.8 182.4 255.85 182.4 257.7 182.4 259.55 183.05 261.2 183.45 264.1 184.7
L 266.6 178.7
Q 263.9 177.65 261.45 176.85 258.75 176.2 256.05 176.2 250.5 176.2 247.2 178.9 244.1 181.6 244.1 186.35 244.1 188.85 245.1 190.7 245.95 192.55 247.6 194 249.25 195.45 252.55 196.9
L 257.1 199.4
Q 258.1 200 258.75 200.85 259.35 201.65 259.35 202.7 259.35 204.55 258.1 205.6 256.7 206.4 254.2 206.4 252.15 206.4 249.65 205.8 247.2 205.15 243.65 203.5
L 243.65 210.55
Q 248 212.6 253.8 212.6 259.8 212.6 263.3 209.95 266.8 207.25 266.8 202.3 266.8 198.95 264.95 196.5 Z
M 27.1 182.85
L 30.4 182.85
Q 33.5 182.85 34.95 184.3 36.4 185.5 36.4 188 36.4 190.7 34.75 192.15 33.1 193.4 29.55 193.4
L 27.1 193.4 27.1 182.85 Z
M 40.7 179.5
Q 37.2 176.85 30.8 176.85
L 19.65 176.85 19.65 212.2 27.1 212.2 27.1 199.6 30.2 199.6
Q 36.8 199.6 40.5 196.5 44 193.6 44 187.8 44 182.4 40.7 179.5 Z
M 58.05 182.85
L 60.35 182.85
Q 63.85 182.85 65.7 184.05 67.35 185.1 67.35 187.6 67.35 190.05 65.7 191.3 64.05 192.55 60.55 192.55
L 58.05 192.55 58.05 182.85 Z
M 62 198.55
L 70.45 212.2 78.7 212.2 68.4 196.7
Q 71.5 195.45 73.35 192.95 75 190.5 75 187.4 75 182 71.5 179.3 67.95 176.85 60.75 176.85
L 50.65 176.85 50.65 212.2 58.05 212.2 58.05 198.55 62 198.55 Z
M 91.7 185.5
Q 94 182.4 98.55 182.4 107.4 182.4 107.4 194.4 107.4 206.4 98.55 206.4 94 206.4 91.7 203.3 89.45 200.4 89.45 194.4 89.45 188.4 91.7 185.5 Z
M 110.9 180.95
Q 106.6 176.2 98.55 176.2 90.25 176.2 85.95 180.95 81.6 185.5 81.6 194.4 81.6 203.3 85.95 207.85 90.25 212.6 98.55 212.6 106.6 212.6 110.9 207.85 115.25 203.3 115.25 194.4 115.25 185.5 110.9 180.95 Z
M 136.1 198.55
L 142.7 198.55 142.7 206
Q 140.25 206.4 137.95 206.4 133.4 206.4 131.15 203.3 128.65 200.4 128.65 194.6 128.65 189.05 131.75 185.75 134.65 182.4 139.4 182.4 143.75 182.4 147.45 184.5
L 149.95 178.5
Q 145 176.2 139.4 176.2 130.75 176.2 126 180.95 121.05 185.95 121.05 194.4 121.05 203.3 125.15 208.05 129.5 212.6 137.55 212.6 140.65 212.6 143.75 212.2 146.65 211.8 150.15 210.75
L 150.15 192.35 136.1 192.35 136.1 198.55 Z"/>
</defs>

<g transform="matrix( 1, 0, 0, 1, 1,-17.05) ">
<use xlink:href="#Layer0_0_FILL"/>
</g>

<g transform="matrix( 1, 0, 0, 1, 2,-0.05) ">
<use xlink:href="#Layer0_1_FILL"/>
</g>

<g transform="matrix( 1, 0, 0, 1, 0.7,-0.35) ">
<use xlink:href="#Layer0_2_MEMBER_0_FILL"/>
</g>

<g transform="matrix( 1, 0, 0, 1, 1,-0.35) ">
<use xlink:href="#Layer0_2_MEMBER_1_FILL"/>

<use xlink:href="#Layer0_2_MEMBER_1_1_STROKES"/>
</g>
</svg>
