
<svg xmlns="http://www.w3.org/2000/svg" version="1.1" xmlns:xlink="http://www.w3.org/1999/xlink" preserveAspectRatio="none" x="0px" y="0px" width="120px" height="120px" viewBox="0 0 120 120">
<defs>
<g id="Layer0_0_MEMBER_0_MEMBER_0_FILL">
<path fill="#7CB8AF" stroke="none" d="
M 210 70.55
Q 210 44.65 191.7 26.35 173.4 8.05 147.5 8.05 121.6 8.05 103.3 26.35 85 44.65 85 70.55 85 96.45 103.3 114.75 121.6 133.05 147.5 133.05 173.4 133.05 191.7 114.75 210 96.45 210 70.55 Z"/>
</g>

<g id="Layer0_0_MEMBER_1_MEMBER_0_MEMBER_0_FILL">
<path fill="#0F5DA6" stroke="none" d="
M 290.6 185.4
Q 273.4 168.2 249 168.2 224.65 168.2 207.45 185.4 190.25 202.65 190.25 227 190.25 251.35 207.45 268.55 224.65 285.75 249 285.75 273.35 285.75 290.6 268.55 307.8 251.35 307.8 227 307.8 202.65 290.6 185.4 Z"/>
</g>

<g id="Layer0_0_MEMBER_1_MEMBER_0_MEMBER_1_FILL">
<path fill="#0F5DA6" stroke="none" d="
M 467.3 269.1
Q 455.3 257.15 438.35 257.15
L 340.15 257.15
Q 333.55 257.15 327.35 259.2 321.3 261.2 316.2 264.95
L 313.45 267.1
Q 312.15 268.05 311.6 268.6
L 235.25 344.95
Q 227.2 353 227.2 364.4 227.2 375.8 235.25 383.8 243.3 391.85 254.7 391.85 266.05 391.85 274.1 383.8
L 312.6 345.3
Q 320.95 349.2 329.85 349.2
L 368.05 349.2 367 351.15
Q 365.75 353.4 365.55 353.9 365.35 354.4 364.75 356.55 364 358.9 364 359 363.6 361.25 363.5 363.8
L 363.45 364.4 363.55 365.2
Q 363.65 367.95 364 369.75 364.2 370.7 364.8 372.5 365.5 374.65 365.55 374.85 365.85 375.6 367.15 377.95
L 368.05 379.6
Q 371.05 384.1 375.7 387.25 376.3 387.65 377.55 388.25 380.25 389.7 380.45 389.75 380.8 389.9 383 390.55
L 385.55 391.3
Q 387.9 391.8 390.5 391.8
L 390.95 391.85 482.25 391.85
Q 493.6 391.85 501.65 383.8 509.7 375.75 509.7 364.4 509.7 353 501.65 344.95 493.6 336.9 482.25 336.9
L 457.3 336.9 468.05 326.1 468.3 325.8
Q 473.5 320.2 476.35 313.2 479.25 305.9 479.25 298 479.25 281.1 467.3 269.1 Z"/>
</g>
</defs>

<g transform="matrix( 0.9119873046875, 0, 0, 0.9119873046875, -74.5,-4.35) ">
<use xlink:href="#Layer0_0_MEMBER_0_MEMBER_0_FILL"/>
</g>

<g transform="matrix( 0.201690673828125, 0, 0, 0.201690673828125, -10.6,3.5) ">
<use xlink:href="#Layer0_0_MEMBER_1_MEMBER_0_MEMBER_0_FILL"/>
</g>

<g transform="matrix( 0.201690673828125, 0, 0, 0.201690673828125, -10.6,3.5) ">
<use xlink:href="#Layer0_0_MEMBER_1_MEMBER_0_MEMBER_1_FILL"/>
</g>
</svg>
