<?xml version="1.0" encoding="utf-8"?>
<!-- Generator: Adobe Illustrator 24.3.0, SVG Export Plug-In . SVG Version: 6.00 Build 0)  -->
<svg version="1.1" id="Camada_1" xmlns="http://www.w3.org/2000/svg" xmlns:xlink="http://www.w3.org/1999/xlink" x="0px" y="0px"
	 viewBox="0 0 479 88" style="enable-background:new 0 0 479 88;" xml:space="preserve">
<style type="text/css">
	.st0{fill:#0F546B;}
	.st1{fill:#468B9B;}
	.st2{enable-background:new    ;}
	.st3{fill:#FFFFFF;}
</style>
<g id="Camada_1_1_">
	<path class="st0" d="M444.1,74.3H56.4c-16.7,0-30.3-13.6-30.3-30.3l0,0c0-16.7,13.6-30.3,30.3-30.3h387.7
		c16.7,0,30.3,13.6,30.3,30.3l0,0C474.4,60.7,460.9,74.3,444.1,74.3z"/>
	<path class="st1" d="M440.1,67H104.3c-12.6,0-23-10.3-23-23l0,0c0-12.6,10.3-23,23-23h335.8c12.6,0,23,10.3,23,23l0,0
		C463.1,56.6,452.7,67,440.1,67z"/>
	
		<ellipse transform="matrix(4.531444e-02 -0.999 0.999 4.531444e-02 -6.4357 81.2658)" class="st1" cx="39.3" cy="44" rx="34.7" ry="34.7"/>
	<g>
		<g class="st2">
			<g>
				<path class="st3" d="M29.2,31.5l-0.9-2.4H25l-0.8,2.4h-1.5l3.2-8.7h1.5l3.2,8.7H29.2z M27.9,27.9l-0.8-2.4
					c-0.1-0.2-0.1-0.4-0.2-0.7c-0.1-0.3-0.2-0.6-0.2-0.7c-0.1,0.5-0.3,1-0.5,1.6L25.4,28L27.9,27.9L27.9,27.9z"/>
				<path class="st3" d="M38.6,22.8v5.6c0,0.6-0.1,1.2-0.4,1.7S37.5,31,37,31.2c-0.5,0.3-1.1,0.4-1.9,0.4c-1.1,0-1.9-0.3-2.5-0.9
					s-0.9-1.4-0.9-2.4v-5.6h1.4v5.5c0,0.7,0.2,1.2,0.5,1.6c0.3,0.3,0.8,0.5,1.5,0.5c1.3,0,2-0.7,2-2.1v-5.5L38.6,22.8L38.6,22.8z"/>
				<path class="st3" d="M40.9,31.5v-8.7h1.4v7.5H46v1.2H40.9z"/>
				<path class="st3" d="M52.8,31.5l-0.9-2.4h-3.3l-0.8,2.4h-1.5l3.2-8.7H51l3.2,8.7H52.8z M51.6,27.9l-0.8-2.4
					c-0.1-0.2-0.1-0.4-0.2-0.7c-0.1-0.3-0.2-0.6-0.2-0.7c-0.1,0.5-0.3,1-0.5,1.6L49.1,28L51.6,27.9L51.6,27.9z"/>
			</g>
		</g>
		<g>
			<path class="st3" d="M37.2,52c0,4.5-0.7,7.9-2.2,10.1s-3.8,3.3-6.9,3.3c-3,0-5.3-1.1-6.8-3.4S19,56.4,19,52c0-4.6,0.7-8,2.2-10.2
				s3.8-3.3,6.9-3.3c3,0,5.3,1.1,6.8,3.4C36.4,44.3,37.2,47.6,37.2,52z M24.5,52c0,3.2,0.3,5.5,0.8,6.9c0.6,1.4,1.5,2.1,2.8,2.1
				s2.2-0.7,2.8-2.1s0.9-3.7,0.9-6.8c0-3.2-0.3-5.5-0.9-6.9c-0.6-1.4-1.5-2.1-2.8-2.1s-2.2,0.7-2.8,2.1C24.7,46.5,24.5,48.8,24.5,52
				z"/>
			<path class="st3" d="M58.7,59.6h-3.1V65h-5.4v-5.4H39.1v-3.8L50.5,39h5.1v16.4h3.1V59.6z M50.2,55.4V51c0-0.7,0-1.8,0.1-3.2
				c0.1-1.4,0.1-2.2,0.1-2.4h-0.1c-0.4,1-1,1.9-1.6,2.8l-4.8,7.2H50.2z"/>
		</g>
	</g>
	<g class="st2">
		<g>
			<path class="st3" d="M100.1,45.3v5.8h-2.4V36.6h4.1c1.9,0,3.2,0.3,4.1,1s1.3,1.8,1.3,3.2c0,1.8-0.9,3.1-2.8,3.8l4.1,6.4h-2.7
				l-3.5-5.8h-2.2V45.3z M100.1,43.3h1.6c1.1,0,1.9-0.2,2.4-0.6s0.7-1,0.7-1.8s-0.3-1.4-0.8-1.8s-1.3-0.5-2.4-0.5H100v4.7H100.1z"/>
			<path class="st3" d="M118.9,51h-8.2V36.5h8.2v2h-5.8v3.9h5.5v2h-5.5v4.5h5.8V51z"/>
			<path class="st3" d="M133.8,43.7c0,2.4-0.7,4.2-2,5.5s-3.2,1.9-5.7,1.9h-4V36.6h4.5c2.3,0,4.1,0.6,5.4,1.9
				C133.1,39.7,133.8,41.4,133.8,43.7z M131.3,43.7c0-3.5-1.6-5.2-4.9-5.2h-2V49h1.7C129.5,49,131.3,47.3,131.3,43.7z"/>
			<path class="st3" d="M136.9,51V36.5h2.4V51H136.9z"/>
			<path class="st3" d="M149,43.2h5.3v7.3c-0.9,0.3-1.7,0.5-2.5,0.6s-1.7,0.2-2.6,0.2c-2.2,0-3.9-0.6-5.1-1.9
				c-1.2-1.3-1.8-3.1-1.8-5.5c0-2.3,0.7-4.2,2-5.5s3.2-2,5.5-2c1.5,0,2.9,0.3,4.3,0.9l-0.8,2c-1.2-0.5-2.3-0.8-3.5-0.8
				c-1.5,0-2.8,0.5-3.7,1.5s-1.3,2.3-1.3,4c0,1.8,0.4,3.1,1.2,4s2,1.4,3.5,1.4c0.8,0,1.6-0.1,2.5-0.3v-3.7h-3L149,43.2L149,43.2z"/>
			<path class="st3" d="M157.8,51V36.5h2.4V51H157.8z"/>
			<path class="st3" d="M176,51h-2.9L166,39.5h-0.1v0.6c0.1,1.2,0.1,2.3,0.1,3.4V51h-2V36.5h2.9L174,48h0.1c0-0.2,0-0.7-0.1-1.7
				s-0.1-1.7-0.1-2.2v-7.6h2.2L176,51L176,51z"/>
			<path class="st3" d="M191.6,43.7c0,2.4-0.7,4.2-2,5.5s-3.2,1.9-5.7,1.9h-4V36.6h4.5c2.3,0,4.1,0.6,5.4,1.9
				C190.9,39.7,191.6,41.4,191.6,43.7z M189.1,43.7c0-3.5-1.6-5.2-4.9-5.2h-2V49h1.7C187.4,49,189.1,47.3,189.1,43.7z"/>
			<path class="st3" d="M207.5,43.8c0,2.4-0.6,4.2-1.8,5.5s-2.8,2-5,2s-3.9-0.6-5-1.9c-1.2-1.3-1.8-3.1-1.8-5.5s0.6-4.2,1.8-5.5
				s2.9-1.9,5-1.9c2.2,0,3.8,0.6,5,1.9C207,39.6,207.5,41.4,207.5,43.8z M196.5,43.8c0,1.8,0.4,3.1,1.1,4.1c0.7,0.9,1.8,1.4,3.2,1.4
				s2.5-0.5,3.2-1.4s1.1-2.3,1.1-4.1c0-1.8-0.4-3.1-1.1-4c-0.7-0.9-1.8-1.4-3.2-1.4s-2.5,0.5-3.2,1.4
				C196.9,40.7,196.5,42,196.5,43.8z"/>
			<path class="st3" d="M224.9,51l-1.4-4H218l-1.4,4H214l5.4-14.5h2.6l5.4,14.5H224.9z M222.8,45l-1.4-3.9c-0.1-0.3-0.2-0.7-0.4-1.2
				s-0.3-1-0.4-1.2c-0.2,0.8-0.4,1.7-0.8,2.7l-1.3,3.8h4.3V45z"/>
			<path class="st3" d="M246.3,43.7c0,2.4-0.7,4.2-2,5.5s-3.2,1.9-5.7,1.9h-4V36.6h4.5c2.3,0,4.1,0.6,5.4,1.9
				C245.7,39.7,246.3,41.4,246.3,43.7z M243.8,43.7c0-3.5-1.6-5.2-4.9-5.2h-2V49h1.7C242.1,49,243.8,47.3,243.8,43.7z"/>
			<path class="st3" d="M249.4,51V36.5h2.4V51H249.4z"/>
			<path class="st3" d="M264,47.1c0,1.3-0.5,2.3-1.4,3s-2.2,1.1-3.8,1.1s-3-0.3-4-0.8v-2.2c0.7,0.3,1.4,0.6,2.1,0.7
				c0.7,0.2,1.4,0.3,2.1,0.3c0.9,0,1.6-0.2,2.1-0.5s0.7-0.8,0.7-1.4c0-0.5-0.2-1-0.6-1.4s-1.3-0.8-2.5-1.3c-1.3-0.5-2.2-1.1-2.8-1.8
				c-0.5-0.7-0.8-1.5-0.8-2.5c0-1.2,0.4-2.2,1.3-2.8c0.9-0.7,2-1,3.5-1c1.4,0,2.8,0.3,4.1,0.9l-0.8,1.9c-1.3-0.5-2.4-0.8-3.4-0.8
				c-0.8,0-1.3,0.2-1.7,0.5c-0.4,0.3-0.6,0.8-0.6,1.3c0,0.4,0.1,0.7,0.2,1c0.2,0.3,0.4,0.5,0.8,0.8s1,0.6,2,0.9
				c1.1,0.4,1.8,0.9,2.3,1.2s0.9,0.8,1.1,1.3C263.8,45.9,264,46.5,264,47.1z"/>
			<path class="st3" d="M272.9,38.4c-1.4,0-2.4,0.5-3.2,1.4s-1.2,2.3-1.2,4c0,1.8,0.4,3.1,1.1,4s1.8,1.4,3.3,1.4
				c0.6,0,1.2-0.1,1.8-0.2s1.2-0.3,1.8-0.5v2c-1.1,0.4-2.4,0.6-3.9,0.6c-2.1,0-3.7-0.6-4.9-1.9c-1.1-1.3-1.7-3.1-1.7-5.5
				c0-1.5,0.3-2.8,0.8-3.9s1.3-2,2.4-2.6c1-0.6,2.3-0.9,3.7-0.9c1.5,0,2.8,0.3,4.1,0.9l-0.9,2c-0.5-0.2-1-0.4-1.5-0.6
				C274.1,38.5,273.5,38.4,272.9,38.4z"/>
			<path class="st3" d="M290.9,36.6V46c0,1.1-0.2,2-0.7,2.8s-1.1,1.4-2,1.8s-1.9,0.6-3.1,0.6c-1.8,0-3.2-0.5-4.2-1.4
				s-1.5-2.3-1.5-3.9v-9.3h2.4v9.2c0,1.2,0.3,2.1,0.8,2.6s1.4,0.9,2.6,0.9c2.2,0,3.3-1.2,3.3-3.5v-9.1h2.4V36.6z"/>
			<path class="st3" d="M303,47.1c0,1.3-0.5,2.3-1.4,3s-2.2,1.1-3.8,1.1s-3-0.3-4-0.8v-2.2c0.7,0.3,1.4,0.6,2.1,0.7
				c0.7,0.2,1.4,0.3,2.1,0.3c0.9,0,1.6-0.2,2.1-0.5s0.7-0.8,0.7-1.4c0-0.5-0.2-1-0.6-1.4s-1.3-0.8-2.5-1.3c-1.3-0.5-2.2-1.1-2.8-1.8
				c-0.5-0.7-0.8-1.5-0.8-2.5c0-1.2,0.4-2.2,1.3-2.8c0.9-0.7,2-1,3.5-1c1.4,0,2.8,0.3,4.1,0.9l-0.8,1.9c-1.3-0.5-2.4-0.8-3.4-0.8
				c-0.8,0-1.3,0.2-1.7,0.5c-0.4,0.3-0.6,0.8-0.6,1.3c0,0.4,0.1,0.7,0.2,1c0.2,0.3,0.4,0.5,0.8,0.8s1,0.6,2,0.9
				c1.1,0.4,1.8,0.9,2.3,1.2s0.9,0.8,1.1,1.3C302.9,45.9,303,46.5,303,47.1z"/>
			<path class="st3" d="M314.1,47.1c0,1.3-0.5,2.3-1.4,3s-2.2,1.1-3.8,1.1s-3-0.3-4-0.8v-2.2c0.7,0.3,1.4,0.6,2.1,0.7
				c0.7,0.2,1.4,0.3,2.1,0.3c0.9,0,1.6-0.2,2.1-0.5s0.7-0.8,0.7-1.4c0-0.5-0.2-1-0.6-1.4s-1.3-0.8-2.5-1.3c-1.3-0.5-2.2-1.1-2.8-1.8
				c-0.5-0.7-0.8-1.5-0.8-2.5c0-1.2,0.4-2.2,1.3-2.8c0.9-0.7,2-1,3.5-1c1.4,0,2.8,0.3,4.1,0.9l-0.8,1.9c-1.3-0.5-2.4-0.8-3.4-0.8
				c-0.8,0-1.3,0.2-1.7,0.5c-0.4,0.3-0.6,0.8-0.6,1.3c0,0.4,0.1,0.7,0.2,1c0.2,0.3,0.4,0.5,0.8,0.8s1,0.6,2,0.9
				c1.1,0.4,1.8,0.9,2.3,1.2s0.9,0.8,1.1,1.3C314,45.9,314.1,46.5,314.1,47.1z"/>
			<path class="st3" d="M325.9,51l-1.4-4H319l-1.4,4H315l5.4-14.5h2.6l5.4,14.5H325.9z M323.1,35.4c-0.3,0-0.5-0.1-0.8-0.2
				s-0.5-0.2-0.8-0.4s-0.5-0.3-0.8-0.4c-0.2-0.1-0.5-0.2-0.7-0.2c-0.5,0-0.9,0.4-1.1,1.1h-1.2c0.1-0.9,0.3-1.6,0.8-2.1
				c0.4-0.5,1-0.7,1.7-0.7c0.3,0,0.6,0.1,0.8,0.2s0.5,0.2,0.8,0.4c0.3,0.1,0.5,0.3,0.7,0.4s0.5,0.2,0.7,0.2c0.5,0,0.9-0.4,1-1.1h1.2
				c-0.1,0.9-0.3,1.6-0.8,2.1S323.8,35.4,323.1,35.4z M323.8,45l-1.4-3.9c-0.1-0.3-0.2-0.7-0.4-1.2s-0.3-1-0.4-1.2
				c-0.2,0.8-0.4,1.7-0.8,2.7l-1.3,3.8h4.3V45z"/>
			<path class="st3" d="M343.2,43.8c0,2.4-0.6,4.2-1.8,5.5c-1.2,1.3-2.8,2-5,2s-3.9-0.6-5-1.9c-1.2-1.3-1.8-3.1-1.8-5.5
				s0.6-4.2,1.8-5.5c1.2-1.3,2.9-1.9,5-1.9c2.2,0,3.8,0.6,5,1.9C342.6,39.6,343.2,41.4,343.2,43.8z M332.1,43.8
				c0,1.8,0.4,3.1,1.1,4.1c0.7,0.9,1.8,1.4,3.2,1.4c1.4,0,2.5-0.5,3.2-1.4s1.1-2.3,1.1-4.1c0-1.8-0.4-3.1-1.1-4s-1.8-1.4-3.2-1.4
				c-1.4,0-2.5,0.5-3.2,1.4C332.5,40.7,332.1,42,332.1,43.8z"/>
		</g>
	</g>
</g>
<g id="Camada_2_1_">
</g>
</svg>
