<?xml version="1.0" encoding="utf-8"?>
<!-- Generator: Adobe Illustrator 24.3.0, SVG Export Plug-In . SVG Version: 6.00 Build 0)  -->
<svg version="1.1" id="Camada_1" xmlns="http://www.w3.org/2000/svg" xmlns:xlink="http://www.w3.org/1999/xlink" x="0px" y="0px"
	 viewBox="0 0 479 88" style="enable-background:new 0 0 479 88;" xml:space="preserve">
<style type="text/css">
	.st0{fill:#46B5C3;}
	.st1{fill:#94CFD3;}
	.st2{enable-background:new    ;}
	.st3{fill:#FFFFFF;}
</style>
<g id="Camada_1_1_">
	<path class="st0" d="M444.1,74.3H56.4c-16.7,0-30.3-13.6-30.3-30.3l0,0c0-16.7,13.6-30.3,30.3-30.3h387.7
		c16.7,0,30.3,13.6,30.3,30.3l0,0C474.4,60.8,460.8,74.3,444.1,74.3z"/>
	<path class="st1" d="M440.1,67H104.2c-12.6,0-23-10.3-23-23l0,0c0-12.6,10.3-23,23-23H440c12.6,0,23,10.3,23,23l0,0
		C463.1,56.7,452.7,67,440.1,67z"/>
	<circle class="st1" cx="39.3" cy="44" r="34.7"/>
	<g>
		<g class="st2">
			<g>
				<path class="st3" d="M29.1,31.6l-0.9-2.4h-3.3l-0.8,2.4h-1.5l3.2-8.7h1.6l3.2,8.7H29.1z M27.9,27.9l-0.8-2.4
					c-0.1-0.2-0.1-0.4-0.2-0.7c-0.1-0.3-0.2-0.6-0.2-0.7c-0.1,0.5-0.3,1-0.5,1.6L25.4,28h2.5V27.9z"/>
				<path class="st3" d="M38.6,22.9v5.6c0,0.6-0.1,1.2-0.4,1.7s-0.7,0.9-1.2,1.1s-1.1,0.4-1.9,0.4c-1.1,0-1.9-0.3-2.5-0.9
					c-0.6-0.6-0.9-1.4-0.9-2.4v-5.6h1.4v5.5c0,0.7,0.2,1.2,0.5,1.6c0.3,0.3,0.8,0.5,1.5,0.5c1.3,0,2-0.7,2-2.1v-5.5h1.5V22.9z"/>
				<path class="st3" d="M40.8,31.6v-8.7h1.4v7.5h3.7v1.2H40.8z"/>
				<path class="st3" d="M52.8,31.6l-0.9-2.4h-3.3l-0.8,2.4h-1.5l3.2-8.7H51l3.2,8.7H52.8z M51.5,27.9l-0.8-2.4
					c-0.1-0.2-0.1-0.4-0.2-0.7c-0.1-0.3-0.2-0.6-0.2-0.7c-0.1,0.5-0.3,1-0.5,1.6L49,28h2.5V27.9z"/>
			</g>
		</g>
		<g>
			<path class="st3" d="M37.2,52c0,4.5-0.7,7.9-2.2,10.1c-1.5,2.2-3.8,3.3-6.9,3.3c-3,0-5.3-1.1-6.8-3.4c-1.5-2.3-2.3-5.6-2.3-10
				c0-4.6,0.7-8,2.2-10.2s3.8-3.3,6.9-3.3c3,0,5.3,1.1,6.8,3.4C36.4,44.3,37.2,47.7,37.2,52z M24.4,52c0,3.2,0.3,5.5,0.8,6.9
				c0.6,1.4,1.5,2.1,2.8,2.1s2.2-0.7,2.8-2.1c0.6-1.4,0.9-3.7,0.9-6.8c0-3.2-0.3-5.5-0.9-6.9c-0.6-1.4-1.5-2.1-2.8-2.1
				s-2.2,0.7-2.8,2.1S24.4,48.9,24.4,52z"/>
			<path class="st3" d="M58.1,65.1H39.9v-3.8l6.5-6.6c1.9-2,3.2-3.4,3.8-4.1c0.6-0.8,1-1.5,1.3-2.1s0.4-1.3,0.4-2
				c0-1-0.3-1.8-0.9-2.3s-1.3-0.8-2.3-0.8s-2,0.2-2.9,0.7c-1,0.5-1.9,1.1-3,2l-3-3.5c1.3-1.1,2.3-1.9,3.2-2.3c0.8-0.5,1.8-0.8,2.8-1
				s2.1-0.4,3.3-0.4c1.6,0,3.1,0.3,4.3,0.9c1.2,0.6,2.2,1.4,2.9,2.5c0.7,1.1,1,2.3,1,3.7c0,1.2-0.2,2.3-0.6,3.4s-1.1,2.1-2,3.2
				c-0.9,1.1-2.4,2.7-4.7,4.7l-3.3,3.2v0.2H58L58.1,65.1L58.1,65.1z"/>
		</g>
	</g>
	<g class="st2">
		<g>
			<path class="st3" d="M100.1,45.3v5.8h-2.4V36.6h4.1c1.9,0,3.2,0.3,4.1,1s1.3,1.8,1.3,3.2c0,1.8-0.9,3.1-2.8,3.8l4.1,6.4h-2.7
				l-3.4-5.7H100.1z M100.1,43.3h1.6c1.1,0,1.9-0.2,2.4-0.6c0.5-0.4,0.7-1,0.7-1.8s-0.3-1.4-0.8-1.8c-0.5-0.4-1.3-0.5-2.4-0.5H100
				v4.7H100.1z"/>
			<path class="st3" d="M118.8,51.1h-8.2V36.6h8.2v2H113v3.9h5.5v2H113V49h5.8V51.1z"/>
			<path class="st3" d="M133.7,43.7c0,2.4-0.7,4.2-2,5.5s-3.2,1.9-5.7,1.9h-4V36.6h4.5c2.3,0,4.1,0.6,5.4,1.9
				C133.1,39.7,133.7,41.5,133.7,43.7z M131.2,43.8c0-3.5-1.6-5.2-4.9-5.2h-2v10.5h1.7C129.5,49.1,131.2,47.3,131.2,43.8z"/>
			<path class="st3" d="M136.8,51.1V36.6h2.4v14.5H136.8z"/>
			<path class="st3" d="M148.9,43.2h5.3v7.3c-0.9,0.3-1.7,0.5-2.5,0.6s-1.7,0.2-2.6,0.2c-2.2,0-3.9-0.6-5.1-1.9
				c-1.2-1.3-1.8-3.1-1.8-5.5c0-2.3,0.7-4.2,2-5.5s3.2-2,5.5-2c1.5,0,2.9,0.3,4.3,0.9l-0.8,2c-1.2-0.5-2.3-0.8-3.5-0.8
				c-1.5,0-2.8,0.5-3.7,1.5s-1.3,2.3-1.3,4c0,1.8,0.4,3.1,1.2,4s2,1.4,3.5,1.4c0.8,0,1.6-0.1,2.5-0.3v-3.8h-3L148.9,43.2L148.9,43.2
				z"/>
			<path class="st3" d="M157.7,51.1V36.6h2.4v14.5H157.7z"/>
			<path class="st3" d="M176,51.1h-2.9L166,39.6h-0.1v0.6c0.1,1.2,0.1,2.3,0.1,3.4v7.5h-2.1V36.6h2.9l7.1,11.5h0.1
				c0-0.2,0-0.7-0.1-1.7s-0.1-1.7-0.1-2.2v-7.6h2.2L176,51.1L176,51.1z"/>
			<path class="st3" d="M191.5,43.7c0,2.4-0.7,4.2-2,5.5s-3.2,1.9-5.7,1.9h-4V36.6h4.5c2.3,0,4.1,0.6,5.4,1.9
				C190.9,39.7,191.5,41.5,191.5,43.7z M189.1,43.8c0-3.5-1.6-5.2-4.9-5.2h-2v10.5h1.7C187.3,49.1,189.1,47.3,189.1,43.8z"/>
			<path class="st3" d="M207.5,43.8c0,2.4-0.6,4.2-1.8,5.5s-2.8,2-5,2s-3.9-0.6-5-1.9c-1.2-1.3-1.8-3.1-1.8-5.5s0.6-4.2,1.8-5.5
				s2.9-1.9,5-1.9c2.2,0,3.8,0.6,5,1.9C206.9,39.6,207.5,41.5,207.5,43.8z M196.5,43.8c0,1.8,0.4,3.1,1.1,4.1
				c0.7,0.9,1.8,1.4,3.2,1.4s2.5-0.5,3.2-1.4s1.1-2.3,1.1-4.1s-0.4-3.1-1.1-4c-0.7-0.9-1.8-1.4-3.2-1.4s-2.5,0.5-3.2,1.4
				C196.8,40.7,196.5,42,196.5,43.8z"/>
			<path class="st3" d="M224.8,51.1l-1.4-4h-5.5l-1.4,4H214l5.4-14.5h2.6l5.4,14.5H224.8z M222.8,45l-1.4-3.9
				c-0.1-0.3-0.2-0.7-0.4-1.2s-0.3-1-0.4-1.2c-0.2,0.8-0.4,1.7-0.8,2.7l-1.3,3.8h4.3V45z"/>
			<path class="st3" d="M240.8,51.1L236.6,39h-0.1c0.1,1.8,0.2,3.5,0.2,5v7h-2.1V36.5h3.3l4,11.5h0.1l4.1-11.5h3.3V51h-2.3v-7.2
				c0-0.7,0-1.7,0.1-2.8s0.1-1.9,0.1-2.1h-0.1L242.9,51h-2.1V51.1z"/>
			<path class="st3" d="M261.4,51.1h-8.2V36.6h8.2v2h-5.8v3.9h5.5v2h-5.5V49h5.8V51.1z"/>
			<path class="st3" d="M269.5,51.1h-2.4V38.7h-4.3v-2h10.9v2h-4.3L269.5,51.1L269.5,51.1z"/>
			<path class="st3" d="M288.9,43.8c0,2.4-0.6,4.2-1.8,5.5c-1.2,1.3-2.8,2-5,2s-3.9-0.6-5-1.9c-1.2-1.3-1.8-3.1-1.8-5.5
				s0.6-4.2,1.8-5.5s2.9-1.9,5-1.9c2.2,0,3.8,0.6,5,1.9C288.3,39.6,288.9,41.5,288.9,43.8z M277.8,43.8c0,1.8,0.4,3.1,1.1,4.1
				c0.7,0.9,1.8,1.4,3.2,1.4c1.4,0,2.5-0.5,3.2-1.4s1.1-2.3,1.1-4.1s-0.4-3.1-1.1-4s-1.8-1.4-3.2-1.4c-1.4,0-2.5,0.5-3.2,1.4
				S277.8,42,277.8,43.8z"/>
			<path class="st3" d="M303.7,43.7c0,2.4-0.7,4.2-2,5.5s-3.2,1.9-5.7,1.9h-4V36.6h4.5c2.3,0,4.1,0.6,5.4,1.9
				C303.1,39.7,303.7,41.5,303.7,43.7z M301.2,43.8c0-3.5-1.6-5.2-4.9-5.2h-2v10.5h1.7C299.5,49.1,301.2,47.3,301.2,43.8z"/>
			<path class="st3" d="M319.7,43.8c0,2.4-0.6,4.2-1.8,5.5c-1.2,1.3-2.8,2-5,2s-3.9-0.6-5-1.9c-1.2-1.3-1.8-3.1-1.8-5.5
				s0.6-4.2,1.8-5.5s2.9-1.9,5-1.9c2.2,0,3.8,0.6,5,1.9C319.1,39.6,319.7,41.5,319.7,43.8z M308.6,43.8c0,1.8,0.4,3.1,1.1,4.1
				c0.7,0.9,1.8,1.4,3.2,1.4c1.4,0,2.5-0.5,3.2-1.4s1.1-2.3,1.1-4.1s-0.4-3.1-1.1-4s-1.8-1.4-3.2-1.4c-1.4,0-2.5,0.5-3.2,1.4
				S308.6,42,308.6,43.8z"/>
			<path class="st3" d="M322.8,51.1V36.6h2.4V49h6.1v2h-8.5V51.1z"/>
			<path class="st3" d="M346.6,43.8c0,2.4-0.6,4.2-1.8,5.5c-1.2,1.3-2.8,2-5,2s-3.9-0.6-5-1.9c-1.2-1.3-1.8-3.1-1.8-5.5
				s0.6-4.2,1.8-5.5s2.9-1.9,5-1.9c2.2,0,3.8,0.6,5,1.9C346,39.6,346.6,41.5,346.6,43.8z M335.6,43.8c0,1.8,0.4,3.1,1.1,4.1
				c0.7,0.9,1.8,1.4,3.2,1.4c1.4,0,2.5-0.5,3.2-1.4s1.1-2.3,1.1-4.1s-0.4-3.1-1.1-4s-1.8-1.4-3.2-1.4c-1.4,0-2.5,0.5-3.2,1.4
				C335.9,40.7,335.6,42,335.6,43.8z"/>
			<path class="st3" d="M355.6,43.2h5.3v7.3c-0.9,0.3-1.7,0.5-2.5,0.6s-1.7,0.2-2.6,0.2c-2.2,0-3.9-0.6-5.1-1.9
				c-1.2-1.3-1.8-3.1-1.8-5.5c0-2.3,0.7-4.2,2-5.5s3.2-2,5.5-2c1.5,0,2.9,0.3,4.3,0.9l-0.8,2c-1.2-0.5-2.3-0.8-3.5-0.8
				c-1.5,0-2.8,0.5-3.7,1.5c-0.9,1-1.3,2.3-1.3,4c0,1.8,0.4,3.1,1.2,4c0.8,0.9,2,1.4,3.5,1.4c0.8,0,1.6-0.1,2.5-0.3v-3.8h-3V43.2z"
				/>
			<path class="st3" d="M364.4,51.1V36.6h2.4v14.5H364.4z"/>
			<path class="st3" d="M379.6,51.1l-1.4-4h-5.5l-1.4,4h-2.5l5.4-14.5h2.6l5.4,14.5H379.6z M377.5,45l-1.4-3.9
				c-0.1-0.3-0.2-0.7-0.4-1.2s-0.3-1-0.4-1.2c-0.2,0.8-0.4,1.7-0.8,2.7l-1.3,3.8h4.3V45z"/>
		</g>
	</g>
</g>
<g id="Camada_2_1_">
</g>
</svg>
