<svg xmlns="http://www.w3.org/2000/svg" xmlns:xlink="http://www.w3.org/1999/xlink" viewBox="0 0 888.78 71.5"><defs><style>.cls-1,.cls-4,.cls-5,.cls-6{isolation:isolate;}.cls-1{fill:url(#Gradiente_sem_nome_6);}.cls-2{fill:#fff;}.cls-3{fill:#46b5c3;}.cls-4{fill:#7cb8af;}.cls-5{fill:#ffac5a;}.cls-6{fill:#08536a;}</style><linearGradient id="Gradiente_sem_nome_6" x1="843.22" y1="-26.57" x2="69.63" y2="94.64" gradientUnits="userSpaceOnUse"><stop offset="0" stop-color="#fac496"/><stop offset="0.24" stop-color="#f4d7b7"/><stop offset="0.64" stop-color="#ecf4e8"/><stop offset="0.84" stop-color="#e9fffb"/></linearGradient></defs><g id="Camada_2" data-name="Camada 2"><g id="BG_Cursos_3a"><rect class="cls-1" y="0.37" width="888.61" height="71.13"/><g id="S_mbolo_8_0_Layer0_0_MEMBER_1_FILL" data-name="S mbolo 8 0 Layer0 0 MEMBER 1 FILL"><path class="cls-2" d="M869.54,0V.27a.37.37,0,0,0,.36.37h15.7A.38.38,0,0,0,886,.27V0Z"/><path class="cls-2" d="M878.1,18.75c1.7,0,3.39,0,5.08-.07h.07a.36.36,0,0,0,.34-.22.37.37,0,0,0-.07-.4L868.16,2.38l.28,0,14.39,14.72a.36.36,0,0,0,.26.11h5.69V16.5h-5.54L868.87,1.8a.36.36,0,0,0-.23-.11l-2-.16h22.1V.8h-31a.35.35,0,0,0-.36.35.28.28,0,0,0,0,.18c-1.61-.18-2.91-.36-3.91-.53a.38.38,0,0,0-.29.08.34.34,0,0,0-.13.28v15.7a.35.35,0,0,0,.32.36c6.94.7,12.69,1.17,17.11,1.39C873,18.7,875.57,18.75,878.1,18.75ZM853.84,1.59c1.6.25,3.89.53,6.8.82a61.34,61.34,0,0,0,7,.5L882.4,18c-3.93.09-7.91.06-11.83-.09-4.33-.22-10-.67-16.73-1.35Z"/><path class="cls-2" d="M884.12,18.84a98.37,98.37,0,0,1-15.4-.07.36.36,0,0,0-.4.36,93.75,93.75,0,0,0,1.3,14.14.37.37,0,0,0,.36.3H885.6a.36.36,0,0,0,.28-.12.36.36,0,0,0,.08-.3c-.43-2.84-.92-7.54-1.45-14A.37.37,0,0,0,884.12,18.84Zm-13.83,14a92.81,92.81,0,0,1-1.23-13.31,98.88,98.88,0,0,0,14.75.07c.5,6,1,10.41,1.37,13.24Z"/><path class="cls-2" d="M886,17.31h-2a.36.36,0,0,0-.26.61l1,1a53.46,53.46,0,0,0,.32,5.8,49.59,49.59,0,0,0,.58,5.16.38.38,0,0,0,.36.28h0a.37.37,0,0,0,.32-.37V17.67A.36.36,0,0,0,886,17.31Zm-.37,5.54a35.14,35.14,0,0,1-.16-4,.35.35,0,0,0-.1-.27L884.9,18h.74Z"/></g><g id="S_mbolo_8_0_Layer0_0_MEMBER_1_FILL-2" data-name="S mbolo 8 0 Layer0 0 MEMBER 1 FILL"><path class="cls-2" d="M838,22.12h-5.89A.14.14,0,0,1,832,22a36.17,36.17,0,0,1-.49-5.33.12.12,0,0,1,0-.1.12.12,0,0,1,.1,0,37.32,37.32,0,0,0,5.81,0,.14.14,0,0,1,.15.13c.2,2.42.39,4.2.55,5.27a.14.14,0,0,1,0,.11A.16.16,0,0,1,838,22.12Zm-5.78-.28h5.62c-.15-1.07-.32-2.75-.51-5a36.8,36.8,0,0,1-5.57,0A36,36,0,0,0,832.23,21.84Zm5.94-1a.15.15,0,0,1-.14-.11c-.06-.27-.13-.91-.22-1.94s-.13-1.77-.12-2.19l-.36-.39a.16.16,0,0,1,0-.15.13.13,0,0,1,.12-.08h.74a.13.13,0,0,1,.13.14V20.7a.14.14,0,0,1-.12.14Zm-.42-4.58.18.19a.13.13,0,0,1,0,.1,11.51,11.51,0,0,0,.06,1.52V16.26Zm-2.57.26c-.95,0-1.91,0-2.85-.05-1.67-.08-3.84-.26-6.46-.52a.14.14,0,0,1-.12-.14V9.89a.16.16,0,0,1,0-.11.11.11,0,0,1,.11,0c.37.06.87.13,1.47.2a.15.15,0,0,1,0-.07.13.13,0,0,1,.13-.13h16.62a.14.14,0,0,1,.14.14v5.92a.14.14,0,0,1-.14.14h-7a.15.15,0,0,1-.1,0l-5.43-5.56h-.11l5.8,5.92a.14.14,0,0,1-.1.23h0C836.46,16.52,835.82,16.52,835.18,16.52ZM826,15.69c2.56.25,4.69.42,6.32.5s3,.07,4.47,0l-5.57-5.69a20.75,20.75,0,0,1-2.65-.18c-1.1-.11-2-.22-2.57-.31Zm11.1,0H844V10H830.87l.74.06a.2.2,0,0,1,.09.05Zm.89-6h-5.92a.14.14,0,0,1-.14-.14V3.81a.14.14,0,0,1,.14-.14H838a.14.14,0,0,1,.14.14V9.55A.14.14,0,0,1,838,9.69Zm-5.78-.28h5.65V3.94h-5.65Z"/></g><g id="S_mbolo_8_0_Layer0_0_MEMBER_1_FILL-3" data-name="S mbolo 8 0 Layer0 0 MEMBER 1 FILL"><path class="cls-2" d="M819.73,33.61h-3.87a.08.08,0,0,1-.08-.08,24.27,24.27,0,0,1-.33-3.49.09.09,0,0,1,0-.07.07.07,0,0,1,.07,0,25.34,25.34,0,0,0,3.81,0,.09.09,0,0,1,.1.08c.13,1.59.25,2.75.36,3.45a.19.19,0,0,1,0,.08A.11.11,0,0,1,819.73,33.61Zm-3.79-.18h3.68c-.1-.7-.21-1.8-.34-3.28a24.47,24.47,0,0,1-3.64,0A22.72,22.72,0,0,0,815.94,33.43Zm3.89-.66a.1.1,0,0,1-.09-.07,11.4,11.4,0,0,1-.14-1.28,11.28,11.28,0,0,1-.08-1.43l-.24-.25a.12.12,0,0,1,0-.1.11.11,0,0,1,.09-.05h.48a.09.09,0,0,1,.09.09v3a.11.11,0,0,1-.08.09Zm-.28-3,.12.12a.11.11,0,0,1,0,.07,8.12,8.12,0,0,0,0,1V29.77Zm-1.68.17c-.62,0-1.25,0-1.87,0-1.09-.06-2.51-.17-4.23-.34a.11.11,0,0,1-.08-.09V25.59a.11.11,0,0,1,0-.07l.08,0c.24.05.57.09,1,.14,0,0,0,0,0-.05a.09.09,0,0,1,.09-.09h10.89a.09.09,0,0,1,.09.09v3.89a.09.09,0,0,1-.09.09h-4.62a.09.09,0,0,1-.07,0l-3.56-3.64h-.07l3.8,3.88a.1.1,0,0,1,0,.1.1.1,0,0,1-.08.06h-1.28Zm-6-.55c1.68.17,3.07.28,4.14.34s2,0,2.93,0L815.29,26a14.79,14.79,0,0,1-1.74-.12c-.71-.07-1.28-.14-1.68-.2Zm7.27,0h4.5V25.68h-8.59l.48,0s0,0,.06,0Zm.59-3.93h-3.88a.09.09,0,0,1-.09-.09V21.61a.09.09,0,0,1,.09-.09h3.88a.09.09,0,0,1,.09.09v3.76A.09.09,0,0,1,819.73,25.46Zm-3.79-.18h3.7V21.7h-3.7Z"/></g><g id="S_mbolo_8_0_Layer0_0_MEMBER_1_FILL-4" data-name="S mbolo 8 0 Layer0 0 MEMBER 1 FILL"><path class="cls-2" d="M807.76,18h-1.68s0,0,0,0a10.35,10.35,0,0,1-.14-1.52,0,0,0,0,1,0,0h0a10.15,10.15,0,0,0,1.66,0,0,0,0,0,1,0,0q.09,1,.15,1.5s0,0,0,0Zm-1.65-.08h1.6c0-.3-.09-.78-.15-1.42a10.41,10.41,0,0,1-1.58,0A10.27,10.27,0,0,0,806.11,17.93Zm1.69-.28s0,0,0,0a4.13,4.13,0,0,1-.06-.55c0-.3,0-.51,0-.63l-.1-.11a.06.06,0,0,1,0,0l0,0h.21a0,0,0,0,1,0,0v1.3a0,0,0,0,1,0,0Zm-.12-1.31.05.06a0,0,0,0,1,0,0,4,4,0,0,0,0,.43v-.52Zm-.73.08h-.81l-1.84-.15s0,0,0,0V14.53a0,0,0,0,1,0,0h0l.42.06v0a0,0,0,0,1,0,0h4.72a0,0,0,0,1,0,0v1.69a0,0,0,0,1,0,0h-2l-1.55-1.58h0l1.65,1.69s0,0,0,0a.05.05,0,0,1,0,0H807Zm-2.61-.24c.73.08,1.34.12,1.8.15s.85,0,1.27,0l-1.58-1.62a7.23,7.23,0,0,1-.76-.05l-.73-.09Zm3.16,0h2V14.57h-3.73l.21,0h0Zm.26-1.7h-1.69a0,0,0,0,1,0,0V12.8a0,0,0,0,1,0,0h1.69s0,0,0,0v1.64S807.78,14.48,807.76,14.48Zm-1.65-.08h1.61V12.84h-1.61Z"/></g><g id="S_mbolo_8_0_Layer0_0_MEMBER_1_FILL-5" data-name="S mbolo 8 0 Layer0 0 MEMBER 1 FILL"><path class="cls-2" d="M834.15,33h-1.68a0,0,0,0,1,0,0,10.1,10.1,0,0,1-.14-1.51.1.1,0,0,1,0,0h0a11.41,11.41,0,0,0,1.66,0s0,0,0,0c.06.69.11,1.2.16,1.5,0,0,0,0,0,0Zm-1.65-.08h1.6c0-.31-.09-.78-.15-1.42a11.81,11.81,0,0,1-1.58,0A10.55,10.55,0,0,0,832.5,32.91Zm1.69-.29s0,0,0,0a4.13,4.13,0,0,1-.06-.55c0-.29,0-.5,0-.62l-.1-.11a0,0,0,0,1,0,0s0,0,0,0h.21a0,0,0,0,1,0,0v1.3a0,0,0,0,1,0,0Zm-.12-1.3,0,.05a0,0,0,0,1,0,0c0,.09,0,.24,0,.44v-.52Zm-.73.07h-.81c-.47,0-1.09-.07-1.84-.15,0,0,0,0,0,0V29.51s0,0,0,0h0l.42.05v0s0,0,0,0h4.72s0,0,0,0v1.68a0,0,0,0,1,0,0h-2l-1.55-1.58h0l1.65,1.68s0,0,0,0,0,0,0,0h-.55Zm-2.6-.23c.72.07,1.33.12,1.79.14s.85,0,1.27,0l-1.58-1.62a5,5,0,0,1-.75-.05l-.73-.09Zm3.15,0h2v-1.6h-3.5Zm.26-1.7h-1.69a0,0,0,0,1,0,0V27.78a0,0,0,0,1,0,0h1.69a0,0,0,0,1,0,0v1.63A0,0,0,0,1,834.15,29.45Zm-1.65-.08h1.61V27.82H832.5Z"/></g><g id="S_mbolo_8_0_Layer0_0_MEMBER_1_FILL-6" data-name="S mbolo 8 0 Layer0 0 MEMBER 1 FILL"><path class="cls-2" d="M857.19,59.47a80.05,80.05,0,0,1-12.62-.06.27.27,0,0,0-.23.08.28.28,0,0,0-.1.22,77.48,77.48,0,0,0,1,11.33h13.41c-.34-2.34-.73-6.14-1.16-11.29A.31.31,0,0,0,857.19,59.47ZM845.85,71a77.28,77.28,0,0,1-1-10.92,80.82,80.82,0,0,0,12.09.06c.41,4.89.79,8.53,1.13,10.86Z"/><path class="cls-2" d="M832,58.15c5.68.57,10.4,1,14,1.13q3.09.12,6.2.12c1.39,0,2.78,0,4.16-.06h.07a.28.28,0,0,0,.27-.18.29.29,0,0,0-.06-.33L844.1,46l.24,0,11.79,12.06a.33.33,0,0,0,.21.09h15.33a.3.3,0,0,0,.29-.3V45a.3.3,0,0,0-.29-.3H835.58a.31.31,0,0,0-.3.29.37.37,0,0,0,0,.15c-1.32-.15-2.39-.3-3.2-.43a.32.32,0,0,0-.25.06.33.33,0,0,0-.1.23V57.85A.31.31,0,0,0,832,58.15Zm39.33-12.87V57.55h-14.9l-11.78-12a.34.34,0,0,0-.19-.09l-1.61-.13Zm-39,0c1.32.21,3.19.44,5.57.68a49.19,49.19,0,0,0,5.75.4l12.09,12.35c-3.22.07-6.48,0-9.7-.08-3.54-.17-8.16-.55-13.71-1.1Z"/><path class="cls-2" d="M845.53,44.55H858.4a.29.29,0,0,0,.3-.3V31.78a.3.3,0,0,0-.3-.3H845.53a.3.3,0,0,0-.29.3V44.25A.29.29,0,0,0,845.53,44.55Zm.3-12.47H858.1V44H845.83Z"/><path class="cls-2" d="M858,64.31a41,41,0,0,0,.47,4.22.3.3,0,0,0,.29.23h0a.29.29,0,0,0,.26-.3V58.51a.3.3,0,0,0-.3-.3h-1.59a.29.29,0,0,0-.27.18.31.31,0,0,0,0,.33l.78.83A44,44,0,0,0,858,64.31Zm.47-5.5v3.95a28.43,28.43,0,0,1-.14-3.3.25.25,0,0,0-.08-.22l-.39-.43Z"/></g><g id="S_mbolo_8_0_Layer0_0_MEMBER_1_FILL-7" data-name="S mbolo 8 0 Layer0 0 MEMBER 1 FILL"><path class="cls-2" d="M869.54,0V.27a.37.37,0,0,0,.36.37h15.7A.38.38,0,0,0,886,.27V0Z"/><path class="cls-2" d="M878.1,18.75c1.7,0,3.39,0,5.08-.07h.07a.36.36,0,0,0,.34-.22.37.37,0,0,0-.07-.4L868.16,2.38l.28,0,14.39,14.72a.36.36,0,0,0,.26.11h5.69V16.5h-5.54L868.87,1.8a.36.36,0,0,0-.23-.11l-2-.16h22.1V.8h-31a.35.35,0,0,0-.36.35.28.28,0,0,0,0,.18c-1.61-.18-2.91-.36-3.91-.53a.38.38,0,0,0-.29.08.34.34,0,0,0-.13.28v15.7a.35.35,0,0,0,.32.36c6.94.7,12.69,1.17,17.11,1.39C873,18.7,875.57,18.75,878.1,18.75ZM853.84,1.59c1.6.25,3.89.53,6.8.82a61.34,61.34,0,0,0,7,.5L882.4,18c-3.93.09-7.91.06-11.83-.09-4.33-.22-10-.67-16.73-1.35Z"/><path class="cls-2" d="M884.12,18.84a98.37,98.37,0,0,1-15.4-.07.36.36,0,0,0-.4.36,93.75,93.75,0,0,0,1.3,14.14.37.37,0,0,0,.36.3H885.6a.36.36,0,0,0,.28-.12.36.36,0,0,0,.08-.3c-.43-2.84-.92-7.54-1.45-14A.37.37,0,0,0,884.12,18.84Zm-13.83,14a92.81,92.81,0,0,1-1.23-13.31,98.88,98.88,0,0,0,14.75.07c.5,6,1,10.41,1.37,13.24Z"/><path class="cls-2" d="M886,17.31h-2a.36.36,0,0,0-.26.61l1,1a53.46,53.46,0,0,0,.32,5.8,49.59,49.59,0,0,0,.58,5.16.38.38,0,0,0,.36.28h0a.37.37,0,0,0,.32-.37V17.67A.36.36,0,0,0,886,17.31Zm-.37,5.54a35.14,35.14,0,0,1-.16-4,.35.35,0,0,0-.1-.27L884.9,18h.74Z"/></g><g id="S_mbolo_8_0_Layer0_0_MEMBER_1_FILL-8" data-name="S mbolo 8 0 Layer0 0 MEMBER 1 FILL"><path class="cls-2" d="M838,22.12h-5.89A.14.14,0,0,1,832,22a36.17,36.17,0,0,1-.49-5.33.12.12,0,0,1,0-.1.12.12,0,0,1,.1,0,37.32,37.32,0,0,0,5.81,0,.14.14,0,0,1,.15.13c.2,2.42.39,4.2.55,5.27a.14.14,0,0,1,0,.11A.16.16,0,0,1,838,22.12Zm-5.78-.28h5.62c-.15-1.07-.32-2.75-.51-5a36.8,36.8,0,0,1-5.57,0A36,36,0,0,0,832.23,21.84Zm5.94-1a.15.15,0,0,1-.14-.11c-.06-.27-.13-.91-.22-1.94s-.13-1.77-.12-2.19l-.36-.39a.16.16,0,0,1,0-.15.13.13,0,0,1,.12-.08h.74a.13.13,0,0,1,.13.14V20.7a.14.14,0,0,1-.12.14Zm-.42-4.58.18.19a.13.13,0,0,1,0,.1,11.51,11.51,0,0,0,.06,1.52V16.26Zm-2.57.26c-.95,0-1.91,0-2.85-.05-1.67-.08-3.84-.26-6.46-.52a.14.14,0,0,1-.12-.14V9.89a.16.16,0,0,1,0-.11.11.11,0,0,1,.11,0c.37.06.87.13,1.47.2a.15.15,0,0,1,0-.07.13.13,0,0,1,.13-.13h16.62a.14.14,0,0,1,.14.14v5.92a.14.14,0,0,1-.14.14h-7a.15.15,0,0,1-.1,0l-5.43-5.56h-.11l5.8,5.92a.14.14,0,0,1-.1.23h0C836.46,16.52,835.82,16.52,835.18,16.52ZM826,15.69c2.56.25,4.69.42,6.32.5s3,.07,4.47,0l-5.57-5.69a20.75,20.75,0,0,1-2.65-.18c-1.1-.11-2-.22-2.57-.31Zm11.1,0H844V10H830.87l.74.06a.2.2,0,0,1,.09.05Zm.89-6h-5.92a.14.14,0,0,1-.14-.14V3.81a.14.14,0,0,1,.14-.14H838a.14.14,0,0,1,.14.14V9.55A.14.14,0,0,1,838,9.69Zm-5.78-.28h5.65V3.94h-5.65Z"/></g><g id="S_mbolo_8_0_Layer0_0_MEMBER_1_FILL-9" data-name="S mbolo 8 0 Layer0 0 MEMBER 1 FILL"><path class="cls-2" d="M819.73,33.61h-3.87a.08.08,0,0,1-.08-.08,24.27,24.27,0,0,1-.33-3.49.09.09,0,0,1,0-.07.07.07,0,0,1,.07,0,25.34,25.34,0,0,0,3.81,0,.09.09,0,0,1,.1.08c.13,1.59.25,2.75.36,3.45a.19.19,0,0,1,0,.08A.11.11,0,0,1,819.73,33.61Zm-3.79-.18h3.68c-.1-.7-.21-1.8-.34-3.28a24.47,24.47,0,0,1-3.64,0A22.72,22.72,0,0,0,815.94,33.43Zm3.89-.66a.1.1,0,0,1-.09-.07,11.4,11.4,0,0,1-.14-1.28,11.28,11.28,0,0,1-.08-1.43l-.24-.25a.12.12,0,0,1,0-.1.11.11,0,0,1,.09-.05h.48a.09.09,0,0,1,.09.09v3a.11.11,0,0,1-.08.09Zm-.28-3,.12.12a.11.11,0,0,1,0,.07,8.12,8.12,0,0,0,0,1V29.77Zm-1.68.17c-.62,0-1.25,0-1.87,0-1.09-.06-2.51-.17-4.23-.34a.11.11,0,0,1-.08-.09V25.59a.11.11,0,0,1,0-.07l.08,0c.24.05.57.09,1,.14,0,0,0,0,0-.05a.09.09,0,0,1,.09-.09h10.89a.09.09,0,0,1,.09.09v3.89a.09.09,0,0,1-.09.09h-4.62a.09.09,0,0,1-.07,0l-3.56-3.64h-.07l3.8,3.88a.1.1,0,0,1,0,.1.1.1,0,0,1-.08.06h-1.28Zm-6-.55c1.68.17,3.07.28,4.14.34s2,0,2.93,0L815.29,26a14.79,14.79,0,0,1-1.74-.12c-.71-.07-1.28-.14-1.68-.2Zm7.27,0h4.5V25.68h-8.59l.48,0s0,0,.06,0Zm.59-3.93h-3.88a.09.09,0,0,1-.09-.09V21.61a.09.09,0,0,1,.09-.09h3.88a.09.09,0,0,1,.09.09v3.76A.09.09,0,0,1,819.73,25.46Zm-3.79-.18h3.7V21.7h-3.7Z"/></g><g id="S_mbolo_8_0_Layer0_0_MEMBER_1_FILL-10" data-name="S mbolo 8 0 Layer0 0 MEMBER 1 FILL"><path class="cls-2" d="M807.76,18h-1.68s0,0,0,0a10.35,10.35,0,0,1-.14-1.52,0,0,0,0,1,0,0h0a10.15,10.15,0,0,0,1.66,0,0,0,0,0,1,0,0q.09,1,.15,1.5s0,0,0,0Zm-1.65-.08h1.6c0-.3-.09-.78-.15-1.42a10.41,10.41,0,0,1-1.58,0A10.27,10.27,0,0,0,806.11,17.93Zm1.69-.28s0,0,0,0a4.13,4.13,0,0,1-.06-.55c0-.3,0-.51,0-.63l-.1-.11a.06.06,0,0,1,0,0l0,0h.21a0,0,0,0,1,0,0v1.3a0,0,0,0,1,0,0Zm-.12-1.31.05.06a0,0,0,0,1,0,0,4,4,0,0,0,0,.43v-.52Zm-.73.08h-.81l-1.84-.15s0,0,0,0V14.53a0,0,0,0,1,0,0h0l.42.06v0a0,0,0,0,1,0,0h4.72a0,0,0,0,1,0,0v1.69a0,0,0,0,1,0,0h-2l-1.55-1.58h0l1.65,1.69s0,0,0,0a.05.05,0,0,1,0,0H807Zm-2.61-.24c.73.08,1.34.12,1.8.15s.85,0,1.27,0l-1.58-1.62a7.23,7.23,0,0,1-.76-.05l-.73-.09Zm3.16,0h2V14.57h-3.73l.21,0h0Zm.26-1.7h-1.69a0,0,0,0,1,0,0V12.8a0,0,0,0,1,0,0h1.69s0,0,0,0v1.64S807.78,14.48,807.76,14.48Zm-1.65-.08h1.61V12.84h-1.61Z"/></g><g id="S_mbolo_8_0_Layer0_0_MEMBER_1_FILL-11" data-name="S mbolo 8 0 Layer0 0 MEMBER 1 FILL"><path class="cls-2" d="M834.15,33h-1.68a0,0,0,0,1,0,0,10.1,10.1,0,0,1-.14-1.51.1.1,0,0,1,0,0h0a11.41,11.41,0,0,0,1.66,0s0,0,0,0c.06.69.11,1.2.16,1.5,0,0,0,0,0,0Zm-1.65-.08h1.6c0-.31-.09-.78-.15-1.42a11.81,11.81,0,0,1-1.58,0A10.55,10.55,0,0,0,832.5,32.91Zm1.69-.29s0,0,0,0a4.13,4.13,0,0,1-.06-.55c0-.29,0-.5,0-.62l-.1-.11a0,0,0,0,1,0,0s0,0,0,0h.21a0,0,0,0,1,0,0v1.3a0,0,0,0,1,0,0Zm-.12-1.3,0,.05a0,0,0,0,1,0,0c0,.09,0,.24,0,.44v-.52Zm-.73.07h-.81c-.47,0-1.09-.07-1.84-.15,0,0,0,0,0,0V29.51s0,0,0,0h0l.42.05v0s0,0,0,0h4.72s0,0,0,0v1.68a0,0,0,0,1,0,0h-2l-1.55-1.58h0l1.65,1.68s0,0,0,0,0,0,0,0h-.55Zm-2.6-.23c.72.07,1.33.12,1.79.14s.85,0,1.27,0l-1.58-1.62a5,5,0,0,1-.75-.05l-.73-.09Zm3.15,0h2v-1.6h-3.5Zm.26-1.7h-1.69a0,0,0,0,1,0,0V27.78a0,0,0,0,1,0,0h1.69a0,0,0,0,1,0,0v1.63A0,0,0,0,1,834.15,29.45Zm-1.65-.08h1.61V27.82H832.5Z"/></g><g id="S_mbolo_8_0_Layer0_0_MEMBER_1_FILL-12" data-name="S mbolo 8 0 Layer0 0 MEMBER 1 FILL"><path class="cls-2" d="M857.19,59.47a80.05,80.05,0,0,1-12.62-.06.27.27,0,0,0-.23.08.28.28,0,0,0-.1.22,77.48,77.48,0,0,0,1,11.33h13.41c-.34-2.34-.73-6.14-1.16-11.29A.31.31,0,0,0,857.19,59.47ZM845.85,71a77.28,77.28,0,0,1-1-10.92,80.82,80.82,0,0,0,12.09.06c.41,4.89.79,8.53,1.13,10.86Z"/><path class="cls-2" d="M832,58.15c5.68.57,10.4,1,14,1.13q3.09.12,6.2.12c1.39,0,2.78,0,4.16-.06h.07a.28.28,0,0,0,.27-.18.29.29,0,0,0-.06-.33L844.1,46l.24,0,11.79,12.06a.33.33,0,0,0,.21.09h15.33a.3.3,0,0,0,.29-.3V45a.3.3,0,0,0-.29-.3H835.58a.31.31,0,0,0-.3.29.37.37,0,0,0,0,.15c-1.32-.15-2.39-.3-3.2-.43a.32.32,0,0,0-.25.06.33.33,0,0,0-.1.23V57.85A.31.31,0,0,0,832,58.15Zm39.33-12.87V57.55h-14.9l-11.78-12a.34.34,0,0,0-.19-.09l-1.61-.13Zm-39,0c1.32.21,3.19.44,5.57.68a49.19,49.19,0,0,0,5.75.4l12.09,12.35c-3.22.07-6.48,0-9.7-.08-3.54-.17-8.16-.55-13.71-1.1Z"/><path class="cls-2" d="M845.53,44.55H858.4a.29.29,0,0,0,.3-.3V31.78a.3.3,0,0,0-.3-.3H845.53a.3.3,0,0,0-.29.3V44.25A.29.29,0,0,0,845.53,44.55Zm.3-12.47H858.1V44H845.83Z"/><path class="cls-2" d="M858,64.31a41,41,0,0,0,.47,4.22.3.3,0,0,0,.29.23h0a.29.29,0,0,0,.26-.3V58.51a.3.3,0,0,0-.3-.3h-1.59a.29.29,0,0,0-.27.18.31.31,0,0,0,0,.33l.78.83A44,44,0,0,0,858,64.31Zm.47-5.5v3.95a28.43,28.43,0,0,1-.14-3.3.25.25,0,0,0-.08-.22l-.39-.43Z"/></g><rect class="cls-3" x="36.45" y="20.8" width="13.2" height="33.87"/><rect class="cls-4" x="64.37" y="20.8" width="13.2" height="33.87"/><polygon class="cls-5" points="49.68 18.44 49.68 20.8 49.68 54.67 49.68 57.03 64.34 57.03 64.34 54.67 64.34 20.8 64.34 18.44 49.68 18.44"/><path class="cls-2" d="M67.8,48.93v-.19c0-.13,0-.25,0-.38s0-.14,0-.21,0-.14,0-.2a2.44,2.44,0,0,1,0-.27c0-.08,0-.16,0-.24s0-.14,0-.21a1.77,1.77,0,0,0,0-.23c0-.16,0-.32,0-.48a3,3,0,0,1,0-.6,2.17,2.17,0,0,1,.07-.24c0-.07,0-.14.07-.22s.09-.19.12-.28.11-.19.16-.29l.06-.11a.25.25,0,0,1,0-.07.15.15,0,0,0,0-.06v0s0,0,0,0a.41.41,0,0,0,0-.11.3.3,0,0,0,0-.13.68.68,0,0,1,0-.14v-.32a1.5,1.5,0,0,0,0-.2v-.2a2.19,2.19,0,0,1,0-.36v-.18c0-.06,0-.12,0-.19s0-.14,0-.22a2.7,2.7,0,0,1,0-.28,2.25,2.25,0,0,0,0-.26c0-.06,0-.11,0-.16a.86.86,0,0,1,0-.16l-.09-.57c0-.1,0-.19-.05-.29s0-.31-.06-.47a2.33,2.33,0,0,1,0-.37c0-.07,0-.15,0-.22a.76.76,0,0,1,0-.3,1.29,1.29,0,0,1,0-.19,1.72,1.72,0,0,0,.07-.21.76.76,0,0,0,0-.16,1.34,1.34,0,0,0,0-.2c0-.14,0-.27-.07-.41s0-.08,0-.13a.5.5,0,0,0,0-.12V37.9a.15.15,0,0,0,0-.07v-.08a1.51,1.51,0,0,1,0-.3c0-.1,0-.22,0-.32a2.5,2.5,0,0,1,.09-.49.9.9,0,0,0,0-.16l0-.13,0-.24a.55.55,0,0,0,0-.18.51.51,0,0,1,0-.13.56.56,0,0,1,0-.13,1.1,1.1,0,0,0,0-.18v-.17c0-.09,0-.2-.07-.25L68.16,35,68,34.93s-.1,0-.14-.06l-.13-.1a.3.3,0,0,1-.08-.16,1.2,1.2,0,0,1,0-.19,1.79,1.79,0,0,0,0-.23s0,0,0-.07,0,0,0-.06,0,0-.07-.06l0,0-.06,0-.16-.13a.75.75,0,0,1-.16-.15,1.15,1.15,0,0,1-.14-.17.25.25,0,0,1,0-.09.41.41,0,0,1,0-.09s0,0,0-.08l0,0,0-.54a1.53,1.53,0,0,1-.07-.29s0-.09,0-.14,0-.06,0-.1a1,1,0,0,1,0-.18s0-.05,0-.08,0-.06,0-.09a1.36,1.36,0,0,0,0-.17s0-.08,0-.11a1.22,1.22,0,0,0,0-.17s0-.08,0-.12a.78.78,0,0,1,0-.14c0-.1,0-.2,0-.31a4.43,4.43,0,0,0,0-.52c0-.11,0-.23,0-.34a2.51,2.51,0,0,0,0-.27,1.94,1.94,0,0,1,0-.24c0-.07,0-.14,0-.21v-.12s0-.08,0-.12a.58.58,0,0,1,0-.18l.07-.15a1.3,1.3,0,0,0,.08-.17c0-.05,0-.09,0-.14s0-.06,0-.08a.28.28,0,0,0,0-.09s0-.07,0-.1,0-.06,0-.09,0-.05,0-.08a.52.52,0,0,1,0-.11.84.84,0,0,1,.06-.14.34.34,0,0,1,.09-.12l.08-.1.08-.08.13-.12.23-.22a1.22,1.22,0,0,1,.25-.2,1.24,1.24,0,0,1,.23-.17l.18-.11.11,0,.12,0a3.15,3.15,0,0,1,.42-.09l.17,0,.17-.07.08-.06s0,0,0-.06,0-.1,0-.15a.08.08,0,0,1,0-.05l.1-.05c.06,0,.11,0,.14-.1s0-.09.1-.11l.08,0,.09-.06s.11,0,.12-.1,0,0,0,0,0-.05,0-.08,0-.09,0-.13v-.06s0-.06,0-.07l0,0a.13.13,0,0,1-.08,0L70,25a.24.24,0,0,1-.06-.08.19.19,0,0,1,0-.15.15.15,0,0,0,0-.07l0-.09,0-.07a.24.24,0,0,1,0-.08c0-.05,0-.11,0-.11s-.21-.12-.25-.25a.71.71,0,0,1,.07-.35s0,0,0,0,0,0,0,0,0-.06,0-.08a.22.22,0,0,1,0-.16l0-.05a.17.17,0,0,0,0-.07.28.28,0,0,1,0-.09.42.42,0,0,1,0-.12l.08-.09.07-.07a.21.21,0,0,0,0-.08.49.49,0,0,1,0-.12.53.53,0,0,1,.11-.21.52.52,0,0,1,.18-.15s.06,0,.07,0l.06-.07a.45.45,0,0,1,.19-.14.67.67,0,0,1,.19-.05h.12s0,0,0,0a.21.21,0,0,1,.1-.06l.1-.05a.25.25,0,0,1,.12,0h.15l.08.05s0,.05.06.06.06,0,.08,0l.13,0A.26.26,0,0,1,72,22l0,0s0,0,0,0,0,0,.08,0a.85.85,0,0,1,.22,0s.07,0,.08,0a0,0,0,0,1,0,0s0,0,0,0,0,0,.07,0l.11,0h.09a.16.16,0,0,1,.1,0,.07.07,0,0,1,.07,0,.19.19,0,0,1,0,.08.11.11,0,0,0,0,.08s0,.05.06.08,0,0,0,.07a.1.1,0,0,0,0,.08.13.13,0,0,1,0,.08s0,0,.06,0,0,.05,0,.08,0,0,0,.06l.06.17c0,.05,0,.09,0,.14l.06.24a.08.08,0,0,1,0,0,.11.11,0,0,1,0,.06l-.07.14a.61.61,0,0,0,0,.12s0,.07,0,.12,0,.07,0,.11a.41.41,0,0,0,0,.11.29.29,0,0,0,0,.1s.05.07.08.11l0,.05s0,0,0,0l0,.05s0,0,0,.06.12.11.1.18a.17.17,0,0,1-.06.1,0,0,0,0,1,0,0h0l0,.05-.11,0-.11,0s0,0,0,.06v.06s0,.08,0,.11.09.12.06.2a.17.17,0,0,1,0,.05v.05s0,0,0,.06l0,.05a.86.86,0,0,0-.07.1.43.43,0,0,1,0,.05s0,0,0,0a.13.13,0,0,1,0,.06s0,0,0,.06A.27.27,0,0,1,73,26s-.07,0-.1.05l-.06,0h-.5s0,.08.06.12,0,.08.1.09.08,0,.1,0,0,.08,0,.12a.26.26,0,0,0,0,.1l0,0,.08.05a1.51,1.51,0,0,0,.26.12l.07,0,.06,0,.17,0,.17.06.1,0,.11,0,.08.05.09,0,.07,0s0,0,.09,0,.09.06.14.08l.15.09.06.06a.27.27,0,0,1,.08.07.6.6,0,0,1,.08.16.85.85,0,0,1,.06.17c0,.07,0,.15,0,.22a1.15,1.15,0,0,1,.06.17l.06.18,0,.13s0,0,0,.06,0,0,0,.07v.07a.29.29,0,0,1,0,.09s0,.06,0,.09l0,.09a1.25,1.25,0,0,0,0,.19.88.88,0,0,0,0,.16.33.33,0,0,0,0,.15.11.11,0,0,0,.06,0l.07.05a.41.41,0,0,1,.15.25.52.52,0,0,1,0,.18v.1s0,.06,0,.09a.93.93,0,0,0,0,.13,1.48,1.48,0,0,0,.08.13l.1.17c0,.07,0,.15.07.22a1.34,1.34,0,0,1,.07.18s0,.05,0,.07,0,.06,0,.09l.09.35c0,.06,0,.14,0,.21s0,.11,0,.16,0,.11,0,.17,0,.06,0,.08a.34.34,0,0,1,0,.1.5.5,0,0,1,0,.21,1.6,1.6,0,0,1,0,.21s0,.09,0,.14a.83.83,0,0,0,0,.15.7.7,0,0,1,0,.14s0,.1,0,.15a.16.16,0,0,0,0,.1.43.43,0,0,0,0,.11.67.67,0,0,1,0,.2l-.06.22a.94.94,0,0,1-.12.22,1.17,1.17,0,0,0,0,.11l0,.05s0,0,0,.06l0,0,0,.05-.06,0a.75.75,0,0,0-.07.12l-.09.14a1,1,0,0,1-.09.18l0,0s0,0,0,.07a.26.26,0,0,0,0,.1s0,0,0,.08,0,.08-.06.11-.17.13-.24.21-.13.14-.08.22l.06.08,0,0s0,0,0,0l0,0a.1.1,0,0,1,0,.05.29.29,0,0,1,0,.13v.08s0,0,0,.07a.66.66,0,0,0,0,.14v.51c.06.23.11.48.18.71a1.52,1.52,0,0,1,0,.21.28.28,0,0,1,0,.09.19.19,0,0,1,0,.07s0,.1,0,.15l-.06.2a1.05,1.05,0,0,1-.05.19.61.61,0,0,0,0,.11,1.35,1.35,0,0,0,0,.4,2.3,2.3,0,0,1,0,.26c0,.09,0,.18,0,.27v.21s0,0,0,.06v.11s0,0,0,.08v.38s0,.06,0,.09a.75.75,0,0,0,0,.15v1s0,.11,0,.16,0,.33,0,.5,0,.07,0,.1a.76.76,0,0,0,0,.15v.12s0,.11,0,.17v1.95a.43.43,0,0,0,0,.11.85.85,0,0,1,0,.16c0,.13,0,.25,0,.37s0,.46,0,.68v.29c0,.12,0,.24,0,.36s0,.16,0,.24a.59.59,0,0,0,0,.13v.12c0,.16,0,.31,0,.46s0,.09,0,.14a1.77,1.77,0,0,1,0,.23v.17a.78.78,0,0,1,0,.16,1.28,1.28,0,0,1-.07.28c0,.08-.11.15-.12.23a.34.34,0,0,0,0,.1V49s0,.05,0,.08a.4.4,0,0,0,0,.11.75.75,0,0,1,0,.15,1,1,0,0,0,0,.17,1.1,1.1,0,0,1,0,.16,1.22,1.22,0,0,1,0,.17.88.88,0,0,1,0,.15,1.71,1.71,0,0,0-.13.23,1.53,1.53,0,0,0-.07.29s0,.1,0,.14a.76.76,0,0,1,0,.15l0,.17a1.21,1.21,0,0,0,0,.18.71.71,0,0,1-.08.18,1,1,0,0,1-.06.16l-.06.14s0,0,0,.07,0,0,0,.07l-.09.29s0,0,0,0l0,0a.41.41,0,0,1,0,.11,1,1,0,0,0,0,.1s0,.08,0,.09l0,0h0l.11,0h.22a.21.21,0,0,1,.08.06.34.34,0,0,1,.08.09,1.37,1.37,0,0,0,.19.23l.11.09.11.1.27.16.13.1.09,0,.06.07a.11.11,0,0,1,0,.08.17.17,0,0,1-.06.08.08.08,0,0,1-.08,0h-.16a1.34,1.34,0,0,0-.2,0h-1l-.11,0h-.32l-.07,0-.18,0a.14.14,0,0,1-.09,0,.05.05,0,0,1-.05,0s0,0,0,0l0,0s0,0,0,0-.07,0-.08,0a.55.55,0,0,0-.14.12.2.2,0,0,1-.16.11h-.67l-.1,0s0,0,0,0l0,0,0,0,0,0s0,0-.06-.08,0,0,0-.06v0a.27.27,0,0,0,0-.09.15.15,0,0,0-.06-.14s-.07,0-.09-.07a.24.24,0,0,1,0-.08s0-.06,0-.1v-.13a1,1,0,0,1,0-.17s0-.1,0-.15a1.2,1.2,0,0,1,0-.19s0,0,0-.05a.27.27,0,0,0,0-.09,3,3,0,0,1,.14-.84,2.81,2.81,0,0,0,.08-.31l.07-.25.07-.34s0,0,0-.07a.13.13,0,0,0,0-.06v-.08s0,0,0-.08a.21.21,0,0,0,0-.08.31.31,0,0,0,0-.08,1.15,1.15,0,0,0,0-.18s0-.06,0-.09a.57.57,0,0,1,0-.13s0-.08,0-.13v-.12c0-.1,0-.2,0-.3a3,3,0,0,1,0-.43,1.1,1.1,0,0,0,0-.18c0-.05,0-.1,0-.14s0-.11,0-.16,0-.12,0-.18,0-.2,0-.3a1.11,1.11,0,0,1,0-.17s0-.09,0-.14a.68.68,0,0,0,0-.14.53.53,0,0,0,0-.13c0-.08,0-.15,0-.22s-.06-.3-.08-.45,0,0,0-.08v0s0-.06,0-.09a.25.25,0,0,1,0-.12,1,1,0,0,1,0-.3.54.54,0,0,1,.11-.18s0,0,0-.06,0,0,0-.06a.28.28,0,0,0,0-.09.05.05,0,0,1,0,0s0,0,0,0a.25.25,0,0,0,0-.07s0-.06,0-.09,0-.06,0-.09a.53.53,0,0,1,0-.13.13.13,0,0,1,0-.09s0-.06,0-.1a.93.93,0,0,1,0-.23,2.13,2.13,0,0,1,0-.25,1.27,1.27,0,0,0,0-.77,1.55,1.55,0,0,1-.07-.23,1.66,1.66,0,0,0-.06-.21,1.09,1.09,0,0,1-.05-.26,2.56,2.56,0,0,1,0-.27,2.83,2.83,0,0,1,0-.29c0-.1,0-.2,0-.29l0-.53a.23.23,0,0,0,0,.14s0,.08,0,.13,0,.07,0,.11a.14.14,0,0,1,0,.06s0,.06,0,.09,0,.11-.07.16l0,.09a.06.06,0,0,0,0,0s0,0,0,0l-.06.19a1.17,1.17,0,0,0-.06.2s0,.1,0,.15a1.08,1.08,0,0,0,0,.18v.27a.77.77,0,0,1,0,.15s0,.07,0,.1a.76.76,0,0,1,0,.15c0,.1,0,.19,0,.29s0,.16,0,.24l0,.28a2,2,0,0,0,0,.24s0,.08,0,.12,0,.06,0,.09a.28.28,0,0,0,0,.09l0,.1c0,.06,0,.12,0,.18s0,0,0,.08a.22.22,0,0,0,0,.08,1.09,1.09,0,0,0,0,.18v.08s0,.06,0,.09,0,.06,0,.08a.4.4,0,0,1,0,.11s0,.06,0,.1v.12a1.62,1.62,0,0,1,0,.22c0,.1,0,.2,0,.3a.49.49,0,0,0,0,.12,1.1,1.1,0,0,1,0,.18,2.46,2.46,0,0,0,0,.28c0,.05,0,.09,0,.14a.86.86,0,0,0,0,.16,1.93,1.93,0,0,0,0,.24c0,.05,0,.1,0,.16s0,.09,0,.14a.34.34,0,0,1,0,.1s0,.07,0,.11a.85.85,0,0,1,0,.16c0,.12,0,.26,0,.38s0,.06,0,.08V49s0,.1,0,.15,0,.26-.07.39-.06.2-.09.31a1.43,1.43,0,0,0-.07.28,1.43,1.43,0,0,1,0,.22s0,.07,0,.11a.24.24,0,0,0,0,.08l-.1.43a.2.2,0,0,0,0,.11s0,.09,0,.13,0,.09,0,.13a1,1,0,0,1,0,.18,1.31,1.31,0,0,0-.06.27.66.66,0,0,1,0,.15s0,.1,0,.14l-.09.22a2.26,2.26,0,0,1-.13.2,1,1,0,0,1-.16.19l-.08.07-.06.06-.07,0c-.07,0-.12.09-.18.13l-.08,0a.18.18,0,0,0-.06.09.29.29,0,0,0,0,.16v.08s0,.06,0,.1,0,.06,0,.1,0,0,0,.07,0,0-.07,0l-.11,0a1.39,1.39,0,0,1-.19.06.38.38,0,0,0-.1,0h-.38a.27.27,0,0,0-.09,0l-.09,0-.09,0H68l-.1,0a.84.84,0,0,1-.14-.06.15.15,0,0,1-.1-.12c0-.14,0-.28,0-.42a1.1,1.1,0,0,0,0-.18.14.14,0,0,1,0-.09v-.11a.19.19,0,0,0,0-.08s0-.06,0-.08a.36.36,0,0,1,0-.1.08.08,0,0,1,0,0,.2.2,0,0,1,0-.07.61.61,0,0,0-.09-.18.26.26,0,0,0,0-.09L67.35,52a.48.48,0,0,1-.07-.23.43.43,0,0,1,0-.16,2.48,2.48,0,0,1,0-.27,2.29,2.29,0,0,0,.07-.28.36.36,0,0,1,0-.11s0-.09,0-.12l.07-.11a.07.07,0,0,0,0,0s0,0,0,0,0-.1.05-.14a1,1,0,0,0,.06-.16,2.68,2.68,0,0,1,.07-.27l0-.12a.59.59,0,0,1,0-.13s0-.05,0-.07,0,0,0-.07v-.36"/><path class="cls-2" d="M53.68,41c0-.21,0-.4,0-.61s0-.53-.05-.8,0-.55-.08-.83a6.31,6.31,0,0,1-.08-.76,5,5,0,0,1,.06-1.22c0-.13.05-.27.06-.4a1,1,0,0,0,0-.17c-.06,0-.16,0-.21,0s0-.23.08-.3c.11-.23.23-.44.36-.66a.66.66,0,0,0,.09-.19.2.2,0,0,0-.13-.32,1.46,1.46,0,0,1-.44-.16.93.93,0,0,1-.22-.47,1.64,1.64,0,0,1,0-.66,4.39,4.39,0,0,0,0-.63,2.48,2.48,0,0,0,0-.39c0-.11,0-.23-.06-.34a4.54,4.54,0,0,1-.05-1c0-.25,0-.49.05-.74s0-.21,0-.32,0-.32,0-.49,0-.64,0-1c0-.13,0-.27,0-.41s0-.33,0-.49a1,1,0,0,1,.11-.48,1.1,1.1,0,0,0,.09-.14c0-.05,0-.11.06-.15a.56.56,0,0,1,.29-.21c.1,0,.2-.05.26-.16s0-.1.07-.14a.55.55,0,0,1,.25-.1c.12,0,.23,0,.3-.13l.12-.15a1.81,1.81,0,0,1-.3-.32c0-.05,0-.06,0-.11s-.07-.12-.1-.17,0-.12,0-.18-.11,0-.15-.06,0-.18,0-.26a.21.21,0,0,1-.18-.1c0-.1.05-.18.09-.25a.21.21,0,0,1-.13-.05.24.24,0,0,1,0-.26.78.78,0,0,1,.2-.24c.05,0,.09,0,.1-.09a.44.44,0,0,0,0-.1.44.44,0,0,1,0-.28.45.45,0,0,1,.16-.28s.07,0,.08-.07a.55.55,0,0,1-.11-.41.5.5,0,0,1,.14-.36l.23-.2-.06-.06c-.08-.13.07-.34.14-.44a1.37,1.37,0,0,1,.39-.33s.08,0,.09-.07,0,0,0-.07.17-.3.28-.39a1.62,1.62,0,0,1,.68-.31c0-.27.42-.39.64-.43a.4.4,0,0,1,.38.08s0,.07.07.09.15,0,.17,0a1.59,1.59,0,0,1,.38,0c.1,0,.2.1.21.21a1.15,1.15,0,0,0,0,.18c0,.05,0,.05.09.06a.7.7,0,0,1,.37.14.32.32,0,0,1,.13.15s0,.12,0,.14l.15,0a.68.68,0,0,1,.38.21.37.37,0,0,1,0,.23s0,.07,0,.11c.21.06.54.16.46.45,0,.06,0,.12,0,.17s.08.07.11.09.16.09.2.2a.42.42,0,0,1,0,.38c0,.05,0,.06,0,.12s.08.08.11.15a.6.6,0,0,1,.06.22.57.57,0,0,1-.14.38c.14,0,.25.21.26.33a.37.37,0,0,1-.08.29s-.05,0,0,.1a1.51,1.51,0,0,1,.09.18.38.38,0,0,1,0,.21c0,.09-.07.11-.1.18s0,.08,0,.12a.28.28,0,0,1,0,.28s-.15.11-.15.16,0,0,.08,0l.08,0,.11,0s0,0,.09,0,.17,0,.22,0,0,.12.13.14a.32.32,0,0,0,.14,0c.09,0,.17,0,.26,0a.48.48,0,0,1,.35.1c.06.05,0,.12,0,.19s0,.22.06.32a.17.17,0,0,1,0,.19.4.4,0,0,0-.07.2s0,.05,0,.07.06.23.09.34c.09.34.21.66.29,1,0,.16.1.31.14.47s.06.3.08.45,0,.33.08.5.09.46.13.69a12.17,12.17,0,0,1,0,1.91.81.81,0,0,1,0,.27,1.71,1.71,0,0,1-.21.26c-.14.16-.27.32-.42.47a2.46,2.46,0,0,0-.36.58.35.35,0,0,0-.08.16s0,0,0,.09a3.7,3.7,0,0,0,.29.47l.15.19c.08.14-.06.2-.14.3a.2.2,0,0,0-.06.21.47.47,0,0,1,0,.31c-.07.19-.23.35-.29.54a.47.47,0,0,0,0,.17c0,.06.06.11.07.17a.9.9,0,0,1,0,.23.7.7,0,0,0,0,.14,5.57,5.57,0,0,1,0,1c0,.54,0,1.09,0,1.63s0,.92,0,1.38c0,.09,0,.19,0,.28a.17.17,0,0,1,0,.14.38.38,0,0,1-.35.14l0,.49a10,10,0,0,0,0,1.34c0,.11,0,.21,0,.32a2.41,2.41,0,0,0,.08.25,2,2,0,0,0,.2.31c.08.12.14.27.21.4a6.69,6.69,0,0,1,.27.67c.08.2.13.42.19.62a7.85,7.85,0,0,1,.22,1,6,6,0,0,1,0,.61,5.36,5.36,0,0,1,.05.7c0,.21,0,.42,0,.63s0,.31,0,.47c0,.4,0,.8.05,1.2,0,.15,0,.31,0,.46s0,.27.06.41a4,4,0,0,0,.17.68,4.49,4.49,0,0,1,.19.72c0,.25,0,.5,0,.75s0,.19,0,.3a1.63,1.63,0,0,0,0,.31,3.33,3.33,0,0,0,.11.53c0,.12.07.23.1.36s.06.24,0,.32a1.25,1.25,0,0,1-.24.16c-.09.05-.18.05-.26.1a.92.92,0,0,1-.57.23.58.58,0,0,1-.25-.12,1.82,1.82,0,0,0-.23-.15,1,1,0,0,1-.2-.15c-.09-.07-.07-.17-.07-.28a1.13,1.13,0,0,1,0-.18.66.66,0,0,0,0-.14v-.2c0-.1,0-.18,0-.28a2.71,2.71,0,0,1,0-.4c0-.11,0-.22,0-.34A4.8,4.8,0,0,0,60.9,53a2.89,2.89,0,0,1,0-.29c0-.06,0-.12,0-.18a3.68,3.68,0,0,1,.07-.58,1.5,1.5,0,0,0-.12-.88,6.73,6.73,0,0,0-.38-.76c-.11-.19-.2-.39-.29-.58a5,5,0,0,1-.34-.83,5.3,5.3,0,0,1-.14-1c0-.13,0-.25-.05-.37s0-.19,0-.28a5.93,5.93,0,0,0-.13-.86,3.79,3.79,0,0,0-.39-.78c-.1-.16-.18-.33-.29-.49s-.13-.19-.2-.29a2.86,2.86,0,0,1-.21-.43,4,4,0,0,1-.26-.76,4.05,4.05,0,0,1-.12-.47,3,3,0,0,0-.12-.6,2.74,2.74,0,0,1-.11-.57l-1,.1a1,1,0,0,0-.12.56c0,.22,0,.44,0,.66V44.5a3.23,3.23,0,0,1-.1.82c0,.18-.11.36-.16.55a1.33,1.33,0,0,0,0,.21,2.3,2.3,0,0,0,0,.26.5.5,0,0,0,0,.17c0,.07,0,.13,0,.2s0,.28.06.42a3.94,3.94,0,0,1,0,.84c0,.17,0,.34,0,.51a3.41,3.41,0,0,0,0,.55c0,.31-.07.61-.09.92s0,.35-.06.53a1.47,1.47,0,0,1,0,.21c0,.09,0,.17,0,.26s0,.23,0,.35a.52.52,0,0,0,0,.21.64.64,0,0,0,.08.14,1.56,1.56,0,0,1,.14.33c0,.21.08.42.11.63a1.41,1.41,0,0,1,0,.41l0,.48c0,.15,0,.29,0,.44v.37a2,2,0,0,0,.05.49,1.81,1.81,0,0,1,0,.23,1.09,1.09,0,0,1,0,.18v.15a.11.11,0,0,1-.06.12,1.12,1.12,0,0,1-.29.19l-.14.08-.06,0-.12.07a.41.41,0,0,1-.29,0c-.13,0-.27-.08-.39-.14l-.14-.1L55,55.51l-.07,0a.31.31,0,0,1-.19-.25,6.87,6.87,0,0,1,.08-1.19c.06-.29.06-.59.13-.88a2.69,2.69,0,0,0,.11-.62c0-.17.06-.34.06-.51a3.09,3.09,0,0,0,0-.53c0-.08,0-.15,0-.23a2.36,2.36,0,0,1,0-.28,3.25,3.25,0,0,0-.15-.4c-.07-.18-.15-.37-.21-.56a3.92,3.92,0,0,1-.15-.59c0-.09,0-.18-.07-.27a3,3,0,0,1-.06-.42c-.06-.43-.15-.86-.18-1.3a7.38,7.38,0,0,1,0-1.41c0-.32.06-.65.12-1a4.87,4.87,0,0,0,0-.66c0-.18,0-.35,0-.53a4.36,4.36,0,0,0,0-.51l-.06-.5c0-.11-.06-.22-.08-.33l-.06-.25,0-.09a.41.41,0,0,0,0-.11h0l-.41,0Z"/><path class="cls-2" d="M44.37,26.83c0-.09.11-.21.06-.31s-.06-.05-.06-.09.15.05.19.06.15,0,.22,0h.06s0,0,0,0l.15-.07a1,1,0,0,0,.29-.26.28.28,0,0,0,0-.13c0-.05,0-.06-.08-.1s0-.16,0-.26a.49.49,0,0,0,0-.12s-.05-.07-.06-.11,0-.07,0-.11a.31.31,0,0,0-.07-.09A.47.47,0,0,0,45,25.1c0-.05,0-.08,0-.14a.43.43,0,0,0,0-.16.14.14,0,0,0,0-.11c-.08-.11-.18-.18-.2-.32v-.1s0-.08,0-.11a.66.66,0,0,0,0-.15.62.62,0,0,0-.1-.22c0-.06-.11-.14-.17-.2l-.1-.07-.08-.07s0,0-.07,0a.31.31,0,0,0-.09-.07,3.14,3.14,0,0,0-.51-.12c-.1,0-.18,0-.27,0a1.2,1.2,0,0,0-.27,0,.75.75,0,0,0-.3,0,2,2,0,0,0-1,1c-.12.25-.25.51-.38.76l-.08.16a.31.31,0,0,0-.07.09c0,.05-.06.12,0,.17s0,.06.08.1a.85.85,0,0,1,.06.17.37.37,0,0,1,0,.15,1.25,1.25,0,0,1,0,.19.78.78,0,0,0,0,.16c0,.09.06.12.1.18s.06.2.15.27.24.1.34.19a1.13,1.13,0,0,1,.25.29.18.18,0,0,1,0,.1.36.36,0,0,0,0,.15c0,.1,0,.22.15.26s.15,0,.2.12a.21.21,0,0,1,0,.1s0,0,0,.05v0s0,0,0,0-.3,0-.37.06a.42.42,0,0,0-.14.09.15.15,0,0,0,0,.19,2.56,2.56,0,0,0,.11.24s.08.16,0,.19a1.05,1.05,0,0,1-.19.05,1,1,0,0,1-.17,0l-.29.05a2.37,2.37,0,0,0-.4.15l-.19.12c-.07.06-.15.1-.22.15a1.93,1.93,0,0,0-.28.36,3.21,3.21,0,0,0-.21.3,4.59,4.59,0,0,0-.24.5,5.52,5.52,0,0,0-.31.8c-.07.22-.14.45-.22.67a5.14,5.14,0,0,1-.2.55,1.37,1.37,0,0,1-.13.2s-.1.1-.09.15a.26.26,0,0,1,.12,0l.19.07.2.08.12,0A.76.76,0,0,1,40,33c.06,0,0,.09,0,.16a2.53,2.53,0,0,0,0,.87,1.14,1.14,0,0,1-.08.52s-.05.06-.07.1,0,.14-.07.16l-.17.83c0,.26-.09.51-.13.76l-.09.79a5.88,5.88,0,0,0,0,.73c0,.12,0,.24,0,.36a1.51,1.51,0,0,1,0,.3,2.33,2.33,0,0,1-.07.53c0,.13-.07.26-.12.39s-.06.2-.1.3L39,40a.48.48,0,0,0,0,.45,1,1,0,0,1,.11.25,2,2,0,0,0,0,.23c0,.11.15.16.24.19a.45.45,0,0,0,.16,0c.06,0,.1.06.16.06v0l.1.07a.83.83,0,0,1,0,.22c0,.21,0,.42-.07.63a4.61,4.61,0,0,1-.17.9,3.27,3.27,0,0,0-.17,1.16c0,.42.11.84.13,1.26,0,.19,0,.39,0,.58v.43c0,.28,0,.56,0,.83a2.29,2.29,0,0,1,0,.37.81.81,0,0,1-.07.22,2.83,2.83,0,0,0-.17.65,1.7,1.7,0,0,0,0,.39c0,.13,0,.25,0,.38a2.38,2.38,0,0,1,0,.46c0,.17,0,.34,0,.51a1.65,1.65,0,0,1,0,.32l-.07.19a1.15,1.15,0,0,0,0,.41,2.45,2.45,0,0,0,0,.39.24.24,0,0,1,0,.17.29.29,0,0,0,0,.18,1.21,1.21,0,0,1,0,.19.49.49,0,0,1-.08.21l-.15.11a3.17,3.17,0,0,1-.85.35,1.15,1.15,0,0,0-.32.14,1.82,1.82,0,0,0-.35.27c-.07.06-.21.16-.14.26l.09.1c.07.06.15.1.22.15a.72.72,0,0,0,.35.11,2,2,0,0,0,.77-.07,6.69,6.69,0,0,1,.77-.2,4.34,4.34,0,0,1,.52-.07c.13,0,.26,0,.4,0l.48-.07a.31.31,0,0,1,.17,0c.1,0,.11.05.17,0a1.29,1.29,0,0,0,.12-.38.36.36,0,0,0,0-.18c0-.07-.06-.13-.08-.19s.09,0,.13,0l.3,0c.07,0,.08,0,.1-.08a.68.68,0,0,0,0-.2,5.82,5.82,0,0,1,.13-.92,3,3,0,0,1,.06-.43c0-.14,0-.28,0-.42s.08-.25.1-.39a2.43,2.43,0,0,0,.05-.6,5.45,5.45,0,0,1,0-1.21c.06-.45.16-.89.26-1.34s.22-.81.33-1.21.12-.54.18-.81a3.8,3.8,0,0,0,.05-.46,3.54,3.54,0,0,1,.07-.47A4.86,4.86,0,0,1,43,43.4c.06-.19.13-.38.2-.57s.13,0,.14.05,0,.12,0,.18a2.58,2.58,0,0,1,0,.39,2.88,2.88,0,0,0,.14.71c0,.12.09.25.12.38s0,.24,0,.36a1.34,1.34,0,0,0,.1.45.74.74,0,0,1,.09.33.88.88,0,0,1,0,.17c0,.13,0,.26,0,.38s0,.43,0,.64,0,.4,0,.6,0,.42,0,.63,0,.3,0,.44c0,.32,0,.63-.06,1a2.73,2.73,0,0,1,0,.41,1.17,1.17,0,0,1-.1.26,1.52,1.52,0,0,0,0,.6,2.93,2.93,0,0,1-.07.41.21.21,0,0,0,0,.13.31.31,0,0,0,0,.1,1.67,1.67,0,0,1,.12.23l.15.27s0,.06,0,.08-.07.14-.08.21a.4.4,0,0,0,.1.23.7.7,0,0,0,.08.1.38.38,0,0,1,0,.15.73.73,0,0,1,0,.25c0,.08,0,.15,0,.23a1.14,1.14,0,0,0,0,.26.56.56,0,0,0,.41.32.74.74,0,0,0,.36.05,4.32,4.32,0,0,0,.51-.16.87.87,0,0,0,.33-.12s0-.06,0-.1,0-.11,0-.16,0-.14,0-.21l0-.09a1.08,1.08,0,0,1,0-.18.41.41,0,0,0,0-.19,1.06,1.06,0,0,0-.1-.3.73.73,0,0,0-.17-.18.8.8,0,0,0-.19-.13s-.1-.1-.1-.14h.1l.09,0h.25c.06,0,.09,0,.12,0a.38.38,0,0,0,0-.1.43.43,0,0,1,0-.07,1.66,1.66,0,0,0,0-.22c0-.07,0-.12,0-.19s0,0,0-.07,0-.06,0-.08a.94.94,0,0,0,0-.09.48.48,0,0,1,0-.12c0-.19,0-.39.09-.57s0-.22,0-.32,0-.33,0-.5S46,49,46,48.75a.76.76,0,0,0,0-.3s0-.08,0-.12,0-.08,0-.12a2.26,2.26,0,0,1,0-.45c0-.13,0-.25.05-.38a2.25,2.25,0,0,0,0-.26,5.23,5.23,0,0,1,0-.56c0-.26.13-.51.14-.77s0-.34,0-.52v-.42a2.54,2.54,0,0,1,0-.39c0-.11,0-.21.05-.32a.48.48,0,0,0,0-.24.91.91,0,0,1-.07-.14,1.17,1.17,0,0,1,0-.2c0-.05,0-.1,0-.14a1.05,1.05,0,0,0,0-.3,2.58,2.58,0,0,1,0-.39c0-.3.13-.59.2-.89a1.17,1.17,0,0,1,.05-.27c0-.06,0-.11.07-.17a1.47,1.47,0,0,1,.08-.28.61.61,0,0,0,.07-.14.77.77,0,0,1,0-.15l.06-.16a.51.51,0,0,0,0-.13,1.38,1.38,0,0,0,0-.2c0-.19-.05-.39-.07-.58l.12-.07c.11-.12.17-.2.05-.31s-.07-.05-.08-.08,0,0,0,0v-.1a1.06,1.06,0,0,0,0-.31c0-.11-.05-.22-.08-.34a2.48,2.48,0,0,0,0-.27,1.93,1.93,0,0,0-.11-.34.8.8,0,0,1-.08-.16.52.52,0,0,1,0-.14c0-.05,0-.09,0-.14s0-.05.07-.08l.17-.06.19-.08a.88.88,0,0,0,.33-.24.21.21,0,0,1,.25-.1c.08,0,.13.09.21,0a.45.45,0,0,0,.12-.21A1.45,1.45,0,0,1,48,36.4a1.44,1.44,0,0,1,.25-.18c.1-.06.19-.13.29-.18s.07-.06.11-.11a.54.54,0,0,0,.09-.12,2.2,2.2,0,0,1,.17-.25c.13-.17.25-.34.37-.52s.29-.37.42-.56.29-.47.43-.71a1.58,1.58,0,0,1,.27-.31c.07-.07.15-.12.17-.22a.62.62,0,0,0-.06-.3.51.51,0,0,0-.2-.28,1,1,0,0,1-.19-.16l-.18-.16a.76.76,0,0,1-.08-.11l-.1-.1c0-.05-.09-.12-.14-.18l-.15-.18a.43.43,0,0,1-.09-.1l-.06-.08s-.07-.06,0-.1.06,0,0-.08-.07-.06-.1-.08a.87.87,0,0,0-.11-.09L49,31.17a.94.94,0,0,1-.1-.1,2.73,2.73,0,0,1-.44-.39c-.11-.13-.21-.27-.33-.4a1.25,1.25,0,0,1-.09-.12c-.06-.09-.14-.17-.21-.26s-.22-.16-.32-.25-.23-.24-.36-.35a2.73,2.73,0,0,1-.25-.23,1.29,1.29,0,0,0-.32-.19,2,2,0,0,0-.49,0c-.11,0-.2-.1-.32-.09a1,1,0,0,1-.24,0,.28.28,0,0,1-.16-.09.27.27,0,0,0-.19-.05.45.45,0,0,0-.11,0,.41.41,0,0,1-.11,0c-.06,0-.08-.07-.11-.12s-.06-.07,0-.13.21-.22.07-.32l-.1-.06a.51.51,0,0,0-.17,0s-.09.06-.14,0l-.08-.14a.37.37,0,0,1,0-.18,2.25,2.25,0,0,1,0-.26.65.65,0,0,0,0-.34"/><path class="cls-3" d="M44,27.13l.36.09s0,0,0,0l-.33-.09a2,2,0,0,0,.21-.51l.1.27v0a.08.08,0,0,0,0,0l-.1-.28c0-.06,0-.1,0-.1v0l0,.05s0,0,.07,0l-.12-.12v-.08l.08-.08c-1-.88-1.25-.75-1.57-.57a4.45,4.45,0,0,0-.83.92l-.17.22,0,0,.12-.15c0,.05.17,0,.24,0L42,26.8l0,0,.29-.21a2.93,2.93,0,0,0,.27.71l-.3.08s0,0,0,0l.32-.08,0,0a2.4,2.4,0,0,0,1.34-.2Z"/><path class="cls-6" d="M93.14,48.73H87V38h6.17v1.86h-3.9v2.36h3.63V44.1H89.24v2.76h3.9Z"/><path class="cls-6" d="M100.91,46.3a2.24,2.24,0,0,1-.88,1.92,4.29,4.29,0,0,1-2.61.66,8.33,8.33,0,0,1-1.53-.12,5.58,5.58,0,0,1-1.18-.36V46.56a8.3,8.3,0,0,0,1.41.49,5.73,5.73,0,0,0,1.37.2c.81,0,1.22-.24,1.22-.71a.6.6,0,0,0-.17-.43,2.22,2.22,0,0,0-.55-.37c-.27-.14-.62-.3-1.06-.49a6.36,6.36,0,0,1-1.39-.73,2,2,0,0,1-.64-.77,2.62,2.62,0,0,1-.2-1.07A1.94,1.94,0,0,1,95.54,41a4.13,4.13,0,0,1,2.4-.6,6.8,6.8,0,0,1,2.88.65l-.67,1.61c-.41-.18-.8-.32-1.15-.44A3.7,3.7,0,0,0,97.91,42q-1,0-1,.54a.62.62,0,0,0,.32.52,8.25,8.25,0,0,0,1.39.65,6.36,6.36,0,0,1,1.41.73,2.18,2.18,0,0,1,.66.77A2.46,2.46,0,0,1,100.91,46.3Z"/><path class="cls-6" d="M106,48.88q-3.83,0-3.83-4.2a4.5,4.5,0,0,1,1-3.19,3.94,3.94,0,0,1,3-1.1,5.68,5.68,0,0,1,2.54.56l-.66,1.73a8.38,8.38,0,0,0-1-.35,3.13,3.13,0,0,0-.9-.14c-1.17,0-1.75.83-1.75,2.48s.58,2.4,1.75,2.4a4.12,4.12,0,0,0,1.19-.17,4.66,4.66,0,0,0,1.1-.54v1.91a3.65,3.65,0,0,1-1.1.48A6.63,6.63,0,0,1,106,48.88Z"/><path class="cls-6" d="M114.94,40.39a3.18,3.18,0,0,1,.75.07l-.17,2.09a2.52,2.52,0,0,0-.66-.07,2.33,2.33,0,0,0-1.66.55,2,2,0,0,0-.6,1.53v4.17h-2.23V40.54h1.69l.33,1.38h.11a3,3,0,0,1,1-1.11A2.53,2.53,0,0,1,114.94,40.39Z"/><path class="cls-6" d="M117.08,38.43c0-.73.41-1.09,1.22-1.09s1.21.36,1.21,1.09a1.09,1.09,0,0,1-.3.81,1.29,1.29,0,0,1-.91.29C117.49,39.53,117.08,39.16,117.08,38.43Zm2.33,10.3h-2.23V40.54h2.23Z"/><path class="cls-6" d="M125.2,47.1a4.94,4.94,0,0,0,1.41-.26v1.67a5.18,5.18,0,0,1-2,.37,2.51,2.51,0,0,1-2-.68,2.93,2.93,0,0,1-.61-2v-4h-1.07v-.94l1.23-.75.64-1.73h1.43v1.74h2.29v1.68h-2.29v4a.86.86,0,0,0,.27.7A1,1,0,0,0,125.2,47.1Z"/><path class="cls-6" d="M133.46,48.73,133,47.62H133a3.22,3.22,0,0,1-1.16,1,3.58,3.58,0,0,1-1.55.28,2.55,2.55,0,0,1-1.86-.67,2.6,2.6,0,0,1-.68-1.92,2.2,2.2,0,0,1,.91-1.93,5.29,5.29,0,0,1,2.75-.68l1.43,0v-.35A1.12,1.12,0,0,0,131.53,42a6,6,0,0,0-2.31.59l-.74-1.5a6.61,6.61,0,0,1,3.14-.74,4,4,0,0,1,2.53.71,2.68,2.68,0,0,1,.88,2.19v5.45Zm-.65-3.79-.87,0a2.73,2.73,0,0,0-1.45.35,1.09,1.09,0,0,0-.47,1c0,.63.36,1,1.08,1a1.7,1.7,0,0,0,1.24-.45,1.57,1.57,0,0,0,.47-1.19Z"/><path class="cls-6" d="M146,39.76a2.32,2.32,0,0,0-2,1,4.5,4.5,0,0,0-.7,2.69c0,2.38.89,3.58,2.69,3.58a8.65,8.65,0,0,0,2.73-.56v1.9a7.53,7.53,0,0,1-3,.55,4.47,4.47,0,0,1-3.57-1.42,6,6,0,0,1-1.24-4.07,6.54,6.54,0,0,1,.61-2.92,4.38,4.38,0,0,1,1.75-1.93,5.14,5.14,0,0,1,2.67-.67,7.22,7.22,0,0,1,3.13.75l-.73,1.85a12.37,12.37,0,0,0-1.21-.5A3.64,3.64,0,0,0,146,39.76Z"/><path class="cls-6" d="M150.68,38.43c0-.73.41-1.09,1.22-1.09s1.22.36,1.22,1.09a1.1,1.1,0,0,1-.31.81,1.27,1.27,0,0,1-.91.29C151.09,39.53,150.68,39.16,150.68,38.43ZM153,48.73h-2.23V40.54H153Z"/><path class="cls-6" d="M159.06,48.88A4.22,4.22,0,0,1,156,47.79a4.15,4.15,0,0,1-1.11-3.09,4.53,4.53,0,0,1,1-3.19,3.67,3.67,0,0,1,2.84-1.12,3.63,3.63,0,0,1,2.71,1,3.76,3.76,0,0,1,1,2.73V45.2h-5.28a2.12,2.12,0,0,0,.57,1.48,2,2,0,0,0,1.48.54,5.69,5.69,0,0,0,1.39-.16,6.56,6.56,0,0,0,1.38-.49V48.3a5.3,5.3,0,0,1-1.25.44A8.31,8.31,0,0,1,159.06,48.88Zm-.31-6.9a1.44,1.44,0,0,0-1.12.45,2.15,2.15,0,0,0-.46,1.28h3.14a1.91,1.91,0,0,0-.43-1.28A1.48,1.48,0,0,0,158.75,42Z"/><path class="cls-6" d="M171.78,48.73h-2.24V44a2.31,2.31,0,0,0-.31-1.33,1.15,1.15,0,0,0-1-.44,1.53,1.53,0,0,0-1.36.62,3.88,3.88,0,0,0-.42,2.08v3.85h-2.23V40.54h1.71l.3,1.05h.12a2.44,2.44,0,0,1,1-.9,3.54,3.54,0,0,1,1.49-.3,2.9,2.9,0,0,1,2.17.77,3.13,3.13,0,0,1,.74,2.23Z"/><path class="cls-6" d="M177.53,47.1a4.82,4.82,0,0,0,1.4-.26v1.67a5.15,5.15,0,0,1-2.05.37,2.52,2.52,0,0,1-1.95-.68,2.93,2.93,0,0,1-.61-2v-4h-1.07v-.94l1.23-.75.64-1.73h1.43v1.74h2.3v1.68h-2.3v4a.86.86,0,0,0,.27.7A1.06,1.06,0,0,0,177.53,47.1Z"/><path class="cls-6" d="M180.48,39.64v-.19a21.5,21.5,0,0,0,1.72-2.21h2.51v.15c-.26.26-.69.64-1.3,1.14s-1.1.87-1.44,1.11Zm2.34,9.09h-2.23V40.54h2.23Z"/><path class="cls-6" d="M189.69,42.22h-1.93v6.51h-2.23V42.22h-1.24V41.14l1.24-.6v-.6a2.71,2.71,0,0,1,.68-2,3.17,3.17,0,0,1,2.21-.64,5.74,5.74,0,0,1,2.06.34l-.57,1.64a4.25,4.25,0,0,0-1.25-.21.8.8,0,0,0-.69.28,1.18,1.18,0,0,0-.21.72v.51h1.93Zm1.19-3.79c0-.73.41-1.09,1.22-1.09s1.21.36,1.21,1.09a1.09,1.09,0,0,1-.3.81,1.31,1.31,0,0,1-.91.29C191.29,39.53,190.88,39.16,190.88,38.43Zm2.33,10.3H191V40.54h2.24Z"/><path class="cls-6" d="M198.87,48.88q-3.83,0-3.82-4.2a4.46,4.46,0,0,1,1-3.19,3.9,3.9,0,0,1,3-1.1,5.69,5.69,0,0,1,2.55.56L201,42.68a9.08,9.08,0,0,0-1-.35,3.25,3.25,0,0,0-.91-.14c-1.16,0-1.74.83-1.74,2.48s.58,2.4,1.74,2.4a4.07,4.07,0,0,0,1.19-.17,4.66,4.66,0,0,0,1.1-.54v1.91a3.71,3.71,0,0,1-1.09.48A6.73,6.73,0,0,1,198.87,48.88Z"/><path class="cls-6" d="M208.46,48.73,208,47.62H208a3.39,3.39,0,0,1-1.16,1,3.66,3.66,0,0,1-1.56.28,2.55,2.55,0,0,1-1.86-.67,2.6,2.6,0,0,1-.67-1.92,2.18,2.18,0,0,1,.91-1.93,5.27,5.27,0,0,1,2.75-.68l1.42,0v-.35A1.12,1.12,0,0,0,206.52,42a5.86,5.86,0,0,0-2.3.59l-.74-1.5a6.54,6.54,0,0,1,3.13-.74,4,4,0,0,1,2.53.71,2.68,2.68,0,0,1,.88,2.19v5.45Zm-.66-3.79-.87,0a2.76,2.76,0,0,0-1.45.35,1.11,1.11,0,0,0-.47,1c0,.63.36,1,1.08,1a1.7,1.7,0,0,0,1.24-.45,1.57,1.57,0,0,0,.47-1.19Z"/><rect class="cls-5" x="84.9" y="53.6" width="127.33" height="1.03"/></g></g></svg>