<?xml version="1.0" encoding="utf-8"?>
<!-- Generator: Adobe Illustrator 24.3.0, SVG Export Plug-In . SVG Version: 6.00 Build 0)  -->
<svg version="1.1" id="Camada_1" xmlns="http://www.w3.org/2000/svg" xmlns:xlink="http://www.w3.org/1999/xlink" x="0px" y="0px"
	 viewBox="0 0 479 88" style="enable-background:new 0 0 479 88;" xml:space="preserve">
<style type="text/css">
	.st0{fill:#FFAC5A;}
	.st1{fill:#FAC496;}
	.st2{enable-background:new    ;}
	.st3{fill:#FFFFFF;}
</style>
<g id="Camada_1_1_">
	<path class="st0" d="M444.8,74.5H57.1c-16.7,0-30.3-13.6-30.3-30.3l0,0c0-16.7,13.6-30.3,30.3-30.3h387.7
		c16.7,0,30.3,13.6,30.3,30.3l0,0C475.1,60.9,461.5,74.5,444.8,74.5z"/>
	<path class="st1" d="M440.8,67.1H104.9c-12.6,0-23-10.3-23-23l0,0c0-12.6,10.3-23,23-23h335.8c12.6,0,23,10.3,23,23l0,0
		C463.8,56.8,453.4,67.1,440.8,67.1z"/>
	<circle class="st1" cx="40" cy="44.1" r="34.7"/>
	<g>
		<g class="st2">
			<g>
				<path class="st3" d="M29.9,31.7L29,29.3h-3.3l-0.8,2.4h-1.5l3.2-8.7h1.5l3.2,8.7H29.9z M28.6,28.1l-0.8-2.4
					c-0.1-0.2-0.1-0.4-0.2-0.7c-0.1-0.3-0.2-0.6-0.2-0.7c-0.1,0.5-0.3,1-0.5,1.6l-0.8,2.3L28.6,28.1L28.6,28.1z"/>
				<path class="st3" d="M39.3,23v5.6c0,0.6-0.1,1.2-0.4,1.7s-0.7,0.9-1.2,1.1s-1.1,0.4-1.9,0.4c-1.1,0-1.9-0.3-2.5-0.9
					c-0.6-0.6-0.9-1.4-0.9-2.4V23h1.4v5.5c0,0.7,0.2,1.2,0.5,1.6c0.3,0.3,0.8,0.5,1.5,0.5c1.3,0,2-0.7,2-2.1V23H39.3z"/>
				<path class="st3" d="M41.5,31.7V23H43v7.5h3.7v1.2H41.5z"/>
				<path class="st3" d="M53.5,31.7l-0.9-2.4h-3.3l-0.8,2.4H47l3.2-8.7h1.5l3.2,8.7H53.5z M52.3,28.1l-0.8-2.4
					c-0.1-0.2-0.1-0.4-0.2-0.7s-0.2-0.6-0.2-0.7c-0.1,0.5-0.3,1-0.5,1.6l-0.8,2.3L52.3,28.1L52.3,28.1z"/>
			</g>
		</g>
		<g>
			<path class="st3" d="M37.9,52.2c0,4.5-0.7,7.9-2.2,10.1s-3.8,3.3-6.9,3.3c-3,0-5.3-1.1-6.8-3.4s-2.3-5.6-2.3-10
				c0-4.6,0.7-8,2.2-10.2s3.8-3.3,6.9-3.3c3,0,5.3,1.1,6.8,3.4C37.1,44.5,37.9,47.8,37.9,52.2z M25.1,52.2c0,3.2,0.3,5.5,0.8,6.9
				c0.6,1.4,1.5,2.1,2.8,2.1s2.2-0.7,2.8-2.1s0.9-3.7,0.9-6.8c0-3.2-0.3-5.5-0.9-6.9c-0.6-1.4-1.5-2.1-2.8-2.1s-2.2,0.7-2.8,2.1
				S25.1,49,25.1,52.2z"/>
			<path class="st3" d="M54.2,65.2h-5.5V50.1l0.1-2.5l0.1-2.7c-0.9,0.9-1.5,1.5-1.9,1.8l-3,2.4l-2.7-3.3l8.4-6.7h4.5V65.2z"/>
		</g>
	</g>
	<g class="st2">
		<g>
			<path class="st3" d="M98.4,51.2V36.7h2.4v14.5H98.4z"/>
			<path class="st3" d="M116.7,51.2h-2.9l-7.1-11.5h-0.1v0.6c0.1,1.2,0.1,2.3,0.1,3.4v7.5h-2.1V36.7h2.9l7.1,11.5h0.1
				c0-0.2,0-0.7-0.1-1.7s-0.1-1.7-0.1-2.2v-7.6h2.2L116.7,51.2L116.7,51.2z"/>
			<path class="st3" d="M125.5,51.2h-2.4V38.8h-4.3v-2h10.9v2h-4.3v12.4H125.5z"/>
			<path class="st3" d="M134.3,45.4v5.8h-2.4V36.7h4.1c1.9,0,3.2,0.3,4.1,1s1.3,1.8,1.3,3.2c0,1.8-0.9,3.1-2.8,3.8l4.1,6.4H140
				l-3.5-5.8h-2.2V45.4z M134.3,43.5h1.6c1.1,0,1.9-0.2,2.4-0.6c0.5-0.4,0.7-1,0.7-1.8s-0.3-1.4-0.8-1.8c-0.5-0.4-1.3-0.5-2.4-0.5
				h-1.6v4.7H134.3z"/>
			<path class="st3" d="M157.7,44c0,2.4-0.6,4.2-1.8,5.5s-2.8,2-5,2s-3.9-0.6-5-1.9c-1.2-1.3-1.8-3.1-1.8-5.5s0.6-4.2,1.8-5.5
				s2.9-1.9,5-1.9c2.2,0,3.8,0.6,5,1.9C157.1,39.8,157.7,41.6,157.7,44z M146.7,44c0,1.8,0.4,3.1,1.1,4.1c0.7,0.9,1.8,1.4,3.2,1.4
				s2.5-0.5,3.2-1.4s1.1-2.3,1.1-4.1s-0.4-3.1-1.1-4c-0.7-0.9-1.8-1.4-3.2-1.4s-2.5,0.5-3.2,1.4C147.1,40.8,146.7,42.2,146.7,44z"/>
			<path class="st3" d="M172.6,43.8c0,2.4-0.7,4.2-2,5.5s-3.2,1.9-5.7,1.9h-4V36.7h4.5c2.3,0,4.1,0.6,5.4,1.9
				C172,39.8,172.6,41.6,172.6,43.8z M170.1,43.9c0-3.5-1.6-5.2-4.9-5.2h-2v10.5h1.7C168.4,49.2,170.1,47.5,170.1,43.9z"/>
			<path class="st3" d="M187.1,36.7v9.4c0,1.1-0.2,2-0.7,2.8s-1.1,1.4-2,1.9c-0.9,0.4-1.9,0.6-3.1,0.6c-1.8,0-3.2-0.5-4.2-1.4
				s-1.5-2.3-1.5-3.9v-9.3h2.4V46c0,1.2,0.3,2.1,0.8,2.6s1.4,0.9,2.6,0.9c2.2,0,3.3-1.2,3.3-3.5v-9.1h2.4V36.7z"/>
			<path class="st3" d="M196.9,38.6c-1.4,0-2.4,0.5-3.2,1.4c-0.8,1-1.2,2.3-1.2,4c0,1.8,0.4,3.1,1.1,4s1.8,1.4,3.3,1.4
				c0.6,0,1.2-0.1,1.8-0.2s1.2-0.3,1.8-0.5v2c-1.1,0.4-2.4,0.6-3.9,0.6c-2.1,0-3.7-0.6-4.9-1.9c-1.1-1.3-1.7-3.1-1.7-5.5
				c0-1.5,0.3-2.8,0.8-3.9s1.3-2,2.4-2.6c1-0.6,2.3-0.9,3.7-0.9c1.5,0,2.8,0.3,4.1,0.9l-0.9,2c-0.5-0.2-1-0.4-1.5-0.6
				C198.1,38.7,197.5,38.6,196.9,38.6z M198.3,53.9c0,1.5-1,2.2-3,2.2c-0.4,0-0.8,0-1.2-0.1v-1.4c0.4,0.1,0.8,0.1,1.2,0.1
				s0.6-0.1,0.8-0.2s0.3-0.3,0.3-0.6c0-0.6-0.6-0.9-1.8-1.1l0.8-1.6h1.5l-0.4,0.9c0.5,0.1,0.9,0.4,1.2,0.7S198.3,53.4,198.3,53.9z"
				/>
			<path class="st3" d="M212.6,51.2l-1.4-4h-5.5l-1.4,4h-2.5l5.4-14.5h2.6l5.4,14.5H212.6z M209.8,35.6c-0.3,0-0.5-0.1-0.8-0.2
				c-0.3-0.1-0.5-0.2-0.8-0.4c-0.3-0.1-0.5-0.3-0.8-0.4c-0.2-0.1-0.5-0.2-0.7-0.2c-0.5,0-0.9,0.4-1.1,1.1h-1.2
				c0.1-0.9,0.3-1.6,0.8-2.1c0.4-0.5,1-0.7,1.7-0.7c0.3,0,0.6,0.1,0.8,0.2s0.5,0.2,0.8,0.4c0.3,0.1,0.5,0.3,0.7,0.4
				c0.2,0.1,0.5,0.2,0.7,0.2c0.5,0,0.9-0.4,1-1.1h1.2c-0.1,0.9-0.3,1.6-0.8,2.1S210.5,35.6,209.8,35.6z M210.5,45.2l-1.4-3.9
				c-0.1-0.3-0.2-0.7-0.4-1.2s-0.3-1-0.4-1.2c-0.2,0.8-0.4,1.7-0.8,2.7l-1.3,3.8h4.3V45.2z"/>
			<path class="st3" d="M229.8,44c0,2.4-0.6,4.2-1.8,5.5c-1.2,1.3-2.8,2-5,2c-2.2,0-3.9-0.6-5-1.9c-1.2-1.3-1.8-3.1-1.8-5.5
				s0.6-4.2,1.8-5.5s2.9-1.9,5-1.9c2.2,0,3.8,0.6,5,1.9C229.2,39.8,229.8,41.6,229.8,44z M218.8,44c0,1.8,0.4,3.1,1.1,4.1
				c0.7,0.9,1.8,1.4,3.2,1.4s2.5-0.5,3.2-1.4s1.1-2.3,1.1-4.1s-0.4-3.1-1.1-4s-1.8-1.4-3.2-1.4s-2.5,0.5-3.2,1.4
				C219.2,40.8,218.8,42.2,218.8,44z"/>
			<path class="st3" d="M247.2,51.2l-1.4-4h-5.5l-1.4,4h-2.5l5.4-14.5h2.6l5.4,14.5H247.2z M242.8,35.6c-0.5-0.3-1-0.8-1.7-1.5
				c-0.7-0.6-1.2-1.2-1.5-1.5v-0.2h2.7c0.3,0.5,0.6,1,1,1.6s0.8,1.1,1.1,1.4v0.2H242.8z M245.1,45.2l-1.4-3.9
				c-0.1-0.3-0.2-0.7-0.4-1.2s-0.3-1-0.4-1.2c-0.2,0.8-0.4,1.7-0.8,2.7l-1.3,3.8h4.3V45.2z"/>
			<path class="st3" d="M265,51.2h-8.2V36.7h8.2v2h-5.8v3.9h5.5v2h-5.5v4.5h5.8V51.2z"/>
			<path class="st3" d="M276.5,47.3c0,1.3-0.5,2.3-1.4,3s-2.2,1.1-3.8,1.1s-3-0.3-4-0.8v-2.2c0.7,0.3,1.4,0.6,2.1,0.7
				c0.7,0.2,1.4,0.3,2.1,0.3c0.9,0,1.6-0.2,2.1-0.5c0.4-0.4,0.7-0.8,0.7-1.4c0-0.5-0.2-1-0.6-1.4s-1.3-0.8-2.5-1.3
				c-1.3-0.5-2.2-1.1-2.8-1.8c-0.5-0.7-0.8-1.5-0.8-2.5c0-1.2,0.4-2.2,1.3-2.8c0.9-0.7,2-1,3.5-1c1.4,0,2.8,0.3,4.1,0.9l-0.8,1.9
				c-1.3-0.5-2.4-0.8-3.4-0.8c-0.8,0-1.3,0.2-1.7,0.5c-0.4,0.3-0.6,0.8-0.6,1.3c0,0.4,0.1,0.7,0.2,1c0.2,0.3,0.4,0.5,0.8,0.8
				c0.4,0.2,1,0.6,2,0.9c1.1,0.4,1.8,0.9,2.3,1.2c0.5,0.4,0.9,0.8,1.1,1.3C276.4,46.1,276.5,46.6,276.5,47.3z"/>
			<path class="st3" d="M285.5,38.6c-1.4,0-2.4,0.5-3.2,1.4c-0.8,1-1.2,2.3-1.2,4c0,1.8,0.4,3.1,1.1,4s1.8,1.4,3.3,1.4
				c0.6,0,1.2-0.1,1.8-0.2s1.2-0.3,1.8-0.5v2c-1.1,0.4-2.4,0.6-3.9,0.6c-2.1,0-3.7-0.6-4.9-1.9c-1.1-1.3-1.7-3.1-1.7-5.5
				c0-1.5,0.3-2.8,0.8-3.9s1.3-2,2.4-2.6c1-0.6,2.3-0.9,3.7-0.9c1.5,0,2.8,0.3,4.1,0.9l-0.9,2c-0.5-0.2-1-0.4-1.5-0.6
				C286.6,38.7,286.1,38.6,285.5,38.6z"/>
			<path class="st3" d="M294.5,45.4v5.8h-2.4V36.7h4.1c1.9,0,3.2,0.3,4.1,1s1.3,1.8,1.3,3.2c0,1.8-0.9,3.1-2.8,3.8l4.1,6.4h-2.7
				l-3.5-5.8h-2.2V45.4z M294.5,43.5h1.6c1.1,0,1.9-0.2,2.4-0.6c0.5-0.4,0.7-1,0.7-1.8s-0.3-1.4-0.8-1.8c-0.5-0.4-1.3-0.5-2.4-0.5
				h-1.6L294.5,43.5L294.5,43.5z"/>
			<path class="st3" d="M305.1,51.2V36.7h2.4v14.5H305.1z"/>
			<path class="st3" d="M316.3,51.2h-2.4V38.8h-4.3v-2h10.9v2h-4.3L316.3,51.2L316.3,51.2z"/>
			<path class="st3" d="M331.7,51.2l-1.4-4h-5.5l-1.4,4h-2.5l5.4-14.5h2.6l5.4,14.5H331.7z M329.7,45.2l-1.4-3.9
				c-0.1-0.3-0.2-0.7-0.4-1.2s-0.3-1-0.4-1.2c-0.2,0.8-0.4,1.7-0.8,2.7l-1.3,3.8h4.3V45.2z"/>
			<path class="st3" d="M347.6,38.6c-1.4,0-2.4,0.5-3.2,1.4c-0.8,1-1.2,2.3-1.2,4c0,1.8,0.4,3.1,1.1,4s1.8,1.4,3.3,1.4
				c0.6,0,1.2-0.1,1.8-0.2s1.2-0.3,1.8-0.5v2c-1.1,0.4-2.4,0.6-3.9,0.6c-2.1,0-3.7-0.6-4.9-1.9c-1.1-1.3-1.7-3.1-1.7-5.5
				c0-1.5,0.3-2.8,0.8-3.9s1.3-2,2.4-2.6c1-0.6,2.3-0.9,3.7-0.9c1.5,0,2.8,0.3,4.1,0.9l-0.9,2c-0.5-0.2-1-0.4-1.5-0.6
				C348.7,38.7,348.2,38.6,347.6,38.6z"/>
			<path class="st3" d="M354.3,51.2V36.7h2.4v14.5H354.3z"/>
			<path class="st3" d="M368.6,51.2h-8.2V36.7h8.2v2h-5.8v3.9h5.5v2h-5.5v4.5h5.8V51.2z"/>
			<path class="st3" d="M383.8,51.2h-2.9l-7.1-11.5h-0.1v0.6c0.1,1.2,0.1,2.3,0.1,3.4v7.5h-2.1V36.7h2.9l7.1,11.5h0.1
				c0-0.2,0-0.7-0.1-1.7s-0.1-1.7-0.1-2.2v-7.6h2.2V51.2z"/>
			<path class="st3" d="M392.6,51.2h-2.4V38.8H386v-2h10.9v2h-4.3V51.2z"/>
			<path class="st3" d="M399,35.6v-0.2c0.4-0.5,0.8-1,1.2-1.5c0.4-0.6,0.7-1.1,0.9-1.5h2.7v0.2c-0.3,0.4-0.9,0.9-1.5,1.6
				c-0.7,0.6-1.3,1.1-1.7,1.5L399,35.6L399,35.6z M399.1,51.2V36.7h2.4v14.5H399.1z"/>
			<path class="st3" d="M407.6,51.2h-2.3V36.7h8.2v2h-5.8v4.5h5.5v2h-5.5v6H407.6z"/>
			<path class="st3" d="M416.1,51.2V36.7h2.4v14.5H416.1z"/>
			<path class="st3" d="M428.4,38.6c-1.4,0-2.4,0.5-3.2,1.4c-0.8,1-1.2,2.3-1.2,4c0,1.8,0.4,3.1,1.1,4s1.8,1.4,3.3,1.4
				c0.6,0,1.2-0.1,1.8-0.2s1.2-0.3,1.8-0.5v2c-1.1,0.4-2.4,0.6-3.9,0.6c-2.1,0-3.7-0.6-4.9-1.9c-1.1-1.3-1.7-3.1-1.7-5.5
				c0-1.5,0.3-2.8,0.8-3.9s1.3-2,2.4-2.6c1-0.6,2.3-0.9,3.7-0.9c1.5,0,2.8,0.3,4.1,0.9l-0.9,2c-0.5-0.2-1-0.4-1.5-0.6
				S429,38.6,428.4,38.6z"/>
			<path class="st3" d="M444.1,51.2l-1.4-4h-5.5l-1.4,4h-2.5l5.4-14.5h2.6l5.4,14.5H444.1z M442,45.2l-1.4-3.9
				c-0.1-0.3-0.2-0.7-0.4-1.2s-0.3-1-0.4-1.2c-0.2,0.8-0.4,1.7-0.8,2.7l-1.3,3.8h4.3V45.2z"/>
		</g>
	</g>
</g>
<g id="Camada_2_1_">
</g>
</svg>
