<?xml version="1.0" encoding="utf-8"?>
<!-- Generator: Adobe Illustrator 24.3.0, SVG Export Plug-In . SVG Version: 6.00 Build 0)  -->
<svg version="1.1" id="Camada_1" xmlns="http://www.w3.org/2000/svg" xmlns:xlink="http://www.w3.org/1999/xlink" x="0px" y="0px"
	 viewBox="0 0 479 88" style="enable-background:new 0 0 479 88;" xml:space="preserve">
<style type="text/css">
	.st0{fill:#105DA6;}
	.st1{fill:#5995C6;}
	.st2{enable-background:new    ;}
	.st3{fill:#FFFFFF;}
</style>
<g id="Camada_1_1_">
	<path class="st0" d="M444.1,74.3H56.4c-16.7,0-30.3-13.6-30.3-30.3l0,0c0-16.7,13.6-30.3,30.3-30.3h387.7
		c16.7,0,30.3,13.6,30.3,30.3l0,0C474.4,60.7,460.8,74.3,444.1,74.3z"/>
	<path class="st1" d="M440.1,67H104.2c-12.6,0-23-10.3-23-23l0,0c0-12.6,10.3-23,23-23H440c12.6,0,23,10.3,23,23l0,0
		C463.1,56.6,452.7,67,440.1,67z"/>
	<circle class="st1" cx="39.3" cy="44" r="34.7"/>
	<g>
		<g class="st2">
			<g>
				<path class="st3" d="M29.1,31.5l-0.9-2.4h-3.3l-0.8,2.4h-1.5l3.2-8.7h1.6l3.2,8.7H29.1z M27.9,27.9l-0.8-2.4
					c-0.1-0.2-0.1-0.4-0.2-0.7c-0.1-0.3-0.2-0.6-0.2-0.7c-0.1,0.5-0.3,1-0.5,1.6L25.4,28h2.5V27.9z"/>
				<path class="st3" d="M38.6,22.8v5.6c0,0.6-0.1,1.2-0.4,1.7S37.5,31,37,31.2s-1.1,0.4-1.9,0.4c-1.1,0-1.9-0.3-2.5-0.9
					c-0.6-0.6-0.9-1.4-0.9-2.4v-5.6h1.4v5.5c0,0.7,0.2,1.2,0.5,1.6c0.3,0.3,0.8,0.5,1.5,0.5c1.3,0,2-0.7,2-2.1v-5.5L38.6,22.8
					L38.6,22.8z"/>
				<path class="st3" d="M40.8,31.5v-8.7h1.4v7.5h3.7v1.2H40.8z"/>
				<path class="st3" d="M52.8,31.5l-0.9-2.4h-3.3l-0.8,2.4h-1.5l3.2-8.7H51l3.2,8.7H52.8z M51.5,27.9l-0.8-2.4
					c-0.1-0.2-0.1-0.4-0.2-0.7s-0.2-0.6-0.2-0.7c-0.1,0.5-0.3,1-0.5,1.6L49,28h2.5V27.9z"/>
			</g>
		</g>
		<g>
			<path class="st3" d="M37.2,52c0,4.5-0.7,7.9-2.2,10.1c-1.5,2.2-3.8,3.3-6.9,3.3c-3,0-5.3-1.1-6.8-3.4c-1.5-2.3-2.3-5.6-2.3-10
				c0-4.6,0.7-8,2.2-10.2s3.8-3.3,6.9-3.3c3,0,5.3,1.1,6.8,3.4C36.4,44.3,37.2,47.6,37.2,52z M24.4,52c0,3.2,0.3,5.5,0.8,6.9
				c0.6,1.4,1.5,2.1,2.8,2.1s2.2-0.7,2.8-2.1c0.6-1.4,0.9-3.7,0.9-6.8c0-3.2-0.3-5.5-0.9-6.9c-0.6-1.4-1.5-2.1-2.8-2.1
				s-2.2,0.7-2.8,2.1S24.4,48.8,24.4,52z"/>
			<path class="st3" d="M57.1,44.8c0,1.6-0.5,3-1.5,4.1s-2.4,1.9-4.1,2.4v0.1c2.1,0.3,3.7,0.9,4.8,1.9c1.1,1,1.6,2.4,1.6,4.1
				c0,2.5-0.9,4.5-2.7,5.9c-1.8,1.4-4.4,2.1-7.8,2.1c-2.8,0-5.3-0.5-7.5-1.4v-4.7c1,0.5,2.1,0.9,3.3,1.2c1.2,0.3,2.4,0.5,3.6,0.5
				c1.8,0,3.2-0.3,4-0.9c0.9-0.6,1.3-1.6,1.3-3c0-1.2-0.5-2.1-1.5-2.6s-2.6-0.8-4.8-0.8h-2v-4.2h2c2,0,3.5-0.3,4.4-0.8
				s1.4-1.4,1.4-2.7c0-2-1.2-3-3.7-3c-0.9,0-1.7,0.1-2.6,0.4c-0.9,0.3-1.9,0.8-2.9,1.5l-2.5-3.8c2.4-1.7,5.2-2.6,8.5-2.6
				c2.7,0,4.8,0.5,6.4,1.6C56.3,41.3,57.1,42.8,57.1,44.8z"/>
		</g>
	</g>
	<g class="st2">
		<g>
			<path class="st3" d="M100.1,45.2V51h-2.4V36.5h4.1c1.9,0,3.2,0.3,4.1,1s1.3,1.8,1.3,3.2c0,1.8-0.9,3.1-2.8,3.8l4.1,6.4h-2.7
				l-3.5-5.8h-2.2V45.2z M100.1,43.3h1.6c1.1,0,1.9-0.2,2.4-0.6c0.5-0.4,0.7-1,0.7-1.8s-0.3-1.4-0.8-1.8c-0.5-0.4-1.3-0.5-2.4-0.5
				H100v4.7H100.1z"/>
			<path class="st3" d="M118.8,51h-8.2V36.5h8.2v2H113v3.9h5.5v2H113v4.5h5.8V51z"/>
			<path class="st3" d="M133.7,43.6c0,2.4-0.7,4.2-2,5.5S128.5,51,126,51h-4V36.5h4.5c2.3,0,4.1,0.6,5.4,1.9
				C133.1,39.7,133.7,41.4,133.7,43.6z M131.2,43.7c0-3.5-1.6-5.2-4.9-5.2h-2V49h1.7C129.5,49,131.2,47.3,131.2,43.7z"/>
			<path class="st3" d="M136.8,51V36.5h2.4V51H136.8z"/>
			<path class="st3" d="M148.9,43.2h5.3v7.3c-0.9,0.3-1.7,0.5-2.5,0.6s-1.7,0.2-2.6,0.2c-2.2,0-3.9-0.6-5.1-1.9
				c-1.2-1.3-1.8-3.1-1.8-5.5c0-2.3,0.7-4.2,2-5.5s3.2-2,5.5-2c1.5,0,2.9,0.3,4.3,0.9l-0.8,2c-1.2-0.5-2.3-0.8-3.5-0.8
				c-1.5,0-2.8,0.5-3.7,1.5s-1.3,2.3-1.3,4c0,1.8,0.4,3.1,1.2,4s2,1.4,3.5,1.4c0.8,0,1.6-0.1,2.5-0.3v-3.7h-3L148.9,43.2L148.9,43.2
				z"/>
			<path class="st3" d="M157.7,51V36.5h2.4V51H157.7z"/>
			<path class="st3" d="M176,51h-2.9L166,39.5h-0.1v0.6c0.1,1.2,0.1,2.3,0.1,3.4V51h-2.1V36.5h2.9l7.1,11.5h0.1c0-0.2,0-0.7-0.1-1.7
				s-0.1-1.7-0.1-2.2v-7.6h2.2L176,51L176,51z"/>
			<path class="st3" d="M191.5,43.6c0,2.4-0.7,4.2-2,5.5s-3.2,1.9-5.7,1.9h-4V36.5h4.5c2.3,0,4.1,0.6,5.4,1.9
				C190.9,39.7,191.5,41.4,191.5,43.6z M189.1,43.7c0-3.5-1.6-5.2-4.9-5.2h-2V49h1.7C187.3,49,189.1,47.3,189.1,43.7z"/>
			<path class="st3" d="M207.5,43.8c0,2.4-0.6,4.2-1.8,5.5s-2.8,2-5,2s-3.9-0.6-5-1.9c-1.2-1.3-1.8-3.1-1.8-5.5s0.6-4.2,1.8-5.5
				s2.9-1.9,5-1.9c2.2,0,3.8,0.6,5,1.9C206.9,39.6,207.5,41.4,207.5,43.8z M196.5,43.8c0,1.8,0.4,3.1,1.1,4.1
				c0.7,0.9,1.8,1.4,3.2,1.4s2.5-0.5,3.2-1.4s1.1-2.3,1.1-4.1s-0.4-3.1-1.1-4c-0.7-0.9-1.8-1.4-3.2-1.4s-2.5,0.5-3.2,1.4
				C196.8,40.6,196.5,42,196.5,43.8z"/>
			<path class="st3" d="M228.7,43.8c0,2.4-0.6,4.2-1.8,5.5c-1.2,1.3-2.8,2-5,2c-2.2,0-3.9-0.6-5-1.9c-1.2-1.3-1.8-3.1-1.8-5.5
				s0.6-4.2,1.8-5.5s2.9-1.9,5-1.9c2.2,0,3.8,0.6,5,1.9C228.1,39.6,228.7,41.4,228.7,43.8z M217.7,43.8c0,1.8,0.4,3.1,1.1,4.1
				c0.7,0.9,1.8,1.4,3.2,1.4s2.5-0.5,3.2-1.4s1.1-2.3,1.1-4.1s-0.4-3.1-1.1-4s-1.8-1.4-3.2-1.4c-1.4,0-2.5,0.5-3.2,1.4
				C218,40.6,217.7,42,217.7,43.8z"/>
			<path class="st3" d="M240.2,47.1c0,1.3-0.5,2.3-1.4,3s-2.2,1.1-3.8,1.1s-3-0.3-4-0.8v-2.2c0.7,0.3,1.4,0.6,2.1,0.7
				c0.7,0.2,1.4,0.3,2.1,0.3c0.9,0,1.6-0.2,2.1-0.5c0.4-0.4,0.7-0.8,0.7-1.4c0-0.5-0.2-1-0.6-1.4s-1.3-0.8-2.5-1.3
				c-1.3-0.5-2.2-1.1-2.8-1.8c-0.5-0.7-0.8-1.5-0.8-2.5c0-1.2,0.4-2.2,1.3-2.8c0.9-0.7,2-1,3.5-1c1.4,0,2.8,0.3,4.1,0.9l-0.8,1.9
				c-1.3-0.5-2.4-0.8-3.4-0.8c-0.8,0-1.3,0.2-1.7,0.5c-0.4,0.3-0.6,0.8-0.6,1.3c0,0.4,0.1,0.7,0.2,1c0.2,0.3,0.4,0.5,0.8,0.8
				c0.4,0.2,1,0.6,2,0.9c1.1,0.4,1.8,0.9,2.3,1.2c0.5,0.4,0.9,0.8,1.1,1.3C240,45.9,240.2,46.4,240.2,47.1z"/>
			<path class="st3" d="M250.6,45.2V51h-2.4V36.5h4.1c1.9,0,3.2,0.3,4.1,1s1.3,1.8,1.3,3.2c0,1.8-0.9,3.1-2.8,3.8l4.1,6.4h-2.6
				l-3.5-5.8h-2.3V45.2z M250.6,43.3h1.6c1.1,0,1.9-0.2,2.4-0.6c0.5-0.4,0.7-1,0.7-1.8s-0.3-1.4-0.8-1.8c-0.5-0.4-1.3-0.5-2.4-0.5
				h-1.6L250.6,43.3L250.6,43.3z"/>
			<path class="st3" d="M269.4,51h-8.2V36.5h8.2v2h-5.8v3.9h5.5v2h-5.5v4.5h5.8V51z"/>
			<path class="st3" d="M280.8,47.1c0,1.3-0.5,2.3-1.4,3s-2.2,1.1-3.8,1.1s-3-0.3-4-0.8v-2.2c0.7,0.3,1.4,0.6,2.1,0.7
				c0.7,0.2,1.4,0.3,2.1,0.3c0.9,0,1.6-0.2,2.1-0.5c0.4-0.4,0.7-0.8,0.7-1.4c0-0.5-0.2-1-0.6-1.4s-1.3-0.8-2.5-1.3
				c-1.3-0.5-2.2-1.1-2.8-1.8c-0.5-0.7-0.8-1.5-0.8-2.5c0-1.2,0.4-2.2,1.3-2.8c0.9-0.7,2-1,3.5-1c1.4,0,2.8,0.3,4.1,0.9l-0.8,1.9
				c-1.3-0.5-2.4-0.8-3.4-0.8c-0.8,0-1.3,0.2-1.7,0.5c-0.4,0.3-0.6,0.8-0.6,1.3c0,0.4,0.1,0.7,0.2,1c0.2,0.3,0.4,0.5,0.8,0.8
				c0.4,0.2,1,0.6,2,0.9c1.1,0.4,1.8,0.9,2.3,1.2c0.5,0.4,0.9,0.8,1.1,1.3C280.7,45.9,280.8,46.4,280.8,47.1z"/>
			<path class="st3" d="M295,36.6V46c0,1.1-0.2,2-0.7,2.8s-1.1,1.4-2,1.9c-0.9,0.4-1.9,0.6-3.1,0.6c-1.8,0-3.2-0.5-4.2-1.4
				s-1.5-2.3-1.5-3.9v-9.3h2.4v9.2c0,1.2,0.3,2.1,0.8,2.6s1.4,0.9,2.6,0.9c2.2,0,3.3-1.2,3.3-3.5v-9.1h2.4V36.6z"/>
			<path class="st3" d="M298.7,51V36.5h2.4V49h6.1v2H298.7z"/>
			<path class="st3" d="M314.6,51h-2.4V38.6h-4.3v-2h10.9v2h-4.3L314.6,51L314.6,51z"/>
			<path class="st3" d="M330.1,51l-1.4-4h-5.5l-1.4,4h-2.5l5.4-14.5h2.6l5.4,14.5H330.1z M328,45l-1.4-3.9c-0.1-0.3-0.2-0.7-0.4-1.2
				s-0.3-1-0.4-1.2c-0.2,0.8-0.4,1.7-0.8,2.7l-1.3,3.8h4.3V45z"/>
			<path class="st3" d="M346.3,43.6c0,2.4-0.7,4.2-2,5.5s-3.2,1.9-5.7,1.9h-4V36.5h4.5c2.3,0,4.1,0.6,5.4,1.9
				C345.6,39.7,346.3,41.4,346.3,43.6z M343.8,43.7c0-3.5-1.6-5.2-4.9-5.2h-2V49h1.7C342,49,343.8,47.3,343.8,43.7z"/>
			<path class="st3" d="M362.2,43.8c0,2.4-0.6,4.2-1.8,5.5c-1.2,1.3-2.8,2-5,2s-3.9-0.6-5-1.9c-1.2-1.3-1.8-3.1-1.8-5.5
				s0.6-4.2,1.8-5.5s2.9-1.9,5-1.9c2.2,0,3.8,0.6,5,1.9C361.6,39.6,362.2,41.4,362.2,43.8z M351.2,43.8c0,1.8,0.4,3.1,1.1,4.1
				c0.7,0.9,1.8,1.4,3.2,1.4c1.4,0,2.5-0.5,3.2-1.4s1.1-2.3,1.1-4.1s-0.4-3.1-1.1-4s-1.8-1.4-3.2-1.4c-1.4,0-2.5,0.5-3.2,1.4
				C351.5,40.6,351.2,42,351.2,43.8z"/>
			<path class="st3" d="M373.7,47.1c0,1.3-0.5,2.3-1.4,3s-2.2,1.1-3.8,1.1s-3-0.3-4-0.8v-2.2c0.7,0.3,1.4,0.6,2.1,0.7
				c0.7,0.2,1.4,0.3,2.1,0.3c0.9,0,1.6-0.2,2.1-0.5c0.4-0.4,0.7-0.8,0.7-1.4c0-0.5-0.2-1-0.6-1.4s-1.3-0.8-2.5-1.3
				c-1.3-0.5-2.2-1.1-2.8-1.8c-0.5-0.7-0.8-1.5-0.8-2.5c0-1.2,0.4-2.2,1.3-2.8c0.9-0.7,2-1,3.5-1c1.4,0,2.8,0.3,4.1,0.9l-0.8,1.9
				c-1.3-0.5-2.4-0.8-3.4-0.8c-0.8,0-1.3,0.2-1.7,0.5c-0.4,0.3-0.6,0.8-0.6,1.3c0,0.4,0.1,0.7,0.2,1c0.2,0.3,0.4,0.5,0.8,0.8
				c0.4,0.2,1,0.6,2,0.9c1.1,0.4,1.8,0.9,2.3,1.2c0.5,0.4,0.9,0.8,1.1,1.3C373.6,45.9,373.7,46.4,373.7,47.1z"/>
		</g>
	</g>
</g>
<g id="Camada_2_1_">
</g>
</svg>
