<?xml version="1.0" encoding="utf-8"?>
<!-- Generator: Adobe Illustrator 24.3.0, SVG Export Plug-In . SVG Version: 6.00 Build 0)  -->
<svg version="1.1" id="Camada_1" xmlns="http://www.w3.org/2000/svg" xmlns:xlink="http://www.w3.org/1999/xlink" x="0px" y="0px"
	 viewBox="0 0 479 88" style="enable-background:new 0 0 479 88;" xml:space="preserve">
<style type="text/css">
	.st0{fill:#FAC496;}
	.st1{fill:#FFAC5A;}
	.st2{enable-background:new    ;}
	.st3{fill:#FFFFFF;}
</style>
<g>
	<g id="Camada_1_1_">
		<path class="st0" d="M445,73.7H57.3C40.6,73.7,27,60.1,27,43.4l0,0c0-16.7,13.6-30.3,30.3-30.3H445c16.7,0,30.3,13.6,30.3,30.3
			l0,0C475.3,60.2,461.7,73.7,445,73.7z"/>
		<path class="st1" d="M441,66.4H105.1c-12.6,0-23-10.3-23-23l0,0c0-12.6,10.3-23,23-23h335.8c12.6,0,23,10.3,23,23l0,0
			C464,56.1,453.6,66.4,441,66.4z"/>
		
			<ellipse transform="matrix(3.327794e-02 -0.9994 0.9994 3.327794e-02 -4.5137 82.1334)" class="st1" cx="40.2" cy="43.4" rx="34.7" ry="34.7"/>
		<g>
			<g class="st2">
				<g>
					<path class="st3" d="M30.1,31l-0.9-2.4h-3.3L25.1,31h-1.5l3.2-8.7h1.5l3.2,8.7H30.1z M28.8,27.3L28,24.9
						c-0.1-0.2-0.1-0.4-0.2-0.7c-0.1-0.3-0.2-0.6-0.2-0.7c-0.1,0.5-0.3,1-0.5,1.6l-0.8,2.3L28.8,27.3L28.8,27.3z"/>
					<path class="st3" d="M39.5,22.3v5.6c0,0.6-0.1,1.2-0.4,1.7s-0.7,0.9-1.2,1.1c-0.5,0.3-1.1,0.4-1.9,0.4c-1.1,0-1.9-0.3-2.5-0.9
						s-0.9-1.4-0.9-2.4v-5.6H34v5.5c0,0.7,0.2,1.2,0.5,1.6c0.3,0.3,0.8,0.5,1.5,0.5c1.3,0,2-0.7,2-2.1v-5.5L39.5,22.3L39.5,22.3z"/>
					<path class="st3" d="M41.7,31v-8.7h1.5v7.5h3.7V31H41.7z"/>
					<path class="st3" d="M53.7,31l-0.9-2.4h-3.3L48.7,31h-1.5l3.2-8.7h1.5l3.2,8.7H53.7z M52.5,27.3l-0.8-2.4
						c-0.1-0.2-0.1-0.4-0.2-0.7c-0.1-0.3-0.2-0.6-0.2-0.7c-0.1,0.5-0.3,1-0.5,1.6L50,27.4L52.5,27.3L52.5,27.3z"/>
				</g>
			</g>
			<g>
				<path class="st3" d="M38.1,51.5c0,4.5-0.7,7.9-2.2,10.1s-3.8,3.3-6.9,3.3c-3,0-5.3-1.1-6.8-3.4s-2.3-5.6-2.3-10
					c0-4.6,0.7-8,2.2-10.2S25.9,38,29,38c3,0,5.3,1.1,6.8,3.4C37.3,43.7,38.1,47.1,38.1,51.5z M25.3,51.5c0,3.2,0.3,5.5,0.8,6.9
					c0.6,1.4,1.5,2.1,2.8,2.1s2.2-0.7,2.8-2.1s0.9-3.7,0.9-6.8c0-3.2-0.3-5.5-0.9-6.9c-0.6-1.4-1.5-2.1-2.8-2.1s-2.2,0.7-2.8,2.1
					S25.3,48.3,25.3,51.5z"/>
				<path class="st3" d="M40.7,53.4c0-5.2,1.1-9,3.3-11.5c2.2-2.5,5.4-3.8,9.8-3.8c1.5,0,2.6,0.1,3.5,0.3v4.4
					c-1.1-0.2-2.1-0.4-3.1-0.4c-1.9,0-3.4,0.3-4.6,0.9s-2.1,1.4-2.7,2.5s-0.9,2.7-1.1,4.8H46c1.2-2,3.1-3,5.6-3
					c2.3,0,4.1,0.7,5.5,2.2s2,3.5,2,6.1c0,2.8-0.8,5-2.4,6.6s-3.7,2.4-6.5,2.4c-1.9,0-3.6-0.4-5-1.3s-2.5-2.2-3.3-3.9
					S40.7,55.8,40.7,53.4z M50.1,60.4c1.2,0,2.1-0.4,2.7-1.2c0.6-0.8,0.9-1.9,0.9-3.4c0-1.3-0.3-2.3-0.9-3s-1.5-1.1-2.7-1.1
					c-1.1,0-2.1,0.4-2.9,1.1S46,54.4,46,55.3c0,1.4,0.4,2.6,1.1,3.6C48,59.9,48.9,60.4,50.1,60.4z"/>
			</g>
		</g>
		<g class="st2">
			<g>
				<path class="st3" d="M101,44.7v5.8h-2.4V36h4.1c1.9,0,3.2,0.3,4.1,1s1.3,1.8,1.3,3.2c0,1.8-0.9,3.1-2.8,3.8l4.1,6.4h-2.7
					l-3.5-5.8H101V44.7z M101,42.7h1.6c1.1,0,1.9-0.2,2.4-0.6s0.7-1,0.7-1.8s-0.3-1.4-0.8-1.8s-1.3-0.5-2.4-0.5h-1.6v4.7H101z"/>
				<path class="st3" d="M119.8,50.5h-8.2V36h8.2v2H114v3.9h5.5v2H114v4.5h5.8V50.5z"/>
				<path class="st3" d="M134.6,43.1c0,2.4-0.7,4.2-2,5.5s-3.2,1.9-5.7,1.9h-4V36h4.5c2.3,0,4.1,0.6,5.4,1.9S134.6,40.9,134.6,43.1z
					 M132.2,43.2c0-3.5-1.6-5.2-4.9-5.2h-2v10.5h1.7C130.4,48.5,132.2,46.7,132.2,43.2z"/>
				<path class="st3" d="M137.8,50.5V36h2.4v14.5H137.8z"/>
				<path class="st3" d="M149.9,42.6h5.3v7.3c-0.9,0.3-1.7,0.5-2.5,0.6s-1.7,0.2-2.6,0.2c-2.2,0-3.9-0.6-5.1-1.9
					c-1.2-1.3-1.8-3.1-1.8-5.5c0-2.3,0.7-4.2,2-5.5s3.2-2,5.5-2c1.5,0,2.9,0.3,4.3,0.9l-0.8,2c-1.2-0.5-2.3-0.8-3.5-0.8
					c-1.5,0-2.8,0.5-3.7,1.5s-1.3,2.3-1.3,4c0,1.8,0.4,3.1,1.2,4s2,1.4,3.5,1.4c0.8,0,1.6-0.1,2.5-0.3v-3.7h-3L149.9,42.6
					L149.9,42.6z"/>
				<path class="st3" d="M158.6,50.5V36h2.4v14.5H158.6z"/>
				<path class="st3" d="M176.9,50.5H174L166.9,39h-0.1v0.6c0.1,1.2,0.1,2.3,0.1,3.4v7.5h-2.1V36h2.9l7.1,11.5h0.1
					c0-0.2,0-0.7-0.1-1.7s-0.1-1.7-0.1-2.2V36h2.2L176.9,50.5L176.9,50.5z"/>
				<path class="st3" d="M192.5,43.1c0,2.4-0.7,4.2-2,5.5s-3.2,1.9-5.7,1.9h-4V36h4.5c2.3,0,4.1,0.6,5.4,1.9S192.5,40.9,192.5,43.1z
					 M190,43.2c0-3.5-1.6-5.2-4.9-5.2h-2v10.5h1.7C188.2,48.5,190,46.7,190,43.2z"/>
				<path class="st3" d="M208.4,43.2c0,2.4-0.6,4.2-1.8,5.5s-2.8,2-5,2s-3.9-0.6-5-1.9c-1.2-1.3-1.8-3.1-1.8-5.5s0.6-4.2,1.8-5.5
					s2.9-1.9,5-1.9c2.2,0,3.8,0.6,5,1.9C207.8,39,208.4,40.9,208.4,43.2z M197.4,43.2c0,1.8,0.4,3.1,1.1,4.1
					c0.7,0.9,1.8,1.4,3.2,1.4s2.5-0.5,3.2-1.4s1.1-2.3,1.1-4.1c0-1.8-0.4-3.1-1.1-4c-0.7-0.9-1.8-1.4-3.2-1.4s-2.5,0.5-3.2,1.4
					C197.7,40.1,197.4,41.5,197.4,43.2z"/>
				<path class="st3" d="M229.6,43.2c0,2.4-0.6,4.2-1.8,5.5c-1.2,1.3-2.8,2-5,2s-3.9-0.6-5-1.9c-1.2-1.3-1.8-3.1-1.8-5.5
					s0.6-4.2,1.8-5.5s2.9-1.9,5-1.9c2.2,0,3.8,0.6,5,1.9C229,39,229.6,40.9,229.6,43.2z M218.6,43.2c0,1.8,0.4,3.1,1.1,4.1
					c0.7,0.9,1.8,1.4,3.2,1.4s2.5-0.5,3.2-1.4s1.1-2.3,1.1-4.1c0-1.8-0.4-3.1-1.1-4s-1.8-1.4-3.2-1.4s-2.5,0.5-3.2,1.4
					C218.9,40.1,218.6,41.5,218.6,43.2z"/>
				<path class="st3" d="M240.4,44.7v5.8H238V36h4.1c1.9,0,3.2,0.3,4.1,1s1.3,1.8,1.3,3.2c0,1.8-0.9,3.1-2.8,3.8l4.1,6.4h-2.6
					l-3.5-5.8h-2.3V44.7z M240.4,42.7h1.6c1.1,0,1.9-0.2,2.4-0.6s0.7-1,0.7-1.8s-0.3-1.4-0.8-1.8S243,38,241.9,38h-1.6L240.4,42.7
					L240.4,42.7z"/>
				<path class="st3" d="M259.1,50.5h-8.2V36h8.2v2h-5.8v3.9h5.5v2h-5.5v4.5h5.8V50.5z"/>
				<path class="st3" d="M270.6,46.6c0,1.3-0.5,2.3-1.4,3s-2.2,1.1-3.8,1.1s-3-0.3-4-0.8v-2.2c0.7,0.3,1.4,0.6,2.1,0.7
					c0.7,0.2,1.4,0.3,2.1,0.3c0.9,0,1.6-0.2,2.1-0.5c0.4-0.4,0.7-0.8,0.7-1.4c0-0.5-0.2-1-0.6-1.4s-1.3-0.8-2.5-1.3
					c-1.3-0.5-2.2-1.1-2.8-1.8c-0.5-0.7-0.8-1.5-0.8-2.5c0-1.2,0.4-2.2,1.3-2.8c0.9-0.7,2-1,3.5-1c1.4,0,2.8,0.3,4.1,0.9l-0.8,1.9
					c-1.3-0.5-2.4-0.8-3.4-0.8c-0.8,0-1.3,0.2-1.7,0.5c-0.4,0.3-0.6,0.8-0.6,1.3c0,0.4,0.1,0.7,0.2,1c0.2,0.3,0.4,0.5,0.8,0.8
					c0.4,0.2,1,0.6,2,0.9c1.1,0.4,1.8,0.9,2.3,1.2c0.5,0.4,0.9,0.8,1.1,1.3C270.5,45.3,270.6,45.9,270.6,46.6z"/>
				<path class="st3" d="M284.7,36v9.4c0,1.1-0.2,2-0.7,2.8s-1.1,1.4-2,1.8s-1.9,0.6-3.1,0.6c-1.8,0-3.2-0.5-4.2-1.4
					s-1.5-2.3-1.5-3.9V36h2.4v9.2c0,1.2,0.3,2.1,0.8,2.6s1.4,0.9,2.6,0.9c2.2,0,3.3-1.2,3.3-3.5v-9.1h2.4V36z"/>
				<path class="st3" d="M294.7,50.5l-4.2-12.1h-0.1c0.1,1.8,0.2,3.5,0.2,5v7h-2.1V35.9h3.3l4,11.5h0.1l4.1-11.5h3.3v14.6H301v-7.2
					c0-0.7,0-1.7,0.1-2.8s0.1-1.9,0.1-2.1h-0.1l-4.3,12.1H294.7z"/>
				<path class="st3" d="M320,43.2c0,2.4-0.6,4.2-1.8,5.5c-1.2,1.3-2.8,2-5,2s-3.9-0.6-5-1.9c-1.2-1.3-1.8-3.1-1.8-5.5
					s0.6-4.2,1.8-5.5c1.2-1.3,2.9-1.9,5-1.9c2.2,0,3.8,0.6,5,1.9C319.4,39,320,40.9,320,43.2z M308.9,43.2c0,1.8,0.4,3.1,1.1,4.1
					c0.7,0.9,1.8,1.4,3.2,1.4c1.4,0,2.5-0.5,3.2-1.4s1.1-2.3,1.1-4.1c0-1.8-0.4-3.1-1.1-4s-1.8-1.4-3.2-1.4c-1.4,0-2.5,0.5-3.2,1.4
					S308.9,41.5,308.9,43.2z"/>
			</g>
		</g>
	</g>
	<g id="Camada_2_1_">
	</g>
</g>
</svg>
