<?xml version="1.0" encoding="utf-8"?>
<!-- Generator: Adobe Illustrator 24.3.0, SVG Export Plug-In . SVG Version: 6.00 Build 0)  -->
<svg version="1.1" id="Camada_1" xmlns="http://www.w3.org/2000/svg" xmlns:xlink="http://www.w3.org/1999/xlink" x="0px" y="0px"
	 viewBox="0 0 888 500" style="enable-background:new 0 0 888 500;" xml:space="preserve">
<style type="text/css">
	.st0{enable-background:new    ;}
	.st1{fill:#08536A;}
	.st2{fill:#FFAC5A;}
</style>
<g>
	<g class="st0">
		<path class="st1" d="M251.6,283.2h-21.2v-35.7h21.2v7.7H240v5.6h10.7v7.7H240v6.7h11.5v8H251.6z"/>
		<path class="st1" d="M278.6,274.7c0,3-1,5.2-3,6.7s-4.9,2.3-8.7,2.3c-2.1,0-3.8-0.1-5.3-0.3c-1.5-0.2-3.1-0.6-4.6-1.2v-7.6
			c1.5,0.7,3.1,1.2,4.9,1.6s3.3,0.6,4.7,0.6c2.1,0,3.1-0.5,3.1-1.4c0-0.5-0.3-0.9-0.9-1.3s-2.3-1.1-5-2.2c-2.5-1-4.3-2.2-5.3-3.6
			c-1-1.3-1.5-3-1.5-5c0-2.6,1-4.6,3-6s4.8-2.1,8.4-2.1c1.8,0,3.5,0.2,5.1,0.6c1.6,0.4,3.3,1,5,1.7l-2.6,6.2c-1.3-0.6-2.6-1.1-4-1.5
			s-2.6-0.6-3.5-0.6c-1.6,0-2.3,0.4-2.3,1.1c0,0.5,0.3,0.9,0.8,1.2c0.5,0.3,2.1,1,4.7,2c1.9,0.8,3.4,1.6,4.3,2.3
			c1,0.8,1.7,1.7,2.1,2.7C278.4,272,278.6,273.3,278.6,274.7z"/>
		<path class="st1" d="M296.5,283.7c-4.5,0-8-1.2-10.3-3.7c-2.3-2.4-3.5-5.9-3.5-10.5s1.3-8.1,3.8-10.7c2.5-2.5,6.1-3.8,10.8-3.8
			c3.2,0,6.2,0.7,9.1,2.1l-2.8,7.1c-1.2-0.5-2.2-0.9-3.2-1.2c-1-0.3-2-0.5-3.1-0.5c-1.5,0-2.7,0.6-3.6,1.8c-0.8,1.2-1.3,2.9-1.3,5.1
			c0,4.4,1.6,6.6,4.9,6.6c2.8,0,5.5-0.8,8.1-2.4v7.6C302.9,282.9,300,283.7,296.5,283.7z"/>
		<path class="st1" d="M327.6,255.1c0.8,0,1.6,0.1,2.4,0.2l0.5,0.1l-0.9,9c-0.8-0.2-1.9-0.3-3.2-0.3c-2.1,0-3.6,0.5-4.5,1.4
			c-0.9,1-1.4,2.3-1.4,4.1v13.6H311v-27.7h7.1l1.5,4.4h0.5c0.8-1.5,1.9-2.6,3.3-3.6C324.7,255.5,326.1,255.1,327.6,255.1z"/>
		<path class="st1" d="M334.1,248.7c0-1.4,0.4-2.5,1.2-3.2c0.8-0.7,2.1-1,3.9-1s3.1,0.4,3.9,1.1c0.8,0.7,1.2,1.8,1.2,3.2
			c0,2.8-1.7,4.2-5.1,4.2C335.8,252.9,334.1,251.5,334.1,248.7z M343.9,283.2h-9.5v-27.7h9.5V283.2z"/>
		<path class="st1" d="M364.1,276.2c1.3,0,2.8-0.3,4.6-1v7c-1.3,0.6-2.5,0.9-3.7,1.2c-1.2,0.2-2.5,0.4-4.1,0.4
			c-3.2,0-5.5-0.8-6.9-2.4s-2.1-4-2.1-7.2v-11.4h-3.3v-3.9l4.2-3l2.5-5.8h6.2v5.5h6.8v7.2h-6.8v10.8
			C361.6,275.3,362.4,276.2,364.1,276.2z"/>
		<path class="st1" d="M391.6,283.2l-1.8-3.7h-0.2c-1.3,1.6-2.6,2.7-3.9,3.3c-1.3,0.6-3.1,0.9-5.2,0.9c-2.6,0-4.7-0.8-6.2-2.3
			c-1.5-1.6-2.2-3.8-2.2-6.6c0-2.9,1-5.1,3.1-6.6c2.1-1.4,5-2.2,8.9-2.4l4.6-0.1v-0.4c0-2.3-1.1-3.4-3.4-3.4c-2,0-4.6,0.7-7.7,2.1
			l-2.8-6.3c3.2-1.7,7.3-2.5,12.2-2.5c3.5,0,6.3,0.9,8.2,2.6c1.9,1.8,2.9,4.2,2.9,7.4v18.1h-6.5V283.2z M384.6,277
			c1.2,0,2.1-0.4,3-1.1c0.8-0.7,1.2-1.7,1.2-2.9v-2.1l-2.2,0.1c-3.1,0.1-4.7,1.3-4.7,3.5C381.8,276.1,382.8,277,384.6,277z"/>
		<path class="st1" d="M434.2,254.9c-2.3,0-4.1,0.9-5.4,2.8s-1.9,4.5-1.9,7.8c0,6.9,2.6,10.3,7.8,10.3c1.6,0,3.1-0.2,4.6-0.7
			c1.5-0.4,3-1,4.5-1.6v8.2c-3,1.3-6.3,2-10.1,2c-5.4,0-9.5-1.6-12.4-4.7s-4.3-7.6-4.3-13.5c0-3.7,0.7-6.9,2.1-9.7s3.4-5,6-6.5
			s5.7-2.3,9.2-2.3c3.9,0,7.5,0.8,11.1,2.5l-3,7.6c-1.3-0.6-2.6-1.1-4-1.6C437.1,255.1,435.7,254.9,434.2,254.9z"/>
		<path class="st1" d="M450,248.7c0-1.4,0.4-2.5,1.2-3.2c0.8-0.7,2.1-1,3.9-1s3.1,0.4,3.9,1.1c0.8,0.7,1.2,1.8,1.2,3.2
			c0,2.8-1.7,4.2-5.1,4.2C451.7,252.9,450,251.5,450,248.7z M459.8,283.2h-9.5v-27.7h9.5V283.2z"/>
		<path class="st1" d="M479.8,283.7c-4.6,0-8.2-1.2-10.7-3.7s-3.8-5.9-3.8-10.5c0-4.7,1.2-8.3,3.5-10.8c2.4-2.5,5.7-3.7,10.1-3.7
			c4.2,0,7.4,1.1,9.7,3.3c2.3,2.2,3.4,5.3,3.4,9.4v4.2h-17.1c0.1,1.5,0.6,2.8,1.7,3.6c1.1,0.9,2.5,1.3,4.4,1.3
			c1.7,0,3.2-0.2,4.6-0.5s2.9-0.9,4.6-1.6v6.9c-1.5,0.8-3,1.3-4.6,1.6S482,283.7,479.8,283.7z M479.2,261.6c-1.1,0-2.1,0.4-2.8,1.1
			c-0.8,0.7-1.2,1.8-1.3,3.3h8.2c0-1.3-0.4-2.4-1.1-3.2C481.4,262,480.5,261.6,479.2,261.6z"/>
		<path class="st1" d="M514.8,283.2v-15.1c0-1.8-0.3-3.2-0.8-4.2c-0.5-0.9-1.4-1.4-2.6-1.4c-1.6,0-2.8,0.6-3.5,1.9s-1.1,3.5-1.1,6.6
			v12.1h-9.5v-27.7h7.2l1.2,3.4h0.6c0.8-1.3,1.9-2.3,3.4-2.9c1.4-0.7,3.1-1,5-1c3.1,0,5.4,0.9,7.1,2.7c1.7,1.8,2.6,4.3,2.6,7.5v18
			L514.8,283.2L514.8,283.2z"/>
		<path class="st1" d="M544.4,276.2c1.3,0,2.8-0.3,4.6-1v7c-1.3,0.6-2.5,0.9-3.7,1.2c-1.2,0.2-2.5,0.4-4.1,0.4
			c-3.2,0-5.5-0.8-6.9-2.4s-2.1-4-2.1-7.2v-11.4h-3.3v-3.9l4.2-3l2.5-5.8h6.2v5.5h6.8v7.2h-6.8v10.8
			C541.8,275.3,542.7,276.2,544.4,276.2z"/>
		<path class="st1" d="M553.2,252.9v-0.7c2.5-2.7,4.1-4.4,4.8-5.2s1.2-1.5,1.7-2.1h10.4v0.5c-1.3,1-3.1,2.4-5.4,4s-4,2.8-5.2,3.5
			H553.2z M563.4,283.2h-9.5v-27.7h9.5V283.2z"/>
		<path class="st1" d="M587,262.7h-5.9v20.5h-9.5v-20.5h-3.7V258l3.9-2.3v-0.5c0-3.6,0.7-6.3,2.2-7.9c1.5-1.6,3.9-2.4,7.2-2.4
			c1.3,0,2.5,0.1,3.6,0.3s2.4,0.5,3.9,1l-2.1,6.2c-1.2-0.3-2.3-0.5-3.4-0.5c-0.7,0-1.3,0.2-1.6,0.7c-0.3,0.4-0.5,1.2-0.5,2.2v0.7
			h5.9L587,262.7L587,262.7z M590.6,248.7c0-1.4,0.4-2.5,1.2-3.2s2.1-1,3.9-1s3.1,0.4,3.9,1.1c0.8,0.7,1.2,1.8,1.2,3.2
			c0,2.8-1.7,4.2-5.1,4.2C592.2,252.9,590.6,251.5,590.6,248.7z M600.4,283.2h-9.5v-27.7h9.5V283.2z"/>
		<path class="st1" d="M619.6,283.7c-4.5,0-8-1.2-10.3-3.7c-2.3-2.4-3.5-5.9-3.5-10.5s1.3-8.1,3.8-10.7c2.5-2.5,6.1-3.8,10.8-3.8
			c3.2,0,6.2,0.7,9.1,2.1l-2.8,7.1c-1.2-0.5-2.2-0.9-3.2-1.2c-1-0.3-2-0.5-3.1-0.5c-1.5,0-2.7,0.6-3.6,1.8c-0.8,1.2-1.3,2.9-1.3,5.1
			c0,4.4,1.6,6.6,4.9,6.6c2.8,0,5.5-0.8,8.1-2.4v7.6C626,282.9,623,283.7,619.6,283.7z"/>
		<path class="st1" d="M652,283.2l-1.8-3.7H650c-1.3,1.6-2.6,2.7-3.9,3.3s-3.1,0.9-5.2,0.9c-2.6,0-4.7-0.8-6.2-2.3s-2.2-3.8-2.2-6.6
			c0-2.9,1-5.1,3.1-6.6c2.1-1.4,5-2.2,8.9-2.4l4.6-0.1v-0.4c0-2.3-1.1-3.4-3.4-3.4c-2,0-4.6,0.7-7.7,2.1l-2.8-6.3
			c3.2-1.7,7.3-2.5,12.2-2.5c3.5,0,6.3,0.9,8.2,2.6c1.9,1.8,2.9,4.2,2.9,7.4v18.1H652V283.2z M644.9,277c1.2,0,2.1-0.4,3-1.1
			c0.8-0.7,1.2-1.7,1.2-2.9v-2.1l-2.2,0.1c-3.1,0.1-4.7,1.3-4.7,3.5C642.2,276.1,643.1,277,644.9,277z"/>
	</g>
	<rect x="230.1" y="294.2" class="st2" width="428.2" height="3"/>
</g>
</svg>
